<svg xmlns="http://www.w3.org/2000/svg" width="100%" height="100%" viewBox="0 0 10667 6000" fill-rule="evenodd" stroke-linecap="round" stroke-linejoin="round" stroke-miterlimit="1.5" xmlns:v="https://vecta.io/nano"><style><![CDATA[.B{stroke:silver}.C{stroke-width:5.56}]]></style><g fill="none" class="B C"><path d="M7494.7 1583.13c-62.33 373.202 349.8 312.545 279.047-20.915"/><path d="M7648.46 1311.3c4.776 88.054 12.085 167.364-21.127 195.396-126.6 106.853-334.16 161.043-236.07-93.042m236.067 93.046c237.776 115.628 338.86 80.896 296.695-111.413"/></g><g fill="#f2f2f2" class="B C"><ellipse cx="7645.83" cy="1227.31" rx="152.219" ry="104.978"/><ellipse cx="7328.27" cy="849.387" rx="70.86" ry="76.109"/><ellipse cx="8010.63" cy="838.889" rx="70.86" ry="76.109"/></g><g fill="none" class="B C"><path d="M7085.3 458.902c72.3-124.8 309.282-198.91 620.24-196.282 239.885 2.027 562.05 48.014 649.14 162.16l-24.6 221.608a41.17 41.17 0 0 0 12.294 34.128c101.236 99.35 44.858 396.788 26.248 702.667-105.034 247.507-31.73 444.24 85.978 659.107 262.993 502.263 306.918 1063.53 147.543 1686.64-214.588 516.048-341.918 1006.73-340.81 1455.4.022 5.576 1.18 11.1 3.402 16.204 197 454.566-165.313 622.394-436.65 442.657-11.774-7.876-20.684-19.35-25.398-32.708-52.327-153.053-59.33-379.988-45.376-546.677 40.115-213.28 18.355-427.862 36.09-624.993 66.57-739.964-81.632-851.125-206.162-902.72-415.063 15.587-342.573 822.033-341.486 1576.86 1.347 164.426-30.336 316.466-92.6 457.038-7.852 17.565-21.128 32.15-37.878 41.615-279.093 156.363-622.8 80.407-414.537-336.324 8.908-17.806 12.118-37.923 9.192-57.616L6494.55 3767.66c-111.63-632.77 4.74-1181.28 304.574-1661.98 133.545-205.4 221.447-396.057 135.337-650.768 4.522-310.514 5.12-636.762 120.866-725.317 7.204-5.35 11.71-13.58 12.34-22.53l17.622-248.162z"/><path d="M7119.73 5609.36l684.933.184M6494.78 3769c-120.24 419.422-312.278 825.63-265.7 1199.8 28.67 230.3 144.488 469.672 432.794 629.54m1940.246-1869.4c26.116 97.048 21.803 217.25 44.862 307.342 194.84 761.23 57.377 1475.16-358.645 1544.76M8354.67 424.78c301.776 189.197 522.323 375.33 466.742 546.17-135.985 417.977-418.003 895.08-452.8 412.233M7085.3 458.902c-443.528 239.95-572.146 443.354-498.313 678.447 113.767 362.243 256.046 721.755 347.485 317.562"/></g></svg>