<svg xmlns="http://www.w3.org/2000/svg" width="100%" height="100%" viewBox="0 0 800 600" fill-rule="evenodd" stroke-linecap="round" stroke-linejoin="round" stroke-miterlimit="1.5" xmlns:v="https://vecta.io/nano"><style><![CDATA[.B{stroke:#bfbfbf}.C{stroke-width:.67}]]></style><path d="M472.527 249.175c4.302 29.286-3.304 40.2-15.592 43.9a5.49 5.49 0 0 1-6.572-2.91c-10.56-23.025-27.387 3.433-50.817-.528-26.384 6.156-44.1-20.596-50.153 2.035a4.12 4.12 0 0 1-2.14 2.571c-1.045.516-2.26.565-3.343.136-13.978-5.622-21.64-18.126-25.596-34.67m-13.174-82.793l-11.048 13.328m199.626-13.328l11.05 13.328" fill="none" class="B C"/><ellipse cx="399.296" cy="204.389" rx="21.408" ry="15.77" fill="#f2f2f2" class="B C"/><path d="M399.296 220.16v19.803c14.708 6.502 22.042 5.63 18.196-6.423m-18.196 6.422c-12.5 7-21.752 9.08-21.408-3.212m-4.84-106.956c10.787 20.455 16.53 40.45 15.052 59.8-33.7 9.37-58.016 27.006-72.753 53.1 10.638-3.95 17.06-4.155 14.97 1.133-1.017 2.574-9.6 10.396-12.2 15.775m107.25-129.798c-10.788 20.455-16.53 40.45-15.052 59.8 33.7 9.37 58.016 27.006 72.753 53.1-10.64-3.95-17.06-4.155-14.97 1.133 1.017 2.574 9.6 10.396 12.2 15.775m-54.934-82.268c.465.6 1.176.96 1.935.98a2.52 2.52 0 0 0 1.98-.885c12.02-14.23 25.025-11.323 40.78 16.553 1.76 3.633 6.324 3.058 12.543 0 1.843-1.2 4.333-3.77 5.37-7.162.58-1.904-.377-4.423.47-6.217 1.06-2.248 4.083-1.668 5.032-4.582.826-5.9-1.382-10.954-8.362-14.634 10.457-8.506 4.705-14.397-14.97-18.042-.825-.158-1.497-.755-1.75-1.556s-.047-1.676.538-2.28c8.056-8.25.46-10.77-28.976-5.3 2.926-5.753 5.786-7.686 5.44-8.923-.546-1.948-3.468-2.667-6.95-2.495-3.27.162-7.033 1.094-9.782 3.018-2.872 2.008-3.808 7.076-4.18 13-7.214 13.726-8.206 26.72.88 38.527zm-52.545 0c-.465.6-1.176.96-1.936.98a2.52 2.52 0 0 1-1.98-.885c-12.02-14.23-25.024-11.323-40.778 16.553-1.76 3.633-6.324 3.058-12.544 0-1.842-1.2-4.332-3.77-5.368-7.162-.582-1.904.376-4.423-.47-6.217-1.06-2.248-4.083-1.668-5.033-4.582-.825-5.9 1.383-10.954 8.363-14.634-10.458-8.506-4.705-14.397 14.97-18.042.825-.158 1.497-.755 1.75-1.556s.046-1.676-.54-2.28c-8.055-8.25-.46-10.77 28.976-5.3-2.925-5.753-5.785-7.686-5.44-8.923.545-1.948 3.467-2.667 6.948-2.495 3.27.162 7.033 1.094 9.783 3.018 2.87 2.008 3.807 7.076 4.18 13 7.213 13.726 8.205 26.72-.88 38.527zm-108.635 363.74c-17.323-2.8-28.168-16.724-30.506-45.224-17.198-20.98-17.4-41.2-3.2-60.744-.568-20.176 8.15-34.037 25.422-42.08m278.96 148.048c17.323-2.8 29.133-16.724 31.47-45.224 17.198-20.98 17.4-41.2 3.2-60.744.568-20.176-9.246-34.037-26.518-42.08m-77.47 148.048H333.24" fill="none" class="B C"/><g fill="#f2f2f2" class="B"><ellipse cx="354.412" cy="183.544" rx="12.451" ry="12.941"/><ellipse cx="443.774" cy="183.544" rx="12.451" ry="12.941"/></g><g fill="none" class="C B"><path d="M398.342 456.223c-17.373 3.072-33.787-.578-49.477-9.298 1.902 30.297.5 56.82-9.8 73.17-1.412 19.645-8.588 32.64-32.665 26.133-21.533 9.456-35.524 6.66-43.12-6.533-10.943-43.337-14.1-86.673-5.88-130-6.74-52.36-1.243-87.304 31.36-121.516-129.563-61.358-31.407-209.118 110.4-216.246l.83.043c141.378 7.676 238.884 154.967 109.58 216.203 32.603 34.212 38.1 69.155 31.36 121.516 8.22 43.337 5.063 86.673-5.88 130-7.595 13.192-21.586 15.99-43.12 6.533-24.077 6.507-31.252-6.488-32.665-26.133-10.3-16.352-11.702-42.874-9.8-73.17-15.938 8.858-32.624 12.484-50.305 9.147l-.828.15z"/><path d="M485.35 95.27c-5.962 7.55-9.092 22.342-3.737 33.24 23.637 48.1 29.345 75.105 19.925 91.158-10.802 18.408-22.88 36.333-23.43 56.694 9.525-6.193 17.653-13.318 23.833-21.742 1.18 11.328-3.688 21.983-12.544 32.195 15.867-4.76 27.202-14.053 36.377-25.505-.38 8.92-5.893 17.84-16.307 26.76M304.87 99.87c5.962 7.55 12.413 27.348 7.08 38.258-18.032 36.9-23.78 64.392-14.907 81.54 9.807 18.957 22.88 36.333 23.43 56.694-9.525-6.193-17.653-13.318-23.833-21.742-1.18 11.328 3.688 21.983 12.544 32.195-15.867-4.76-27.202-14.053-36.377-25.505.38 8.92 5.893 17.84 16.307 26.76"/></g></svg>