<svg xmlns="http://www.w3.org/2000/svg" width="100%" height="100%" viewBox="0 0 2700 5550" fill-rule="evenodd" stroke-linecap="round" stroke-linejoin="round" stroke-miterlimit="1.5" xmlns:v="https://vecta.io/nano"><style><![CDATA[.B{stroke:#bfbfbf}.C{stroke-width:5.6}.D{stroke-width:4}]]></style><g fill="none" class="B"><g class="C"><path d="M1333.42 347.055c137.954-15.36 264.866-3.08 385.247 25.527 97.564-97.8 236.427-167.16 313.083-220.683C2190.38 41.138 2190.087 16.1 2232.522 55.2c47.353 43.633 65.027 238.27 4.997 557.57 233.325 351.04 246.452 744.77 45.428 1180.02 115.017 323.693 209.263 661.38 213.475 1016.1 209.316 471.39 227.38 998.736-41.98 1585.36 36.703 77.89 51.723 180.017-22.653 213.476l-426.024-4.627c-103.98 53.19-201.5 52.558-292.408-3.175l-379.936-4.126-191.25 2.077c-133.002 84.123-262.155 94.35-386.08 4.192l-521.04 5.66c-74.375-33.46-59.356-135.585-22.653-213.476-269.36-586.628-251.297-1113.97-41.98-1585.36 4.212-354.72 98.458-692.405 213.476-1016.1-201.025-435.25-187.898-828.98 45.427-1180.02-60.03-319.3-42.356-513.938 4.998-557.57 42.435-39.1 42.14-14.063 200.77 96.698 76.656 53.523 215.52 122.882 313.084 220.683 120.38-28.608 247.292-40.886 385.247-25.527z"/><path d="M809.082 376.268C667.703 239 568.586 179.794 516.56 207.57s-56.96 142.53-9.972 353.187c145.815 14.267 240.9-56.924 302.493-184.488z"/></g><path d="M1015.87 605.633c46.944 64.266 56.657 128.532 28.255 192.798-54.84-39.5-70.924-100.12-28.255-192.798zm660.5 0c-46.945 64.266-56.657 128.532-28.255 192.798 54.84-39.5 70.924-100.12 28.255-192.798z" class="D"/><path d="M1282.35 965.703a180.29 180.29 0 0 1 139.731-1.572c125.853 51.546 225.746 151.744 310.123 276.014a92.23 92.23 0 0 1 8.478 15.541c12.33 29.162 22.995 60.84 31.863 95.214 14.885 57.9-9.655 118.748-60.545 150.12-70.476 43.654-149.855 82.862-242.376 115.5-41.433 14.578-85.868 18.492-129.212 11.384-143.474-23.693-259.054-72.74-345.142-148.597-.63-.557-1.187-1.194-1.653-1.895-29.672-44.76-35.498-96.332-17.475-154.717l.02-.07c58.492-178.884 163.033-294.45 306.187-356.924z" class="C"/><path d="M1080.88 457.708c48.322 52.856 56.265 131.183 101.69 168.204 57.925 47.208 68.323 132.66 79.475 204.096-54.58-47.7-78.955-116.54-130.1-160.59-47.49-40.898-50.68-132.49-51.063-211.71z" class="D"/><path d="M2584.43 3048.33c-108.758 422.17-243.457 836.926-400.692 1245.24-73.5 431.796-511.94 482.712-638.85 49.343-30.4-356.1 23.902-649.418-22.114-796.8-68.34-218.883-238.972-169.107-274.08 44.182-24.8 150.598 49.9 421.802 26.1 763.004-69.752 442.12-699.622 410.028-605.1-80.505-226.903-428.126-405.9-874.68-542.764-1337.43" class="C"/><path d="M1601.1 457.708c-48.32 52.856-56.265 131.183-101.7 168.204-57.925 47.208-68.323 132.66-79.474 204.096 54.58-47.7 78.954-116.54 130.1-160.6 47.488-40.898 50.68-132.5 51.062-211.7zm-265.92-61.496c51.632 163.513 59.726 306.294 18.282 425.486-62.525-120.928-75.426-260.236-18.282-425.486z" class="D"/><path d="M2041.65 964.423c97.87 26.802 203.093 51.882 235.03 129.218 33.952 82.214 90.878 113.253 118.156 185.014-75.307-42.738-171.04-83.956-209.485-154.5-33.56-61.586-99.123-101.166-143.7-159.723zM351.036 1328c162.262 181.862 312.98 205.95 454.467 103.878-165.637-2.793-316.53-38.758-454.467-103.878zm319.96-439.657c-85.362 30.792-173.376 51.688-208.192 111.574-44.03 75.737-99.954 121.06-141.086 169.528 84.177-19.365 188.665-40.582 222.68-125.396 18.816-46.92 86.36-95.046 126.6-155.706z" stroke-width=".67"/><path d="M1235.85 3766.4c-405.003-26.004-477.14 15.608 18.18 176.593m1049.1 16.407c-610.515-20.167-604.17 36.243-58.173 161.506M1537.66 3590.46c423.618-41.95 603.1-32.228 7.822 133.76M238.616 3288.56c683.264 146.47 951.923 253.54 103.878 254.5M2305.8 1894c-599.323 277.815-1238.46 268.412-1934.73-28.566 305.47 318.95 655.63 367.764 1028.28 329.408 6.674-.687-6.682-.17 0 0 329.302 8.44 639.433-23.08 906.45-300.842h.001zm85.7 322c-657.815 409.424-1467.36 399.097-2111.32-15.582 305.47 318.95 704.394 552.76 1059.45 485.226 61.765-11.75 170.66-18.067 264.102-9.823 353.777 31.214 534.058-166.545 787.776-459.82h-.008z" class="D"/><path d="M1457.87 1065.47c-169.054 52.713-83.48 227.56 68.747 374.17 45.203 43.536 98.97 47.774 164.845-3.928M1249.33 1059.05c169.055 52.712 92.598 235.46-59.63 382.072-45.203 43.536-98.97 47.774-164.845-3.928" class="C"/></g><path d="M1258.8 1048.8c-.157-.118-.235-.314-.202-.508a.53.53 0 0 1 .357-.414c65.892-21.346 130.803-22.76 194.745-4.468.23.066.404.25.457.484s-.025.475-.203.634l-91.95 81.733a1.06 1.06 0 0 1-1.347.052L1258.8 1048.8z" fill="#f2f2f2" class="B C"/><g fill="none" class="B"><path d="M2361.08 1408.5c-135.907 51.208-308.172 69.982-444.08 51.94 160.477 120.075 332.08 98.07 444.08-51.94z" stroke-width=".67"/><path d="M926.374 839.723c96.525 10.797 167.888 82.17 159.263 159.3s-93.994 130.962-190.52 120.166-167.9-82.17-159.263-159.3 93.994-130.962 190.52-120.166zm906.946 13.95c-96.5-11.024-181.995 42.62-190.802 119.716s62.387 148.64 158.886 159.664 181.995-42.62 190.803-119.716-62.387-148.64-158.887-159.664z" class="C"/></g><g fill="#f2f2f2" class="B C"><ellipse cx="914.972" cy="974.653" rx="84.527" ry="87.851"/><ellipse cx="1805.36" cy="974.653" rx="84.527" ry="87.851"/></g><path d="M2516.15 3306.73c-780.2 48.493-807.402-82.273 38.954-340.2" fill="none" class="B D"/><path d="M1877 376.268c141.38-137.268 240.496-196.474 292.52-168.7s56.96 142.53 9.972 353.187c-145.816 14.267-240.9-56.924-302.493-184.488z" fill-opacity="0" class="B C"/><path d="M130.045 2930.14c546.226-47.6 570.558 15.405 57.226 182.476" fill="none" class="B D"/></svg>