<svg xmlns="http://www.w3.org/2000/svg" width="100%" height="100%" viewBox="0 0 2400 2134" fill-rule="evenodd" stroke-linejoin="round" stroke-miterlimit="2" xmlns:v="https://vecta.io/nano"><path d="M2400 900v66.667c0 55.23-44.77 100-100 100h-33.333l-108.805 761.616c-14.074 98.53-98.458 171.717-197.987 171.717H440.125c-99.53 0-183.913-73.187-197.992-171.717l-108.8-761.616H100c-55.23 0-100-44.77-100-100V900c0-55.23 44.77-100 100-100h280.588l444.916-611.754c43.313-59.55 126.696-72.72 186.254-29.408s72.72 126.7 29.41 186.254L710.32 800h979.358l-330.846-454.912c-43.312-59.55-30.14-142.942 29.413-186.255 59.546-43.312 142.942-30.145 186.254 29.41L2019.413 800H2300c55.23 0 100 44.77 100 100zm-1100 733.333v-466.666c0-55.23-44.77-100-100-100s-100 44.77-100 100v466.666c0 55.23 44.77 100 100 100s100-44.77 100-100zm466.667 0v-466.666c0-55.23-44.77-100-100-100s-100 44.77-100 100v466.666c0 55.23 44.77 100 100 100s100-44.77 100-100zm-933.334 0v-466.666c0-55.23-44.77-100-100-100s-100 44.77-100 100v466.666c0 55.23 44.77 100 100 100s100-44.77 100-100z" fill="#45a86e" fill-rule="nonzero"/></svg>