<?xml version="1.0" encoding="UTF-8" standalone="no"?><!DOCTYPE svg PUBLIC "-//W3C//DTD SVG 1.1//EN" "http://www.w3.org/Graphics/SVG/1.1/DTD/svg11.dtd"><svg width="100%" height="100%" viewBox="0 0 1377 1377" version="1.1" xmlns="http://www.w3.org/2000/svg" xmlns:xlink="http://www.w3.org/1999/xlink" xml:space="preserve" xmlns:serif="http://www.serif.com/" style="fill-rule:evenodd;clip-rule:evenodd;stroke-linejoin:round;stroke-miterlimit:2;"><path d="M1277.81,540.611l-442.319,0l0,-442.318c0,-54.276 -44.016,-98.293 -98.293,-98.293l-98.293,0c-54.276,0 -98.293,44.017 -98.293,98.293l0,442.318l-442.318,0c-54.276,0 -98.293,44.017 -98.293,98.293l0,98.293c0,54.277 44.017,98.293 98.293,98.293l442.318,0l0,442.319c0,54.276 44.017,98.293 98.293,98.293l98.293,0c54.277,0 98.293,-44.017 98.293,-98.293l0,-442.319l442.319,0c54.276,0 98.293,-44.016 98.293,-98.293l0,-98.293c0,-54.276 -44.017,-98.293 -98.293,-98.293Z" style="fill:url(#_Radial1);"/><defs><radialGradient id="_Radial1" cx="0" cy="0" r="1" gradientUnits="userSpaceOnUse" gradientTransform="matrix(5115.23,0,0,4231.79,-1374.76,-2118.14)"><stop offset="0" style="stop-color:#1c92ad;stop-opacity:1"/><stop offset="0.72" style="stop-color:#2394a1;stop-opacity:1"/><stop offset="1" style="stop-color:#38987e;stop-opacity:1"/></radialGradient></defs></svg>