<svg xmlns="http://www.w3.org/2000/svg" width="100%" height="100%" viewBox="0 0 512 512" fill-rule="evenodd" stroke-linejoin="round" stroke-miterlimit="2" xmlns:v="https://vecta.io/nano"><path d="M319.07 242.794L269.37 355.5c-6 13.72-23.4 13.267-28.9-.68l-56.9-143.22-30 81.305h-94.1L241.97 504.4c7.1 8.278 18.6 8.278 25.7 0l182.6-211.484h-109.1l-22.1-50.12zm153.5-192.66l-2.4-2.834c-51.5-59.647-135.8-59.647-187.4 0l-27.9 32.43-27.9-32.318c-51.5-59.76-135.9-59.76-187.4 0l-2.4 2.72c-48.7 56.472-50.8 146.395-7.3 206.495h102.4l35.9-97.747c5.4-14.63 23.6-14.97 29.4-.454l58.2 146.622 49-111.016c5.9-13.38 22.7-13.38 28.6 0l27.6 62.595h118.9c43.5-60.1 41.4-150.023-7.3-206.495z" fill="#e6e6e6" fill-rule="nonzero"/></svg>