<?xml version="1.0" encoding="UTF-8" standalone="no"?><!DOCTYPE svg PUBLIC "-//W3C//DTD SVG 1.1//EN" "http://www.w3.org/Graphics/SVG/1.1/DTD/svg11.dtd"><svg width="100%" height="100%" viewBox="0 0 3707 1404" version="1.1" xmlns="http://www.w3.org/2000/svg" xmlns:xlink="http://www.w3.org/1999/xlink" xml:space="preserve" xmlns:serif="http://www.serif.com/" style="fill-rule:evenodd;clip-rule:evenodd;stroke-linejoin:round;stroke-miterlimit:2;"><path d="M1509.06,1182.19c-0.001,21.249 -14.376,36.562 -35.001,36.562c-21.25,0 -35,-16.25 -35,-36.563c0,-20.312 13.75,-36.562 35,-36.562c20.625,0 35,16.25 35,36.563Zm-971.25,-36.563c-22.187,0 -35,16.25 -35,36.563c0,20.312 12.813,36.562 35,36.562c20.313,0 34.063,-15.313 34.063,-36.563c-0.313,-20.312 -13.75,-36.562 -34.063,-36.562Zm367.188,-0.938c-16.875,0.001 -27.188,10.938 -29.688,27.188l59.688,0c-2.813,-17.813 -13.75,-27.188 -30,-27.188Zm336.875,0.938c-21.25,0 -34.063,16.25 -34.063,36.563c0.001,20.312 12.813,36.562 34.063,36.562c21.25,0 35,-15.313 35,-36.563c0,-20.312 -13.75,-36.562 -35,-36.562Zm330.937,81.563c0,0.937 0.938,1.562 0.938,3.437c0,0.938 -0.938,1.563 -0.938,3.438c-0.937,0.937 -0.937,1.562 -1.562,2.5c-0.938,0.937 -1.563,1.562 -3.438,1.562c-0.937,0.938 -1.562,0.938 -3.437,0.938c-0.938,-0 -1.563,-0 -3.438,-0.938c-0.937,0 -1.562,-0.937 -2.5,-1.562c-0.937,-0.938 -1.562,-1.563 -1.562,-2.5c-0.938,-1.563 -0.938,-2.5 -0.938,-3.438c0,-1.562 0,-2.5 0.938,-3.437c-0,-1.563 0.937,-2.501 1.562,-3.438c0.938,-0.938 1.563,-0.938 2.5,-1.563c1.563,-0.937 2.5,-0.937 3.438,-0.937c1.562,0 2.5,0 3.437,0.938c1.563,0.937 2.5,0.937 3.438,1.562c0.938,0.625 0.625,1.875 1.562,3.438Zm-6.874,4.374c1.562,0 1.562,-0.937 2.5,-0.937c0.937,-0.938 0.937,-1.563 0.937,-2.5c0,-0.938 0,-1.563 -0.937,-2.5c-0.938,-0 -1.563,-0.938 -3.438,-0.938l-5,0l0,10.938l2.5,-0l0,-4.375l0.938,-0l3.437,4.375l2.5,-0l-3.437,-4.063Zm234.062,-1078.44l0,1100c0,82.813 -67.188,150 -150,150l-1500,0c-82.813,0 -150,-67.188 -150,-150l0,-1100c0,-82.813 67.188,-150 150,-150l1500,0c82.813,0 150,67.188 150,150Zm-1600,436.25c0,239.063 194.063,432.813 432.813,432.813c85,-0 168.437,-25.625 239.062,-72.188c-227.813,-185.313 -226.25,-535 0,-720.313c-70.625,-46.875 -154.063,-72.187 -239.063,-72.187c-238.75,-0.312 -432.812,193.75 -432.812,431.875Zm700,340c220.313,-171.875 219.375,-506.875 0,-679.688c-219.375,172.813 -220.313,508.126 0,679.688Zm-444.688,238.438c0,-27.188 -17.812,-45.001 -45.937,-45.938c-14.375,0 -29.688,4.375 -40,20.313c-7.5,-12.813 -20.313,-20.313 -38.125,-20.313c-11.875,0 -23.75,4.375 -33.125,16.875l0,-13.75l-25.625,0l0,114.688l25.625,-0.001c0,-59.062 -7.813,-94.375 28.125,-94.375c31.875,0 25.625,31.875 25.625,94.375l24.688,0c-0,-57.187 -7.813,-94.375 28.125,-94.375c31.874,0 25.624,31.25 25.624,94.375l25.625,0l0,-71.875l-0.625,0Zm140.313,-42.812l-24.688,-0l0,13.75c-8.437,-10.313 -20.312,-16.875 -36.562,-16.875c-32.188,-0 -56.875,25.625 -56.875,60.312c0,35 24.688,60.313 56.875,60.313c16.25,-0 28.125,-5.938 36.563,-16.875l-0,14.375l24.687,0l0,-115Zm126.563,80c-0,-46.875 -71.563,-25.625 -71.563,-47.5c0,-17.813 37.188,-15 57.813,-3.438l10.312,-20.312c-29.375,-19.063 -94.375,-18.75 -94.375,25.625c0,44.687 71.563,25.937 71.563,46.875c-0,19.687 -42.188,18.125 -64.688,2.5l-10.937,19.687c35,23.751 101.875,18.75 101.875,-23.437Zm110.625,29.062l-6.875,-21.25c-11.875,6.563 -38.125,13.75 -38.125,-12.812l-0,-51.875l40.937,-0l0,-23.125l-40.937,-0l-0,-35l-25.625,-0l-0,35l-23.75,-0l-0,22.812l23.75,0l-0,52.188c-0,55 54.062,45 70.625,34.062Zm41.562,-41.874l85.938,-0c-0,-50.625 -23.125,-70.626 -54.375,-70.626c-33.125,0 -56.875,24.688 -56.875,60.313c-0,64.063 70.625,74.687 105.625,44.375l-11.875,-18.75c-24.375,20 -61.25,18.125 -68.438,-15.313Zm184.688,-67.187c-14.376,-6.25 -36.251,-5.625 -47.5,13.75l-0,-13.75l-25.625,-0l-0,114.687l25.625,0l-0,-64.687c-0,-36.25 29.687,-31.563 40,-26.25l7.499,-23.75Zm33.126,57.188c-0,-35.626 36.25,-47.188 64.687,-26.251l11.875,-20.312c-36.25,-28.438 -102.187,-12.813 -102.187,46.875c-0,61.875 70,74.375 102.187,46.875l-11.875,-20.313c-28.75,20.313 -64.687,8.126 -64.687,-26.875Zm208.437,-57.187l-25.625,-0l0,13.75c-25.938,-34.375 -93.438,-15 -93.438,43.437c0.001,60 70.001,77.188 93.438,43.438l0,14.375l25.625,-0l0,-115Zm105.313,-0c-7.5,-3.75 -34.376,-9.063 -47.5,13.75l-0,-13.75l-24.688,-0l0,114.687l24.688,0l-0,-64.687c-0,-34.375 28.125,-32.188 40,-26.25l7.499,-23.75Zm125.938,-46.563l-24.688,0l0.001,60.313c-25.625,-34.063 -93.438,-15.938 -93.438,43.437c0,60.625 70.313,76.875 93.438,43.438l-0,14.375l24.687,-0l0,-161.563Zm23.75,-234.687l0,14.375l2.5,0l0,-14.375l5.938,-0l-0,-2.5l-14.376,-0l0,2.5l5.938,-0Zm20.625,386.875c0,-1.563 0,-3.438 -0.938,-5c-0.937,-0.938 -1.562,-2.5 -2.499,-3.438c-0.938,-0.937 -2.5,-1.562 -3.438,-2.5c-1.562,0 -3.438,-0.937 -5,-0.937c-0.938,-0 -2.5,0.937 -4.375,0.937c-1.562,0.938 -2.5,1.563 -3.438,2.5c-1.562,0.938 -2.499,2.5 -2.499,3.438c-0.938,1.562 -0.938,3.438 -0.938,5c0,0.938 0,2.5 0.938,4.375c-0,0.938 0.937,2.5 2.5,3.438c0.937,0.937 1.562,1.562 3.437,2.499c1.563,0.938 3.438,0.938 4.375,0.938c1.563,-0 3.438,-0 5,-0.938c0.938,-0.937 2.5,-1.562 3.438,-2.5c0.937,-0.937 1.562,-2.5 2.5,-3.437c0.937,-1.875 0.937,-3.438 0.937,-4.375Zm10,-389.688l-4.375,0l-5,10.938l-5,-10.938l-4.375,0l0,16.875l2.5,0l0,-12.812l5,10.937l3.438,0l4.375,-10.937l-0,12.812l3.437,0l0,-16.875Zm13.75,-251.562c0,-238.125 -194.062,-432.188 -432.812,-432.188c-85,0 -168.438,25.625 -239.063,72.188c225.313,185.312 228.75,535.937 0,720.312c70.625,46.875 154.688,72.188 239.063,72.188c238.75,0.312 432.812,-193.438 432.812,-432.5Z" style="fill:#fff;fill-rule:nonzero;"/><path d="M3375.31,622.813c-0.001,-0 23.749,116.25 29.062,140.625l-104.375,-0c10.313,-27.813 50,-135.938 50,-135.938c-0.625,0.938 10.313,-28.438 16.563,-46.563l8.749,41.875Zm330.938,-472.812l0,1100c0,82.813 -67.188,150 -150,150l-1500,0c-82.813,0 -150,-67.188 -150,-150l0,-1100c0,-82.813 67.188,-150 150,-150l1500,0c82.813,0 150,67.188 150,150Zm-1323.44,785l197.501,-485l-132.813,0l-122.813,331.25l-13.437,-67.188l-43.75,-223.125c-7.188,-30.937 -29.375,-39.687 -56.875,-40.937l-202.188,0l-2.187,9.688c49.375,12.5 93.438,30.625 131.875,53.437l111.875,421.875l132.813,0Zm294.999,0.625l78.751,-485.625l-125.626,0l-78.437,485.625l125.313,0Zm437.187,-158.75c0.625,-55.313 -33.125,-97.5 -105.313,-132.188c-44.062,-22.187 -70.937,-37.187 -70.937,-60c0.625,-20.625 22.813,-41.875 72.188,-41.875c40.937,-0.937 70.937,8.75 93.437,18.438l11.25,5.312l17.188,-105c-24.688,-9.687 -64.063,-20.625 -112.501,-20.625c-124.062,0 -211.249,66.25 -211.874,160.625c-0.938,69.688 62.499,108.438 109.999,131.875c48.438,23.75 65.001,39.375 65.001,60.313c-0.626,32.5 -39.376,47.5 -75.313,47.5c-50,0 -76.875,-7.813 -117.813,-25.938l-16.562,-7.812l-17.5,109.062c29.375,13.438 83.75,25.313 140,25.938c131.875,0.313 217.813,-65 218.75,-165.625Zm441.25,158.75l-101.25,-485.625l-97.188,0c-29.999,0 -52.812,8.75 -65.624,40.313l-186.563,445.312l131.875,0c0,0 21.563,-60 26.25,-72.813l161.25,0c3.75,17.188 15,72.813 15,72.813l116.25,0Z" style="fill:#fff;fill-rule:nonzero;"/></svg>