<svg xmlns="http://www.w3.org/2000/svg" width="100%" height="100%" viewBox="0 0 512 512" fill-rule="nonzero" stroke-linejoin="round" stroke-miterlimit="2" fill="#e6e6e6" xmlns:v="https://vecta.io/nano"><path d="M263.197 280.677L125.523 143a9.92 9.92 0 0 0-14.037 0c-27.133 27.133-27.133 71.133 0 98.266l95.56 95.552-20.564 20.565c-9.034-3.565-18.87-5.526-29.17-5.526-43.858 0-79.412 35.554-79.412 79.413s35.554 79.414 79.412 79.414 79.414-35.554 79.414-79.414c0-3.755-.265-7.436-.77-11.052l27.24-27.24 27.24 27.24a80.02 80.02 0 0 0-.768 11.052c0 43.86 35.553 79.414 79.412 79.414s79.413-35.554 79.413-79.414-35.554-79.413-79.413-79.413c-10.3 0-20.134 1.96-29.167 5.526L319.35 336.83l95.56-95.552c27.133-27.133 27.133-71.133 0-98.266-3.87-3.88-10.158-3.88-14.038 0L263.197 280.677zM183.785 431.28c0 14.592-11.88 26.472-26.472 26.472s-26.47-11.88-26.47-26.472 11.878-26.47 26.47-26.47 26.472 11.88 26.472 26.47zm211.767 0c0 14.592-11.88 26.472-26.47 26.472s-26.47-11.88-26.47-26.472 11.88-26.47 26.47-26.47 26.47 11.88 26.47 26.47zM264.705 77.378c-33.958 0-82.104 52.495-82.104 85.632 0 14.924 11.464 23.84 30.678 23.84 20.885 0 34.676-10.725 51.426-10.725 16.895 0 30.725 10.725 51.426 10.725 19.213 0 30.678-8.916 30.678-23.84 0-33.137-48.147-85.632-82.104-85.632zm-62.98-5.392c-4.447-14.818-18.148-24.414-30.6-21.437s-18.94 17.4-14.492 32.217 18.148 24.413 30.6 21.437 18.94-17.4 14.492-32.217zm36.23-8.886c13.23-3.48 19.85-21.356 14.787-39.924S236.234-2.536 223.003.944 199.766 17.22 204.83 35.787s19.897 30.798 33.124 27.313zm120.33-12.547c-12.452-2.976-26.15 6.62-30.6 21.437s2.04 29.24 14.492 32.217 26.15-6.62 30.6-21.437-2.04-29.24-14.492-32.217zM291.457 63.1c13.23 3.48 28.06-8.745 33.124-27.313S323.024 4.43 309.794.944s-28.06 3.665-33.124 22.232 1.556 36.443 14.787 39.924z"/></svg>