<?xml version="1.0" encoding="UTF-8" standalone="no"?>
<!DOCTYPE svg PUBLIC "-//W3C//DTD SVG 1.1//EN" "http://www.w3.org/Graphics/SVG/1.1/DTD/svg11.dtd">
<svg width="100%" height="100%" viewBox="0 0 2513 4395" version="1.1" xmlns="http://www.w3.org/2000/svg" xmlns:xlink="http://www.w3.org/1999/xlink" xml:space="preserve" xmlns:serif="http://www.serif.com/" style="fill-rule:evenodd;clip-rule:evenodd;stroke-linecap:round;stroke-linejoin:round;stroke-miterlimit:1.5;">
    <g id="cat" transform="matrix(0.948554,0,0,0.948554,4.54747e-13,0)">
        <g transform="matrix(1,0,0,1,-8.9919,-35.0914)">
            <g>
                <path d="M1333.42,347.055C1471.37,331.695 1598.29,343.975 1718.67,372.582C1816.23,274.782 1955.09,205.422 2031.75,151.899C2190.38,41.138 2190.09,16.1 2232.52,55.2C2279.88,98.833 2297.55,293.47 2237.52,612.77C2470.84,963.81 2483.97,1357.54 2282.95,1792.79C2397.96,2116.48 2492.21,2454.17 2496.42,2808.89C2705.74,3280.28 2723.8,3807.63 2454.44,4394.25C2491.14,4472.14 2506.16,4574.27 2431.79,4607.73L2005.77,4603.1C1901.79,4656.29 1804.27,4655.66 1713.36,4599.92L1333.42,4595.8L1142.17,4597.88C1009.17,4682 880.016,4692.23 756.091,4602.07L235.051,4607.73C160.676,4574.27 175.695,4472.14 212.398,4394.25C-56.962,3807.62 -38.899,3280.28 170.418,2808.89C174.63,2454.17 268.876,2116.49 383.894,1792.79C182.869,1357.54 195.996,963.811 429.321,612.771C369.291,293.471 386.965,98.833 434.319,55.201C476.754,16.101 476.459,41.138 635.089,151.899C711.745,205.422 850.609,274.781 948.173,372.582C1068.55,343.974 1195.46,331.696 1333.42,347.055Z" style="fill:none;stroke:rgb(191,191,191);stroke-width:5.6px;"/>
                <path d="M809.082,376.268C667.703,239 568.586,179.794 516.56,207.57C464.534,235.346 459.6,350.1 506.588,560.757C652.403,575.024 747.488,503.833 809.081,376.269L809.082,376.268Z" style="fill:none;stroke:rgb(191,191,191);stroke-width:5.6px;"/>
            </g>
            <path d="M1015.87,605.633C1062.81,669.899 1072.53,734.165 1044.13,798.431C989.285,758.931 973.201,698.311 1015.87,605.633ZM1676.37,605.633C1629.42,669.899 1619.71,734.165 1648.12,798.431C1702.95,758.931 1719.04,698.311 1676.37,605.633Z" style="fill:none;stroke:rgb(191,191,191);stroke-width:4px;"/>
            <path d="M1282.35,965.703C1326.8,946.424 1377.2,945.857 1422.08,964.131C1547.93,1015.68 1647.83,1115.88 1732.2,1240.14C1735.52,1245.04 1738.36,1250.25 1740.68,1255.69C1753.01,1284.85 1763.68,1316.53 1772.55,1350.9C1787.43,1408.8 1762.89,1469.65 1712,1501.02C1641.52,1544.67 1562.14,1583.88 1469.62,1616.52C1428.19,1631.1 1383.76,1635.01 1340.41,1627.9C1196.94,1604.21 1081.36,1555.16 995.27,1479.31C994.64,1478.75 994.083,1478.11 993.617,1477.41C963.945,1432.65 958.119,1381.08 976.142,1322.69L976.162,1322.63C1034.65,1143.74 1139.19,1028.17 1282.35,965.701L1282.35,965.703Z" style="fill:none;stroke:rgb(191,191,191);stroke-width:5.6px;"/>
            <path d="M1080.88,457.708C1129.2,510.564 1137.14,588.891 1182.57,625.912C1240.5,673.12 1250.89,758.572 1262.05,830.008C1207.46,782.308 1183.09,713.468 1131.94,669.418C1084.45,628.52 1081.27,536.928 1080.88,457.708L1080.88,457.708Z" style="fill:none;stroke:rgb(191,191,191);stroke-width:4px;"/>
            <path d="M2584.43,3048.33C2475.67,3470.5 2340.97,3885.26 2183.74,4293.57C2110.24,4725.37 1671.8,4776.28 1544.89,4342.91C1514.49,3986.81 1568.79,3693.49 1522.77,3546.11C1454.43,3327.23 1283.8,3377.01 1248.69,3590.3C1223.89,3740.89 1298.59,4012.1 1274.79,4353.3C1205.04,4795.42 575.172,4763.33 669.694,4272.79C442.791,3844.67 263.794,3398.11 126.93,2935.36" style="fill:none;stroke:rgb(191,191,191);stroke-width:5.6px;"/>
            <path d="M1601.1,457.708C1552.78,510.564 1544.84,588.891 1499.4,625.912C1441.48,673.12 1431.08,758.572 1419.93,830.008C1474.51,782.308 1498.88,713.468 1550.03,669.408C1597.51,628.51 1600.71,536.908 1601.09,457.708L1601.1,457.708ZM1335.18,396.212C1386.81,559.725 1394.91,702.506 1353.46,821.698C1290.94,700.77 1278.04,561.462 1335.18,396.212Z" style="fill:none;stroke:rgb(191,191,191);stroke-width:4px;"/>
            <path d="M2041.65,964.423C2139.52,991.225 2244.74,1016.31 2276.68,1093.64C2310.63,1175.86 2367.56,1206.89 2394.84,1278.65C2319.53,1235.92 2223.8,1194.7 2185.35,1124.15C2151.79,1062.57 2086.23,1022.99 2041.65,964.432L2041.65,964.423ZM351.036,1328C513.298,1509.86 664.016,1533.95 805.503,1431.88C639.866,1429.09 488.973,1393.12 351.036,1328ZM670.996,888.343C585.634,919.135 497.62,940.031 462.804,999.917C418.774,1075.65 362.85,1120.98 321.718,1169.44C405.895,1150.08 510.383,1128.86 544.398,1044.05C563.214,997.129 630.758,949.003 670.998,888.343L670.996,888.343Z" style="fill:none;stroke:rgb(191,191,191);stroke-width:0.67px;"/>
            <path d="M1235.85,3766.4C830.847,3740.4 758.71,3782.01 1254.03,3942.99M2303.13,3959.4C1692.62,3939.23 1698.96,3995.64 2244.96,4120.91M1537.66,3590.46C1961.28,3548.51 2140.76,3558.23 1545.48,3724.22M238.616,3288.56C921.88,3435.03 1190.54,3542.1 342.494,3543.06M2305.8,1894C1706.48,2171.82 1067.34,2162.41 371.07,1865.43C676.54,2184.38 1026.7,2233.2 1399.35,2194.84C1406.02,2194.16 1392.67,2194.67 1399.35,2194.84C1728.65,2203.28 2038.78,2171.76 2305.8,1894L2305.8,1894L2305.8,1894ZM2391.5,2216C1733.68,2625.42 924.14,2615.1 280.18,2200.42C585.65,2519.37 984.574,2753.18 1339.63,2685.64C1401.39,2673.89 1510.29,2667.58 1603.73,2675.82C1957.51,2707.03 2137.79,2509.28 2391.51,2216L2391.5,2216L2391.5,2216Z" style="fill:none;stroke:rgb(191,191,191);stroke-width:4px;"/>
            <path d="M1457.87,1065.47C1288.82,1118.18 1374.39,1293.03 1526.62,1439.64C1571.82,1483.18 1625.59,1487.41 1691.46,1435.71M1249.33,1059.05C1418.38,1111.76 1341.93,1294.51 1189.7,1441.12C1144.5,1484.66 1090.73,1488.9 1024.86,1437.19" style="fill:none;stroke:rgb(191,191,191);stroke-width:5.6px;"/>
        </g>
        <g transform="matrix(1,0,0,1,-8.9919,-35.0914)">
            <path d="M1258.8,1048.8C1258.64,1048.68 1258.57,1048.49 1258.6,1048.29C1258.63,1048.1 1258.77,1047.94 1258.95,1047.88C1324.85,1026.53 1389.76,1025.12 1453.7,1043.41C1453.93,1043.48 1454.1,1043.66 1454.16,1043.89C1454.21,1044.13 1454.13,1044.37 1453.95,1044.53L1362,1126.26C1361.63,1126.6 1361.06,1126.62 1360.66,1126.31L1258.8,1048.8Z" style="fill:rgb(242,242,242);stroke:rgb(191,191,191);stroke-width:5.6px;"/>
        </g>
        <g transform="matrix(1,0,0,1,-8.9919,-35.0914)">
            <path d="M2361.08,1408.5C2225.17,1459.71 2052.91,1478.48 1917,1460.44C2077.48,1580.52 2249.08,1558.51 2361.08,1408.5Z" style="fill:none;stroke:rgb(191,191,191);stroke-width:0.67px;"/>
            <path d="M926.374,839.723C1022.9,850.52 1094.26,921.893 1085.64,999.023C1077.01,1076.15 991.643,1129.99 895.117,1119.19C798.591,1108.39 727.217,1037.02 735.854,959.889C744.491,882.759 829.848,828.927 926.374,839.723ZM1833.32,853.673C1736.82,842.649 1651.33,896.293 1642.52,973.389C1633.71,1050.49 1704.9,1122.03 1801.4,1133.05C1897.9,1144.08 1983.4,1090.43 1992.21,1013.34C2001.02,936.241 1929.82,864.697 1833.32,853.673Z" style="fill:none;stroke:rgb(191,191,191);stroke-width:5.6px;"/>
        </g>
        <g transform="matrix(1,0,0,1,-8.9919,-35.0914)">
            <ellipse cx="914.972" cy="974.653" rx="84.527" ry="87.851" style="fill:rgb(242,242,242);stroke:rgb(191,191,191);stroke-width:5.6px;"/>
            <ellipse cx="1805.36" cy="974.653" rx="84.527" ry="87.851" style="fill:rgb(242,242,242);stroke:rgb(191,191,191);stroke-width:5.6px;"/>
        </g>
        <g transform="matrix(1,0,0,1,-8.9919,-35.0914)">
            <path d="M2516.15,3306.73C1735.95,3355.22 1708.75,3224.46 2555.1,2966.53" style="fill:none;stroke:rgb(191,191,191);stroke-width:4px;"/>
        </g>
        <g transform="matrix(1,0,0,1,-8.9919,-35.0914)">
            <path d="M1877,376.268C2018.38,239 2117.5,179.794 2169.52,207.568C2221.54,235.342 2226.48,350.098 2179.49,560.755C2033.68,575.022 1938.59,503.831 1877,376.267L1877,376.268Z" style="fill-opacity:0;stroke:rgb(191,191,191);stroke-width:5.6px;"/>
        </g>
        <g transform="matrix(1,0,0,1,-8.9919,-35.0914)">
            <path d="M130.045,2930.14C676.271,2882.54 700.603,2945.55 187.271,3112.62" style="fill:none;stroke:rgb(191,191,191);stroke-width:4px;"/>
        </g>
    </g>
</svg>
