<?xml version="1.0" encoding="UTF-8" standalone="no"?><!DOCTYPE svg PUBLIC "-//W3C//DTD SVG 1.1//EN" "http://www.w3.org/Graphics/SVG/1.1/DTD/svg11.dtd"><svg width="100%" height="100%" viewBox="0 0 1550 1550" version="1.1" xmlns="http://www.w3.org/2000/svg" xmlns:xlink="http://www.w3.org/1999/xlink" xml:space="preserve" xmlns:serif="http://www.serif.com/" style="fill-rule:evenodd;clip-rule:evenodd;stroke-linejoin:round;stroke-miterlimit:2;"><path d="M775,0c-428.125,0 -775,346.875 -775,775c0,428.125 346.875,775 775,775c428.125,0 775,-346.875 775,-775c0,-428.125 -346.875,-775 -775,-775Zm289.063,978.125l-62.501,78.125c-9.485,11.852 -23.866,18.764 -39.046,18.769c-11.35,0 -22.375,-3.866 -31.235,-10.957l-209.375,-155.375c-29.607,-23.716 -46.87,-59.659 -46.875,-97.593l0,-486.094c0,-27.428 22.572,-50 50,-50l100,0c27.428,0 50,22.572 50,50l0,450l181.25,132.813c11.85,9.485 18.761,23.865 18.766,39.043c-0.009,11.37 -3.896,22.404 -11.016,31.269l0.032,0Z" style="fill:url(#_Radial1);fill-rule:nonzero;"/><defs><radialGradient id="_Radial1" cx="0" cy="0" r="1" gradientUnits="userSpaceOnUse" gradientTransform="matrix(1550,0,0,1550,0,775)"><stop offset="0" style="stop-color:#2092a8;stop-opacity:1"/><stop offset="0.58" style="stop-color:#2e968f;stop-opacity:1"/><stop offset="1" style="stop-color:#359884;stop-opacity:1"/></radialGradient></defs></svg>