<svg xmlns="http://www.w3.org/2000/svg" width="100%" height="100%" viewBox="0 0 512 512" fill-rule="evenodd" stroke-linejoin="round" stroke-miterlimit="2" xmlns:v="https://vecta.io/nano"><path d="M256 8C119 8 8 119 8 256s111 248 248 248 248-111 248-248S393 8 256 8zm92.5 313l-20 25a16.01 16.01 0 0 1-12.495 6.006c-3.632 0-7.16-1.237-9.995-3.506l-67-49.72a40.02 40.02 0 0 1-15-31.23V112c0-8.777 7.223-16 16-16h32c8.777 0 16 7.223 16 16v144l58 42.5a16.01 16.01 0 0 1 6.005 12.494A16 16 0 0 1 348.49 321z" fill="#45a86e" fill-rule="nonzero"/></svg>