<?xml version="1.0" encoding="UTF-8" standalone="no"?><!DOCTYPE svg PUBLIC "-//W3C//DTD SVG 1.1//EN" "http://www.w3.org/Graphics/SVG/1.1/DTD/svg11.dtd"><svg width="100%" height="100%" viewBox="0 0 26913 26913" version="1.1" xmlns="http://www.w3.org/2000/svg" xmlns:xlink="http://www.w3.org/1999/xlink" xml:space="preserve" xmlns:serif="http://www.serif.com/" style="fill-rule:evenodd;clip-rule:evenodd;stroke-linejoin:round;stroke-miterlimit:2;"><path d="M13454.9,0c-7432.71,0 -13454.9,6022.13 -13454.9,13454.9c0,7432.71 6022.13,13454.9 13454.9,13454.9c7432.71,0 13454.9,-6022.13 13454.9,-13454.9c0,-7432.75 -6022.13,-13454.9 -13454.9,-13454.9Zm5018.46,16981.3l-1085.09,1356.34c-164.671,205.762 -414.342,325.762 -677.883,325.85c-197.046,0 -388.455,-67.117 -542.271,-190.225l-3634.98,-2697.48c-514.012,-411.738 -813.716,-1035.75 -813.804,-1694.33l0,-8439.13c0,-476.184 391.875,-868.059 868.059,-868.059l1736.11,0c476.183,0 868.058,391.875 868.058,868.059l0,7812.5l3146.7,2305.78c205.729,164.671 325.713,414.325 325.8,677.829c-0.158,197.396 -67.641,388.958 -191.25,542.867l0.554,0l0,-0.005Z" style="fill:#fdfbfb;fill-rule:nonzero;"/></svg>