<?xml version="1.0" encoding="UTF-8" standalone="no"?><!DOCTYPE svg PUBLIC "-//W3C//DTD SVG 1.1//EN" "http://www.w3.org/Graphics/SVG/1.1/DTD/svg11.dtd"><svg width="100%" height="100%" viewBox="0 0 1867 2134" version="1.1" xmlns="http://www.w3.org/2000/svg" xmlns:xlink="http://www.w3.org/1999/xlink" xml:space="preserve" xmlns:serif="http://www.serif.com/" style="fill-rule:evenodd;clip-rule:evenodd;stroke-linejoin:round;stroke-miterlimit:2;"><path d="M1816.67,800l-516.667,0c-55.417,0 -100,-44.583 -100,-100l0,-516.667c0,-27.5 22.5,-50 50,-50l166.667,0c27.5,0 50,22.5 50,50l0,350l350,0c27.5,0 50,22.5 50,50l0,166.667c0,27.5 -22.5,50 -50,50Zm-1150,-100l0,-516.667c0,-27.5 -22.5,-50 -50,-50l-166.667,0c-27.5,0 -50,22.5 -50,50l0,350l-350,0c-27.5,0 -50,22.5 -50,50l0,166.667c0,27.5 22.5,50 50,50l516.667,0c55.416,0 100,-44.583 100,-100Zm0,1250l0,-516.667c0,-55.416 -44.584,-100 -100,-100l-516.667,0c-27.5,0 -50,22.5 -50,50l0,166.667c0,27.5 22.5,50 50,50l350,0l0,350c0,27.5 22.5,50 50,50l166.667,0c27.5,0 50,-22.5 50,-50Zm800,0l0,-350l350,0c27.5,0 50,-22.5 50,-50l0,-166.667c0,-27.5 -22.5,-50 -50,-50l-516.667,0c-55.417,0 -100,44.584 -100,100l0,516.667c0,27.5 22.5,50 50,50l166.667,0c27.5,0 50,-22.5 50,-50Z" style="fill:#45a86e;fill-rule:nonzero;"/></svg>