<?xml version="1.0" encoding="UTF-8" standalone="no"?><!DOCTYPE svg PUBLIC "-//W3C//DTD SVG 1.1//EN" "http://www.w3.org/Graphics/SVG/1.1/DTD/svg11.dtd"><svg width="100%" height="100%" viewBox="0 0 512 512" version="1.1" xmlns="http://www.w3.org/2000/svg" xmlns:xlink="http://www.w3.org/1999/xlink" xml:space="preserve" xmlns:serif="http://www.serif.com/" style="fill-rule:evenodd;clip-rule:evenodd;stroke-linejoin:round;stroke-miterlimit:2;"><path d="M317.785,256.388l190.195,-190.206c5.36,-5.36 5.36,-14.045 0,-19.394c-37.486,-37.486 -98.275,-37.486 -135.761,0l-132.012,132.023l-28.412,-28.411c4.926,-12.48 7.635,-26.069 7.635,-40.298c0,-60.594 -49.12,-109.714 -109.715,-109.714c-60.595,0 -109.715,49.12 -109.715,109.714c0,60.595 49.12,109.715 109.715,109.715c5.188,0 10.274,-0.366 15.269,-1.063l37.634,37.634l-37.634,37.634c-4.995,-0.697 -10.092,-1.062 -15.269,-1.062c-60.595,0 -109.715,49.12 -109.715,109.714c0,60.594 49.12,109.714 109.715,109.714c60.595,0 109.715,-49.12 109.715,-109.714c0,-14.229 -2.709,-27.817 -7.635,-40.297l28.412,-28.412l132.012,132.023c37.486,37.486 98.275,37.486 135.761,0c5.36,-5.348 5.36,-14.034 0,-19.394l-190.195,-190.206Zm-208.07,-109.714c-20.16,0 -36.572,-16.412 -36.572,-36.572c0,-20.16 16.412,-36.571 36.572,-36.571c20.16,0 36.572,16.411 36.572,36.571c0,20.16 -16.412,36.572 -36.572,36.572Zm0,292.571c-20.16,0 -36.572,-16.411 -36.572,-36.571c0,-20.16 16.412,-36.572 36.572,-36.572c20.16,0 36.572,16.412 36.572,36.572c0,20.16 -16.412,36.571 -36.572,36.571Z" style="fill:#e6e6e6;fill-rule:nonzero;"/></svg>