<?xml version="1.0" encoding="UTF-8" standalone="no"?><!DOCTYPE svg PUBLIC "-//W3C//DTD SVG 1.1//EN" "http://www.w3.org/Graphics/SVG/1.1/DTD/svg11.dtd"><svg width="100%" height="100%" viewBox="0 0 1867 2134" version="1.1" xmlns="http://www.w3.org/2000/svg" xmlns:xlink="http://www.w3.org/1999/xlink" xml:space="preserve" xmlns:serif="http://www.serif.com/" style="fill-rule:evenodd;clip-rule:evenodd;stroke-linejoin:round;stroke-miterlimit:2;"><path d="M1158.58,1066.67l693.417,-693.459c19.542,-19.541 19.542,-51.208 0,-70.708c-136.667,-136.667 -358.292,-136.667 -494.958,0l-481.292,481.333l-103.583,-103.583c17.958,-45.5 27.833,-95.042 27.833,-146.917c0,-220.916 -179.083,-400 -400,-400c-220.917,0 -400,179.084 -400,400c0,220.917 179.083,400 400,400c18.917,0 37.458,-1.333 55.667,-3.875l137.208,137.209l-137.208,137.208c-18.209,-2.542 -36.792,-3.875 -55.667,-3.875c-220.917,0 -400,179.083 -400,400c0,220.917 179.083,400 400,400c220.917,0 400,-179.083 400,-400c0,-51.875 -9.875,-101.417 -27.833,-146.917l103.583,-103.583l481.292,481.333c136.666,136.667 358.291,136.667 494.958,0c19.542,-19.5 19.542,-51.166 0,-70.708l-693.417,-693.458Zm-758.583,-400c-73.5,0 -133.333,-59.834 -133.333,-133.334c0,-73.5 59.833,-133.333 133.333,-133.333c73.5,0 133.333,59.833 133.333,133.333c0,73.5 -59.833,133.334 -133.333,133.334Zm0,1066.67c-73.5,0 -133.333,-59.833 -133.333,-133.333c0,-73.5 59.833,-133.333 133.333,-133.333c73.5,0 133.333,59.833 133.333,133.333c0,73.5 -59.833,133.333 -133.333,133.333Z" style="fill:#45a86e;fill-rule:nonzero;"/></svg>