<?xml version="1.0" encoding="UTF-8" standalone="no"?>
<!DOCTYPE svg PUBLIC "-//W3C//DTD SVG 1.1//EN" "http://www.w3.org/Graphics/SVG/1.1/DTD/svg11.dtd">
<svg width="100%" height="100%" viewBox="0 0 512 512" version="1.1" xmlns="http://www.w3.org/2000/svg" xmlns:xlink="http://www.w3.org/1999/xlink" xml:space="preserve" xmlns:serif="http://www.serif.com/" style="fill-rule:evenodd;clip-rule:evenodd;stroke-linejoin:round;stroke-miterlimit:2;">
    <path d="M370.947,34.84C365.873,37.366 361.255,42.885 356.909,46.885C345.804,57.105 335.211,68.036 324.818,79.32C291.298,115.714 260.879,161.133 244.12,212.536C235.04,240.391 230.694,269.417 225.885,298.659C220.599,330.808 219.633,369.887 229.184,400.93C234.527,418.297 246.929,433.098 263.029,425.823C271.565,421.967 277.007,412.893 278.436,402.007C280.4,387.041 279.524,371.7 279.885,356.563C279.983,352.463 280.179,347.914 280.485,343.874C281.326,332.783 281.515,321.594 282.582,310.501C287.557,258.789 294.547,205.349 314.603,158.709C325.885,132.469 339.794,107.785 354.649,84.427C362.026,72.828 370.729,61.986 377.599,49.978C381.411,43.314 379.383,30.641 370.947,34.84Z" style="fill:rgb(230,230,230);fill-rule:nonzero;"/>
    <rect x="14.196" y="361.599" width="53.289" height="59.611" style="fill:rgb(230,230,230);"/>
    <path d="M512,424.795L511.479,483.756C511.479,499.624 498.615,512.488 482.746,512.488L29.882,512.488C21.698,512.488 13.85,509.238 8.064,503.451C2.277,497.665 0,490.108 0,481.925L0,360.277C0.752,360.277 -0.746,361.598 0,361.599C-0.097,352.894 0.611,340.516 7.78,334.984C11.796,331.886 16.172,327.915 20.827,327.915L56.655,327.915L193.163,328.389C187.99,335.533 188.689,347.936 192.107,373.181C192.118,373.265 192.125,373.348 192.127,373.431L192.282,373.39C197.267,399.628 203.374,428.767 224.853,445.246C248.97,463.75 281.99,456.396 298.58,429.972C307.861,415.189 309.538,399.041 309.538,381.642L310.063,381.716C308.596,378.598 310.216,372.167 310.266,368.925C310.471,355.594 311.281,340.762 313.519,327.667L491.575,327.667C494.964,327.667 498.594,328.093 501.869,329.522C514.502,332.935 511.559,344.934 512,358.485C512.931,387.114 512,424.795 512,424.795Z" style="fill:rgb(230,230,230);fill-rule:nonzero;"/>
    <ellipse cx="139.33" cy="380.728" rx="8.048" ry="8.285" style="fill:rgb(69,168,110);"/>
    <ellipse cx="53.664" cy="406.401" rx="14.994" ry="15.435" style="fill:rgb(69,168,110);"/>
    <ellipse cx="144.668" cy="453.464" rx="20.442" ry="21.043" style="fill:rgb(69,168,110);"/>
    <ellipse cx="374.04" cy="466.222" rx="8.048" ry="8.285" style="fill:rgb(69,168,110);"/>
    <ellipse cx="459.707" cy="440.549" rx="14.994" ry="15.435" style="fill:rgb(69,168,110);"/>
    <ellipse cx="368.703" cy="393.486" rx="20.442" ry="21.043" style="fill:rgb(69,168,110);"/>
</svg>
