<?xml version="1.0" encoding="UTF-8" standalone="no"?><!DOCTYPE svg PUBLIC "-//W3C//DTD SVG 1.1//EN" "http://www.w3.org/Graphics/SVG/1.1/DTD/svg11.dtd"><svg width="100%" height="100%" viewBox="0 0 512 512" version="1.1" xmlns="http://www.w3.org/2000/svg" xmlns:xlink="http://www.w3.org/1999/xlink" xml:space="preserve" xmlns:serif="http://www.serif.com/" style="fill-rule:evenodd;clip-rule:evenodd;stroke-linejoin:round;stroke-miterlimit:2;"><path d="M447.1,112.564c-34.2,0.5 -62.3,28.4 -63,62.6c-0.5,24.3 12.5,45.6 32,56.8l0,112.6c0,57.3 -50.2,104 -112,104c-60,0 -109.2,-44.1 -111.9,-99.2c72.8,-15 127.8,-79.6 127.8,-156.8l0,-155.4c0,-11.4 -8.1,-21.3 -19.3,-23.5l-62.9,-12.6c-13,-2.6 -25.6,5.8 -28.2,18.8l-3.2,15.7c-2.6,13 5.8,25.6 18.8,28.2l30.7,6.1l0,121.4c0,52.9 -42.2,96.7 -95.1,97.2c-53.4,0.5 -96.9,-42.7 -96.9,-96l0,-122.5l30.7,-6.1c13,-2.6 21.4,-15.2 18.8,-28.2l-3.1,-15.7c-2.6,-13 -15.2,-21.4 -28.2,-18.8l-62.8,12.4c-11.2,2.3 -19.3,12.1 -19.3,23.6l0,155.4c0,77.3 55.1,142 128.1,156.8c2.6,90.4 80.5,163.2 175.9,163.2c97,0 176,-75.4 176,-168l0,-112.6c19.1,-11.1 32,-31.7 32,-55.4c0,-35.7 -29.2,-64.5 -64.9,-64Zm0.9,80c-8.8,0 -16,-7.2 -16,-16c0,-8.8 7.2,-16 16,-16c8.8,0 16,7.2 16,16c0,8.8 -7.2,16 -16,16Z" style="fill:#e6e6e6;fill-rule:nonzero;"/></svg>