<?xml version="1.0" encoding="UTF-8" standalone="no"?>
<!DOCTYPE svg PUBLIC "-//W3C//DTD SVG 1.1//EN" "http://www.w3.org/Graphics/SVG/1.1/DTD/svg11.dtd">
<svg width="100%" height="100%" viewBox="0 0 2876 6004" version="1.1" xmlns="http://www.w3.org/2000/svg" xmlns:xlink="http://www.w3.org/1999/xlink" xml:space="preserve" xmlns:serif="http://www.serif.com/" style="fill-rule:evenodd;clip-rule:evenodd;stroke-linecap:round;stroke-linejoin:round;stroke-miterlimit:1.5;">
    <g id="dog1" transform="matrix(1.10012,0,0,1.10012,-6841.8,-285.78)">
        <g>
            <path d="M7494.7,1583.13C7432.37,1956.33 7844.5,1895.67 7773.75,1562.22" style="fill:none;stroke:rgb(192,192,192);stroke-width:5.56px;"/>
            <path d="M7648.46,1311.3C7653.24,1399.35 7660.55,1478.66 7627.33,1506.7C7500.73,1613.55 7293.17,1667.74 7391.26,1413.65M7627.33,1506.7C7865.11,1622.33 7966.19,1587.6 7924.03,1395.29" style="fill:none;stroke:rgb(192,192,192);stroke-width:5.56px;"/>
        </g>
        <g>
            <ellipse cx="7645.83" cy="1227.31" rx="152.219" ry="104.978" style="fill:rgb(242,242,242);stroke:rgb(192,192,192);stroke-width:5.56px;"/>
            <ellipse cx="7328.27" cy="849.387" rx="70.86" ry="76.109" style="fill:rgb(242,242,242);stroke:rgb(192,192,192);stroke-width:5.56px;"/>
            <ellipse cx="8010.63" cy="838.889" rx="70.86" ry="76.109" style="fill:rgb(242,242,242);stroke:rgb(192,192,192);stroke-width:5.56px;"/>
        </g>
        <g>
            <path d="M7085.3,458.902C7157.6,334.102 7394.58,259.992 7705.54,262.62C7945.43,264.647 8267.59,310.634 8354.68,424.78L8330.08,646.388C8328.68,659.045 8333.22,671.662 8342.37,680.516C8443.61,779.866 8387.23,1077.3 8368.62,1383.18C8263.59,1630.69 8336.89,1827.42 8454.6,2042.29C8717.59,2544.55 8761.52,3105.82 8602.14,3728.93C8387.56,4244.98 8260.23,4735.66 8261.33,5184.33C8261.35,5189.91 8262.51,5195.43 8264.74,5200.53C8461.74,5655.1 8099.42,5822.93 7828.09,5643.19C7816.31,5635.32 7807.4,5623.84 7802.69,5610.48C7750.36,5457.43 7743.36,5230.49 7757.31,5063.81C7797.43,4850.53 7775.67,4635.94 7793.4,4438.81C7859.97,3698.85 7711.77,3587.69 7587.24,3536.09C7172.18,3551.68 7244.67,4358.13 7245.75,5112.95C7247.1,5277.38 7215.42,5429.42 7153.15,5569.99C7145.3,5587.56 7132.03,5602.14 7115.28,5611.61C6836.18,5767.97 6492.48,5692.01 6700.74,5275.28C6709.65,5257.48 6712.86,5237.36 6709.93,5217.67L6494.55,3767.66C6382.92,3134.89 6499.29,2586.38 6799.12,2105.68C6932.67,1900.28 7020.57,1709.62 6934.46,1454.91C6938.98,1144.4 6939.58,818.15 7055.33,729.595C7062.53,724.245 7067.04,716.015 7067.67,707.065L7085.29,458.903L7085.3,458.902Z" style="fill:none;stroke:rgb(192,192,192);stroke-width:5.56px;"/>
            <path d="M7119.73,5609.36L7804.66,5609.54M6494.78,3769C6374.54,4188.42 6182.5,4594.63 6229.08,4968.8C6257.75,5199.1 6373.57,5438.47 6661.87,5598.34M8602.12,3728.94C8628.24,3825.99 8623.92,3946.19 8646.98,4036.28C8841.82,4797.51 8704.36,5511.44 8288.34,5581.04M8354.67,424.78C8656.45,613.977 8876.99,800.11 8821.41,970.95C8685.43,1388.93 8403.41,1866.03 8368.61,1383.18M7085.3,458.902C6641.77,698.852 6513.15,902.256 6586.99,1137.35C6700.75,1499.59 6843.03,1859.1 6934.47,1454.91" style="fill:none;stroke:rgb(192,192,192);stroke-width:5.56px;"/>
        </g>
    </g>
</svg>
