<?xml version="1.0" encoding="UTF-8" standalone="no"?>
<!DOCTYPE svg PUBLIC "-//W3C//DTD SVG 1.1//EN" "http://www.w3.org/Graphics/SVG/1.1/DTD/svg11.dtd">
<svg width="100%" height="100%" viewBox="0 0 3675 4903" version="1.1" xmlns="http://www.w3.org/2000/svg" xmlns:xlink="http://www.w3.org/1999/xlink" xml:space="preserve" xmlns:serif="http://www.serif.com/" style="fill-rule:evenodd;clip-rule:evenodd;stroke-linecap:round;stroke-linejoin:round;stroke-miterlimit:1.5;">
    <g id="dog2" transform="matrix(10.2025,0,0,10.2023,-3.41785,3.01141e-05)">
        <g transform="matrix(1,0,0,1,-219.934,-71.598)">
            <path d="M472.527,249.175C476.829,278.461 469.223,289.375 456.935,293.075C454.337,293.869 451.521,292.622 450.363,290.165C439.803,267.14 422.976,293.598 399.546,289.637C373.162,295.793 355.446,269.041 349.393,291.672C349.075,292.793 348.297,293.727 347.253,294.243C346.208,294.759 344.993,294.808 343.91,294.379C329.932,288.757 322.27,276.253 318.314,259.709M305.14,176.916L294.092,190.244M493.718,176.916L504.768,190.244" style="fill:none;stroke:rgb(191,191,191);stroke-width:0.67px;"/>
        </g>
        <g transform="matrix(1,0,0,1,-219.934,-71.598)">
            <ellipse cx="399.296" cy="204.389" rx="21.408" ry="15.77" style="fill:rgb(242,242,242);stroke:rgb(191,191,191);stroke-width:0.67px;"/>
        </g>
        <g transform="matrix(1,0,0,1,-219.934,-71.598)">
            <path d="M399.296,220.16L399.296,239.963C414.004,246.465 421.338,245.593 417.492,233.54M399.296,239.962C386.796,246.962 377.544,249.042 377.888,236.75M373.048,129.794C383.835,150.249 389.578,170.244 388.1,189.594C354.4,198.964 330.084,216.6 315.347,242.694C325.985,238.744 332.407,238.539 330.317,243.827C329.3,246.401 320.717,254.223 318.117,259.602M425.367,129.804C414.579,150.259 408.837,170.254 410.315,189.604C444.015,198.974 468.331,216.61 483.068,242.704C472.428,238.754 466.008,238.549 468.098,243.837C469.115,246.411 477.698,254.233 480.298,259.612M425.364,177.344C425.829,177.944 426.54,178.304 427.299,178.324C428.058,178.343 428.787,178.017 429.279,177.439C441.299,163.209 454.304,166.116 470.059,193.992C471.819,197.625 476.383,197.05 482.602,193.992C484.445,192.792 486.935,190.222 487.972,186.83C488.552,184.926 487.595,182.407 488.442,180.613C489.502,178.365 492.525,178.945 493.474,176.031C494.3,170.131 492.092,165.077 485.112,161.397C495.569,152.891 489.817,147 470.142,143.355C469.317,143.197 468.645,142.6 468.392,141.799C468.139,140.998 468.345,140.123 468.93,139.519C476.986,131.269 469.39,128.749 439.954,134.219C442.88,128.466 445.74,126.533 445.394,125.296C444.848,123.348 441.926,122.629 438.444,122.801C435.174,122.963 431.411,123.895 428.662,125.819C425.79,127.827 424.854,132.895 424.482,138.819C417.268,152.545 416.276,165.539 425.362,177.346L425.364,177.344ZM372.819,177.344C372.354,177.944 371.643,178.304 370.883,178.324C370.124,178.343 369.395,178.017 368.903,177.439C356.883,163.209 343.879,166.116 328.125,193.992C326.365,197.625 321.801,197.05 315.581,193.992C313.739,192.792 311.249,190.222 310.213,186.83C309.631,184.926 310.589,182.407 309.743,180.613C308.683,178.365 305.66,178.945 304.71,176.031C303.885,170.131 306.093,165.077 313.073,161.397C302.615,152.891 308.368,147 328.043,143.355C328.868,143.197 329.54,142.6 329.793,141.799C330.046,140.998 329.839,140.123 329.253,139.519C321.198,131.269 328.793,128.749 358.229,134.219C355.304,128.466 352.444,126.533 352.789,125.296C353.334,123.348 356.256,122.629 359.737,122.801C363.007,122.963 366.77,123.895 369.52,125.819C372.39,127.827 373.327,132.895 373.7,138.819C380.913,152.545 381.905,165.539 372.82,177.346L372.819,177.344ZM264.184,541.084C246.861,538.284 236.016,524.36 233.678,495.86C216.48,474.88 216.278,454.66 230.478,435.116C229.91,414.94 238.628,401.079 255.9,393.036M534.86,541.084C552.183,538.284 563.993,524.36 566.33,495.86C583.528,474.88 583.73,454.66 569.53,435.116C570.098,414.94 560.284,401.079 543.012,393.036M465.542,541.084L333.24,541.084" style="fill:none;stroke:rgb(191,191,191);stroke-width:0.67px;"/>
        </g>
        <g transform="matrix(1,0,0,1,-219.934,-71.598)">
            <ellipse cx="354.412" cy="183.544" rx="12.451" ry="12.941" style="fill:rgb(242,242,242);stroke:rgb(191,191,191);stroke-width:1px;"/>
        </g>
        <g transform="matrix(1,0,0,1,-219.934,-71.598)">
            <ellipse cx="443.774" cy="183.544" rx="12.451" ry="12.941" style="fill:rgb(242,242,242);stroke:rgb(191,191,191);stroke-width:1px;"/>
        </g>
        <g transform="matrix(1,0,0,1,-219.934,-71.598)">
            <path d="M398.342,456.223C380.969,459.295 364.555,455.645 348.865,446.925C350.767,477.222 349.365,503.745 339.065,520.095C337.653,539.74 330.477,552.735 306.4,546.228C284.867,555.684 270.876,552.888 263.28,539.695C252.337,496.358 249.18,453.022 257.4,409.695C250.66,357.335 256.157,322.391 288.76,288.179C159.197,226.821 257.353,79.061 399.16,71.933L399.99,71.976C541.368,79.652 638.874,226.943 509.57,288.179C542.173,322.391 547.67,357.334 540.93,409.695C549.15,453.032 545.993,496.368 535.05,539.695C527.455,552.887 513.464,555.685 491.93,546.228C467.853,552.735 460.678,539.74 459.265,520.095C448.965,503.743 447.563,477.221 449.465,446.925C433.527,455.783 416.841,459.409 399.16,456.072L398.332,456.222L398.342,456.223Z" style="fill:none;stroke:rgb(191,191,191);stroke-width:0.67px;"/>
        </g>
        <g transform="matrix(1,0,0,1,-219.934,-71.598)">
            <path d="M485.35,95.27C479.388,102.82 476.258,117.612 481.613,128.51C505.25,176.61 510.958,203.615 501.538,219.668C490.736,238.076 478.658,256.001 478.108,276.362C487.633,270.169 495.761,263.044 501.941,254.62C503.121,265.948 498.253,276.603 489.397,286.815C505.264,282.055 516.599,272.762 525.774,261.31C525.394,270.23 519.881,279.15 509.467,288.07M304.87,99.87C310.832,107.42 317.283,127.218 311.95,138.128C293.918,175.028 288.17,202.52 297.043,219.668C306.85,238.625 319.923,256.001 320.473,276.362C310.948,270.169 302.82,263.044 296.64,254.62C295.46,265.948 300.328,276.603 309.184,286.815C293.317,282.055 281.982,272.762 272.807,261.31C273.187,270.23 278.7,279.15 289.114,288.07" style="fill:none;stroke:rgb(191,191,191);stroke-width:0.67px;"/>
        </g>
    </g>
</svg>
