<?xml version="1.0" encoding="UTF-8" standalone="no"?><!DOCTYPE svg PUBLIC "-//W3C//DTD SVG 1.1//EN" "http://www.w3.org/Graphics/SVG/1.1/DTD/svg11.dtd"><svg width="100%" height="100%" viewBox="0 0 1400 1400" version="1.1" xmlns="http://www.w3.org/2000/svg" xmlns:xlink="http://www.w3.org/1999/xlink" xml:space="preserve" xmlns:serif="http://www.serif.com/" style="fill-rule:evenodd;clip-rule:evenodd;stroke-linejoin:round;stroke-miterlimit:2;"><path d="M1250,0l-1100,0c-82.288,0 -150,67.712 -150,150l0,1100c0,82.288 67.712,150 150,150l428.906,0l0,-475.969l-196.875,0l0,-224.031l196.875,0l0,-170.75c0,-194.219 115.625,-301.5 292.719,-301.5c84.813,0 173.5,15.125 173.5,15.125l0,190.625l-97.719,0c-96.281,0 -126.312,59.75 -126.312,121.031l0,145.469l214.937,0l-34.375,224.031l-180.562,0l0,475.969l428.906,0c82.288,0 150,-67.712 150,-150l0,-1100c0,-82.288 -67.712,-150 -150,-150Z" style="fill:url(#_Radial1);fill-rule:nonzero;"/><defs><radialGradient id="_Radial1" cx="0" cy="0" r="1" gradientUnits="userSpaceOnUse" gradientTransform="matrix(1400,0,0,1400,0,700)"><stop offset="0" style="stop-color:#1d92ac;stop-opacity:1"/><stop offset="0.51" style="stop-color:#2493a1;stop-opacity:1"/><stop offset="1" style="stop-color:#38987f;stop-opacity:1"/></radialGradient></defs></svg>