<?xml version="1.0" encoding="UTF-8" standalone="no"?><!DOCTYPE svg PUBLIC "-//W3C//DTD SVG 1.1//EN" "http://www.w3.org/Graphics/SVG/1.1/DTD/svg11.dtd"><svg width="100%" height="100%" viewBox="0 0 1550 1541" version="1.1" xmlns="http://www.w3.org/2000/svg" xmlns:xlink="http://www.w3.org/1999/xlink" xml:space="preserve" xmlns:serif="http://www.serif.com/" style="fill-rule:evenodd;clip-rule:evenodd;stroke-linejoin:round;stroke-miterlimit:2;"><path d="M1550,775c0,-428.125 -346.875,-775 -775,-775c-428.125,0 -775,346.875 -775,775c0,386.813 283.406,707.438 653.906,765.625l0,-541.594l-196.875,0l0,-224.031l196.875,0l0,-170.75c0,-194.219 115.625,-301.5 292.719,-301.5c84.813,0 173.5,15.125 173.5,15.125l0,190.625l-97.75,0c-96.25,0 -126.281,59.75 -126.281,121.031l0,145.469l214.937,0l-34.375,224.031l-180.562,0l0,541.594c370.5,-58.188 653.906,-378.813 653.906,-765.625Z" style="fill:url(#_Linear1);fill-rule:nonzero;"/><defs><linearGradient id="_Linear1" x1="0" y1="0" x2="1" y2="0" gradientUnits="userSpaceOnUse" gradientTransform="matrix(1550,0,0,1540.63,0,770.313)"><stop offset="0" style="stop-color:#1f92a9;stop-opacity:1"/><stop offset="0.44" style="stop-color:#26939e;stop-opacity:1"/><stop offset="1" style="stop-color:#359783;stop-opacity:1"/></linearGradient></defs></svg>