<?xml version="1.0" encoding="UTF-8" standalone="no"?><!DOCTYPE svg PUBLIC "-//W3C//DTD SVG 1.1//EN" "http://www.w3.org/Graphics/SVG/1.1/DTD/svg11.dtd"><svg width="100%" height="100%" viewBox="0 0 550 512" version="1.1" xmlns="http://www.w3.org/2000/svg" xmlns:xlink="http://www.w3.org/1999/xlink" xml:space="preserve" xmlns:serif="http://www.serif.com/" style="fill-rule:evenodd;clip-rule:evenodd;stroke-linecap:round;stroke-miterlimit:8;"><path d="M265.12,32.718c2.482,0.289 4.983,0.335 7.472,0.137c30.672,-2.387 61.348,0.164 92.023,17.483l-2.214,-22.776c0,0 -1.616,-6.8 -3.104,-13.055c-0.598,-2.515 0.006,-5.165 1.636,-7.171c1.63,-2.006 4.1,-3.141 6.683,-3.071c53.202,1.549 85.81,22.906 117.182,47.056c10.055,7.651 16.038,19.496 16.229,32.13c1.102,63.57 1.264,114.687 -22.071,164.683c-1.087,2.295 -3.268,3.879 -5.787,4.203c-2.519,0.324 -5.031,-0.657 -6.662,-2.602c-20.006,-24.308 -40.62,-55.657 -53.611,-83.747c0.95,42.285 -3.612,89.221 -12.4,122.583c27.922,50.842 44.9,101.683 39.34,152.524c-11.811,-16.966 -23.622,-30.545 -35.434,-41.149c7.693,25.842 12.894,51.686 15.186,77.529c-7.734,-13.964 -16.428,-26.232 -26.322,-36.38c3.786,23.003 4.651,46.694 3.037,70.97c-7.889,-16.135 -17.218,-31.138 -28.347,-44.729c-4.409,14.711 -6.49,29.422 -6.58,44.133c-9.214,-8.415 -15.995,-19.218 -18.729,-33.994c-8.55,7.995 -16.174,16.719 -18.223,29.819c-8.369,-10.895 -15.557,-24.571 -21.767,-40.554c-6.784,13.518 -12.217,27.035 -14.679,40.554l-19.126,-25.989l-19.126,25.989c-2.463,-13.519 -7.896,-27.036 -14.68,-40.554c-6.209,15.983 -13.397,29.659 -21.766,40.554c-2.05,-13.1 -9.673,-21.824 -18.223,-29.819c-2.734,14.776 -9.515,25.579 -18.729,33.994c-0.09,-14.711 -2.172,-29.422 -6.581,-44.133c-11.129,13.591 -20.458,28.594 -28.347,44.729c-1.614,-24.276 -0.749,-47.967 3.037,-70.97c-9.893,10.148 -18.587,22.416 -26.322,36.38c2.292,-25.843 7.495,-51.687 15.186,-77.529c-11.811,10.604 -23.622,24.183 -35.434,41.149c-5.559,-50.841 11.419,-101.682 39.341,-152.524c-8.789,-33.362 -13.351,-80.298 -12.401,-122.583c-12.49,27.008 -32.028,57.03 -51.29,80.913c-2.132,2.585 -5.452,3.881 -8.772,3.424c-3.32,-0.456 -6.166,-2.6 -7.521,-5.665c-21.904,-50.628 -18.81,-105.058 -17.354,-169.764c0.198,-9.661 4.788,-18.706 12.469,-24.572c31.942,-24.594 62.65,-44.725 117.407,-46.061c2.663,-0.064 5.205,1.112 6.881,3.181c1.677,2.07 2.298,4.801 1.682,7.392c-1.447,6.166 -3.007,12.726 -3.007,12.726l-2.213,22.776c31.197,-17.646 62.04,-21.024 92.031,-17.62Z" style="fill:#e6e6e6;stroke:#45a86e;stroke-width:6.44px;"/><ellipse cx="269.239" cy="316.282" rx="42.268" ry="31.31" style="fill:#e6e6e6;stroke:#45a86e;stroke-width:6.44px;"/><path d="M281.644,156.177c-9.939,-49.637 10.572,-75.355 56.315,-81.256c-10.085,10.273 -13.117,18.053 -6.327,22.364c12.269,-8.065 32.233,-4.609 46.189,5.217c-10.137,1.484 -20.867,2.99 -20.88,10.437c16.432,1.624 30.603,10.553 38.598,26.092c-10.276,-5.731 -15.246,-3.961 -17.084,2.237c9.395,13.115 14.226,28.382 15.185,45.473c-19.72,-17.055 -48.133,-45.755 -68.298,-27.844c-33.21,29.498 -32.191,3.002 -43.698,-2.72Z" style="fill:#e6e6e6;stroke:#45a86e;stroke-width:6.44px;"/><path d="M342.647,477.475c4.522,-67.938 -13.755,-107.256 -75.04,-99.65" style="fill:#e6e6e6;stroke:#45a86e;stroke-width:6.44px;"/><path d="M400.496,288.571c-39.154,-39.731 -80.531,-45.814 -131.496,-13.979" style="fill:#e6e6e6;stroke:#45a86e;stroke-width:6.44px;"/><path d="M255.324,156.177c9.94,-49.637 -10.572,-75.355 -56.314,-81.256c10.084,10.273 13.116,18.053 6.328,22.364c-12.27,-8.065 -32.234,-4.609 -46.191,5.217c10.138,1.484 20.868,2.99 20.881,10.437c-16.432,1.624 -30.602,10.553 -38.598,26.092c10.277,-5.731 15.246,-3.961 17.085,2.237c-9.396,13.115 -14.228,28.382 -15.187,45.473c19.721,-17.055 48.135,-45.755 68.298,-27.844c33.21,29.498 32.191,3.002 43.698,-2.72Z" style="fill:#e6e6e6;stroke:#45a86e;stroke-width:6.44px;"/><path d="M194.323,477.475c-4.524,-67.938 13.058,-107.191 74.343,-99.585" style="fill:#e6e6e6;stroke:#45a86e;stroke-width:6.44px;"/><path d="M136.473,288.571c39.153,-39.731 81.327,-45.658 132.292,-13.822" style="fill:#e6e6e6;stroke:#45a86e;stroke-width:6.44px;"/><ellipse cx="204.163" cy="161.708" rx="17.016" ry="16.714" style="fill:#45a86e;stroke:#45a86e;stroke-width:4.17px;"/><ellipse cx="333.505" cy="161.708" rx="17.016" ry="16.714" style="fill:#45a86e;stroke:#45a86e;stroke-width:4.17px;"/><path d="M267.592,408.685c-1.6,48.926 -18.388,35.658 -32.273,13.137" style="fill:none;stroke:#45a86e;stroke-width:6.44px;"/><path d="M269.775,347.613c-6.948,82.051 0.274,117.45 31.064,75.259" style="fill:none;stroke:#45a86e;stroke-width:6.44px;"/><path d="M133.832,425.283l60.13,-63.863c1.695,-1.8 1.695,-4.716 0,-6.513c-11.851,-12.586 -31.07,-12.586 -42.921,0l-41.735,44.329l-8.982,-9.54c1.557,-4.191 2.413,-8.752 2.413,-13.53c0,-20.345 -15.529,-36.838 -34.686,-36.838c-19.157,0 -34.686,16.493 -34.686,36.838c0,20.345 15.529,36.837 34.686,36.837c1.64,0 3.249,-0.122 4.827,-0.357l11.899,12.637l-11.899,12.636c-1.578,-0.234 -3.191,-0.357 -4.827,-0.357c-19.157,0 -34.686,16.492 -34.686,36.837c0,20.346 15.529,36.838 34.686,36.838c19.157,0 34.686,-16.492 34.686,-36.838c0,-4.777 -0.856,-9.339 -2.413,-13.529l8.982,-9.54l41.735,44.327c11.851,12.587 31.07,12.587 42.921,0c1.695,-1.795 1.695,-4.712 0,-6.511l-60.13,-63.863Zm-65.781,-36.838c-6.374,0 -11.562,-5.51 -11.562,-12.279c0,-6.769 5.188,-12.28 11.562,-12.28c6.374,0 11.562,5.511 11.562,12.28c0,6.769 -5.188,12.279 -11.562,12.279Zm0,98.234c-6.374,0 -11.562,-5.511 -11.562,-12.28c0,-6.769 5.188,-12.279 11.562,-12.279c6.374,0 11.562,5.51 11.562,12.279c0,6.769 -5.188,12.28 -11.562,12.28Z" style="fill:#bfbfbf;fill-rule:nonzero;"/></svg>