<?xml version="1.0" encoding="UTF-8" standalone="no"?><!DOCTYPE svg PUBLIC "-//W3C//DTD SVG 1.1//EN" "http://www.w3.org/Graphics/SVG/1.1/DTD/svg11.dtd"><svg width="100%" height="100%" viewBox="0 0 550 512" version="1.1" xmlns="http://www.w3.org/2000/svg" xmlns:xlink="http://www.w3.org/1999/xlink" xml:space="preserve" xmlns:serif="http://www.serif.com/" style="fill-rule:evenodd;clip-rule:evenodd;stroke-linecap:round;stroke-miterlimit:8;"><path d="M271.143,33.011c2.413,0.28 4.844,0.325 7.264,0.132c29.818,-2.32 59.639,0.16 89.461,16.997l-2.153,-22.141c0,0 -1.571,-6.612 -3.018,-12.693c-0.581,-2.444 0.007,-5.02 1.591,-6.971c1.585,-1.95 3.985,-3.053 6.497,-2.985c51.72,1.506 83.421,22.268 113.919,45.746c9.774,7.438 15.591,18.953 15.777,31.235c1.071,61.8 1.229,111.493 -21.456,160.097c-1.057,2.231 -3.177,3.771 -5.626,4.086c-2.449,0.315 -4.891,-0.638 -6.477,-2.53c-19.449,-23.63 -39.489,-54.107 -52.118,-81.415c0.924,41.108 -3.511,86.737 -12.055,119.17c27.145,49.426 43.65,98.852 38.245,148.277c-11.483,-16.493 -22.965,-29.695 -34.447,-40.004c7.478,25.124 12.535,50.248 14.763,75.371c-7.519,-13.575 -15.971,-25.501 -25.589,-35.367c3.68,22.363 4.521,45.394 2.952,68.994c-7.669,-15.686 -16.738,-30.271 -27.557,-43.484c-4.286,14.302 -6.31,28.603 -6.398,42.904c-8.957,-8.18 -15.549,-18.682 -18.207,-33.047c-8.312,7.773 -15.723,16.253 -17.716,28.988c-8.136,-10.591 -15.124,-23.886 -21.16,-39.424c-6.595,13.142 -11.877,26.283 -14.271,39.424l-18.593,-25.264l-18.593,25.264c-2.394,-13.141 -7.676,-26.282 -14.271,-39.424c-6.037,15.538 -13.025,28.833 -21.161,39.424c-1.992,-12.735 -9.403,-21.215 -17.715,-28.988c-2.658,14.365 -9.25,24.867 -18.208,33.047c-0.087,-14.301 -2.111,-28.602 -6.397,-42.904c-10.819,13.213 -19.888,27.798 -27.558,43.484c-1.569,-23.6 -0.728,-46.631 2.952,-68.994c-9.617,9.866 -18.069,21.792 -25.589,35.367c2.229,-25.123 7.286,-50.247 14.764,-75.371c-11.483,10.309 -22.965,23.511 -34.448,40.004c-5.404,-49.425 11.101,-98.851 38.245,-148.277c-8.543,-32.433 -12.978,-78.062 -12.055,-119.17c-12.143,26.257 -31.136,55.442 -49.862,78.66c-2.073,2.514 -5.3,3.773 -8.527,3.329c-3.228,-0.443 -5.995,-2.528 -7.312,-5.507c-21.294,-49.218 -18.286,-102.132 -16.871,-165.037c0.193,-9.392 4.655,-18.185 12.122,-23.888c31.052,-23.909 60.905,-43.48 114.138,-44.778c2.589,-0.062 5.06,1.081 6.689,3.093c1.63,2.012 2.234,4.667 1.635,7.186c-1.407,5.994 -2.923,12.372 -2.923,12.372l-2.151,22.141c30.328,-17.155 60.312,-20.439 89.468,-17.129Z" style="fill:#e6e6e6;stroke:#fff;stroke-width:6.26px;"/><ellipse cx="263.582" cy="324.222" rx="43.196" ry="31.998" style="fill:#e6e6e6;stroke:#fff;stroke-width:6.58px;"/><path d="M283.597,160.599c-10.157,-50.726 10.805,-77.01 57.552,-83.041c-10.306,10.499 -13.404,18.451 -6.466,22.856c12.539,-8.243 32.942,-4.711 47.205,5.332c-10.36,1.516 -21.326,3.056 -21.339,10.666c16.792,1.659 31.275,10.785 39.446,26.665c-10.502,-5.856 -15.581,-4.048 -17.46,2.286c9.602,13.404 14.539,29.006 15.519,46.472c-20.153,-17.429 -49.191,-46.759 -69.799,-28.455c-33.939,30.146 -32.897,3.068 -44.658,-2.781Z" style="fill:#e6e6e6;stroke:#fff;stroke-width:6.58px;"/><path d="M338.602,488.957c4.622,-69.43 -14.056,-109.612 -76.688,-101.839" style="fill:#e6e6e6;stroke:#fff;stroke-width:6.58px;"/><path d="M397.722,295.902c-40.013,-40.603 -82.3,-46.819 -134.384,-14.285" style="fill:#e6e6e6;stroke:#fff;stroke-width:6.58px;"/><path d="M187.019,488.957c-4.623,-69.43 13.346,-109.546 75.977,-101.773" style="fill:#e6e6e6;stroke:#fff;stroke-width:6.58px;"/><path d="M127.899,295.902c40.013,-40.603 83.114,-46.66 135.198,-14.125" style="fill:#e6e6e6;stroke:#fff;stroke-width:6.58px;"/><ellipse cx="329.26" cy="166.252" rx="17.39" ry="17.081" style="fill:#fff;stroke:#fff;stroke-width:4.26px;"/><path d="M265.393,160.599c10.157,-50.726 -10.805,-77.01 -57.552,-83.041c10.306,10.499 13.404,18.451 6.466,22.856c-12.539,-8.243 -32.942,-4.711 -47.205,5.332c10.36,1.516 21.326,3.056 21.339,10.666c-16.792,1.659 -31.275,10.785 -39.446,26.665c10.502,-5.856 15.581,-4.048 17.46,2.286c-9.602,13.404 -14.539,29.006 -15.519,46.472c20.153,-17.429 49.191,-46.759 69.799,-28.455c33.939,30.146 32.897,3.068 44.658,-2.781Z" style="fill:#e6e6e6;stroke:#fff;stroke-width:6.58px;"/><ellipse cx="219.73" cy="166.252" rx="17.39" ry="17.081" style="fill:#fff;stroke:#fff;stroke-width:4.26px;"/><path d="M261.898,418.656c-1.635,50 -18.791,36.441 -32.981,13.426" style="fill:none;stroke:#fff;stroke-width:6.58px;"/><path d="M264.13,356.242c-7.101,83.853 0.28,120.031 31.746,76.913" style="fill:none;stroke:#fff;stroke-width:6.58px;"/><path d="M125.2,419.068l61.451,-65.266c1.732,-1.84 1.732,-4.82 0,-6.656c-12.111,-12.862 -31.752,-12.862 -43.864,0l-42.652,45.302l-9.18,-9.748c1.591,-4.283 2.467,-8.945 2.467,-13.828c0,-20.792 -15.871,-37.648 -35.449,-37.648c-19.577,0 -35.448,16.856 -35.448,37.648c0,20.792 15.871,37.647 35.448,37.647c1.677,0 3.32,-0.125 4.934,-0.365l12.16,12.914l-12.16,12.913c-1.614,-0.238 -3.261,-0.364 -4.934,-0.364c-19.577,0 -35.448,16.854 -35.448,37.646c0,20.793 15.871,37.648 35.448,37.648c19.578,0 35.449,-16.855 35.449,-37.648c0,-4.881 -0.876,-9.544 -2.467,-13.826l9.18,-9.749l42.652,45.301c12.112,12.862 31.753,12.862 43.864,0c1.732,-1.835 1.732,-4.816 0,-6.654l-61.451,-65.267Zm-67.227,-37.647c-6.513,0 -11.816,-5.631 -11.816,-12.549c0,-6.918 5.303,-12.55 11.816,-12.55c6.514,0 11.817,5.632 11.817,12.55c0,6.918 -5.303,12.549 -11.817,12.549Zm0,100.392c-6.513,0 -11.816,-5.632 -11.816,-12.55c0,-6.917 5.303,-12.548 11.816,-12.548c6.514,0 11.817,5.631 11.817,12.548c0,6.918 -5.303,12.55 -11.817,12.55Z" style="fill:#bfbfbf;fill-rule:nonzero;"/></svg>