<?xml version="1.0" encoding="UTF-8" standalone="no"?><!DOCTYPE svg PUBLIC "-//W3C//DTD SVG 1.1//EN" "http://www.w3.org/Graphics/SVG/1.1/DTD/svg11.dtd"><svg width="100%" height="100%" viewBox="0 0 576 512" version="1.1" xmlns="http://www.w3.org/2000/svg" xmlns:xlink="http://www.w3.org/1999/xlink" xml:space="preserve" xmlns:serif="http://www.serif.com/" style="fill-rule:evenodd;clip-rule:evenodd;stroke-linejoin:round;stroke-miterlimit:2;"><path d="M280.37,148.26l-184.37,151.85l0,163.89c0,8.777 7.223,16 16,16l112.06,-0.29c8.747,-0.044 15.92,-7.253 15.92,-16l0,-95.71c0,-8.777 7.223,-16 16,-16l64,0c8.777,0 16,7.223 16,16l0,95.64c0,0.017 0,0.033 0,0.05c0,8.777 7.223,16 16,16c0,0 0,0 0,0l112.02,0.31c8.777,0 16,-7.223 16,-16l0,-164l-184.33,-151.74c-4.449,-3.586 -10.851,-3.586 -15.3,0Zm291.23,103.21l-83.6,-68.91l-20.818,-4.492c0,-6.583 -31.44,-11.35 -38.023,-11.35l-2.266,35.075c-6.583,0 56.573,-7.538 56.573,-0.955l4.534,-18.278l-169.53,-139.56c-17.651,-14.525 -43.349,-14.525 -61,0l-253.13,208.47c-2.756,2.278 -4.355,5.673 -4.355,9.25c0,2.792 0.975,5.499 2.755,7.65l25.5,31c2.278,2.77 5.682,4.378 9.268,4.378c2.789,0 5.492,-0.972 7.642,-2.748l235.22,-193.74c4.449,-3.586 10.851,-3.586 15.3,0l235.23,193.74c2.151,1.78 4.858,2.755 7.65,2.755c3.577,0 6.972,-1.599 9.25,-4.355l25.5,-31c1.764,-2.147 2.729,-4.841 2.729,-7.619c0,-3.61 -1.628,-7.034 -4.429,-9.311Z" style="fill:#696969;fill-rule:nonzero;"/></svg>