<?xml version="1.0" encoding="UTF-8" standalone="no"?><!DOCTYPE svg PUBLIC "-//W3C//DTD SVG 1.1//EN" "http://www.w3.org/Graphics/SVG/1.1/DTD/svg11.dtd"><svg width="100%" height="100%" viewBox="0 0 45077 11294" version="1.1" xmlns="http://www.w3.org/2000/svg" xmlns:xlink="http://www.w3.org/1999/xlink" xml:space="preserve" xmlns:serif="http://www.serif.com/" style="fill-rule:evenodd;clip-rule:evenodd;stroke-linejoin:round;stroke-miterlimit:2;"><g><path d="M1507.93,8688.18c-0,124.279 -20.708,231.982 -62.132,335.554c-41.428,99.426 -99.426,186.424 -178.144,260.983c-74.558,70.425 -169.85,128.422 -277.556,169.85c-111.849,41.424 -244.422,62.144 -401.845,62.144l-339.688,0l0,998.382c0,8.28 -4.146,16.574 -8.293,24.854c-4.146,4.147 -8.28,12.427 -16.573,16.574c-12.427,-0 -24.851,4.146 -41.425,8.293c-12.427,4.134 -33.134,4.134 -58.001,4.134c-20.704,-0 -41.424,-0 -57.998,-4.134c-16.561,-4.147 -28.984,-8.293 -37.277,-8.293c-12.427,-4.147 -16.574,-12.427 -20.708,-16.574c-4.146,-8.28 -8.293,-16.574 -8.293,-24.854l0,-2448.32c0,-49.718 12.427,-82.852 41.424,-99.426c24.854,-20.717 49.721,-28.997 74.575,-28.997l530.255,0c53.867,0 103.572,4.147 153.277,8.28c49.72,4.147 107.718,12.424 174,28.998c70.425,16.573 136.703,45.574 207.128,86.998c66.291,41.428 128.423,95.279 173.997,157.424c49.717,62.134 86.998,132.559 115.999,211.277c24.851,78.706 37.278,165.704 37.278,256.849Zm-260.983,24.854c-0,-115.999 -20.717,-211.278 -66.291,-289.996c-45.558,-78.705 -99.426,-136.703 -161.557,-173.984c-66.279,-41.424 -132.57,-66.291 -202.998,-74.571c-66.278,-8.281 -132.556,-16.574 -194.701,-16.574l-372.835,0l0,1139.24l356.262,-0c111.852,-0 211.274,-16.561 285.849,-45.562c78.702,-28.997 140.85,-66.291 194.701,-120.142c53.851,-49.708 91.145,-111.852 120.146,-182.277c28.997,-74.572 41.424,-153.277 41.424,-236.129Z" style="fill:#7b7b7b;fill-rule:nonzero;"/></g><g><path d="M3036.78,8779.31c-0,20.72 -4.134,37.294 -4.134,49.718c-0,16.56 -4.147,24.854 -8.293,37.281c-0,8.28 -4.134,12.427 -8.281,16.573c-8.293,8.277 -12.427,8.277 -20.72,8.277c-12.427,0.004 -24.854,-4.13 -41.424,-8.277c-16.574,-8.293 -37.281,-12.427 -58.001,-20.72c-20.704,-4.134 -45.558,-12.427 -70.425,-16.574c-24.854,-8.28 -53.851,-12.427 -86.998,-12.427c-33.132,0 -70.425,8.294 -107.706,24.867c-33.144,16.561 -70.425,41.428 -107.703,74.559c-37.294,33.147 -78.718,78.718 -120.145,136.719c-45.559,57.985 -91.133,128.423 -140.85,207.128l-0,1238.66c-0,8.28 -4.134,16.573 -8.281,24.854c-4.146,4.146 -8.293,12.427 -16.573,16.573c-12.427,0 -24.854,4.147 -37.278,8.294c-16.574,4.133 -37.294,4.133 -62.148,4.133c-20.704,0 -41.424,0 -57.998,-4.133c-12.427,-4.147 -24.853,-8.294 -37.28,-8.294c-8.294,-4.146 -12.424,-12.427 -16.571,-16.573c-4.146,-8.281 -4.146,-16.574 -4.146,-24.854l-0,-1831.06c-0,-8.28 -0,-12.427 4.146,-20.72c4.147,-8.28 8.277,-12.427 16.571,-16.557c12.427,-4.147 24.853,-8.294 37.28,-12.44l111.853,-0c16.57,4.146 24.851,8.293 33.144,12.44c8.28,4.13 16.573,8.277 16.573,16.557c4.134,8.293 8.281,12.44 8.281,20.72l-0,289.983c49.717,-74.558 99.425,-136.706 144.996,-186.411c45.574,-45.574 86.999,-82.864 128.426,-107.718c37.278,-29.001 78.705,-45.571 115.996,-53.852c37.281,-12.427 78.705,-16.573 120.133,-16.573c16.573,-0 37.277,4.146 57.998,4.146c24.854,0 49.707,4.147 74.571,12.427c29.001,4.147 49.708,12.427 70.428,16.571c20.704,8.28 37.278,16.573 45.558,20.707c8.293,8.293 12.44,12.44 16.574,16.574c-0,4.146 4.146,12.427 4.146,20.72c4.147,4.134 4.147,16.573 4.147,28.997c4.134,12.427 4.134,29.001 4.134,49.708Z" style="fill:#7b7b7b;fill-rule:nonzero;"/></g><g><path d="M4555.99,10452.9c0,16.573 -4.147,33.147 -8.28,45.574c-0,12.427 -4.147,24.854 -12.44,33.144c-4.131,8.28 -12.424,16.573 -20.704,20.707c-8.281,4.147 -16.574,4.147 -24.854,4.147l-1089.53,-0c-24.854,-0 -45.574,-8.281 -62.144,-24.854c-16.561,-16.57 -24.854,-41.424 -24.854,-78.718l-0,-57.985c-0,-16.574 -0,-28.998 4.146,-41.425c0,-12.439 4.147,-24.866 12.427,-37.293c4.147,-12.427 12.427,-29.001 20.72,-45.571c8.278,-12.427 20.705,-33.135 33.131,-53.855l869.959,-1362.94l-853.385,0c-20.72,0 -33.147,-8.293 -45.574,-24.851c-12.424,-16.573 -20.704,-45.574 -20.704,-82.852c-0,-16.573 4.134,-29 4.134,-45.574c4.146,-12.427 8.293,-24.85 16.57,-33.144c4.147,-8.28 12.427,-12.427 16.574,-16.573c8.28,-4.134 20.72,-8.281 29,-8.281l1010.81,0c12.427,0 24.866,4.147 33.147,8.281c12.424,4.146 20.704,8.293 28.997,16.573c8.281,8.294 12.427,20.717 16.574,33.144c4.134,12.427 8.28,29.001 8.28,45.574l0,49.705c0,12.427 0,24.854 -4.146,37.281c-0,16.57 -4.134,28.997 -8.281,41.424c-8.28,16.574 -16.573,33.148 -24.854,49.718c-8.293,16.574 -20.717,33.147 -33.144,58.001l-869.959,1362.94l932.104,0c8.28,0 16.573,4.147 24.854,8.293c8.28,4.131 16.573,8.278 20.704,16.558c8.293,8.293 12.44,20.72 12.44,33.147c4.133,16.574 8.28,29.001 8.28,49.705Z" style="fill:#7b7b7b;fill-rule:nonzero;"/></g><g><path d="M5748.2,10556.5l-252.715,687.682c-8.281,12.44 -20.708,24.867 -41.425,37.294c-24.854,8.28 -57.988,12.427 -103.559,12.427c-24.854,-0 -45.574,-0 -62.144,-4.147c-16.574,0 -29.001,-8.28 -37.281,-12.427c-8.294,-8.28 -12.427,-16.573 -16.574,-29c0,-12.427 4.147,-24.851 8.28,-41.425l260.996,-650.404c-12.427,-4.146 -20.72,-12.427 -29.001,-20.704c-8.277,-8.293 -12.424,-16.573 -16.57,-29l-666.978,-1785.5c-4.13,-16.573 -8.277,-33.134 -8.277,-45.558c0,-12.44 4.147,-20.72 12.424,-24.867c4.147,-8.28 16.574,-12.427 33.147,-16.573l140.85,-0c16.574,4.146 33.134,8.293 41.427,12.44c8.281,4.133 16.574,8.28 20.708,12.427c4.146,8.28 12.44,16.573 12.44,24.85l575.829,1599.08l8.28,0l559.256,-1599.08c8.293,-16.57 16.573,-28.997 28.997,-37.277c12.427,-4.147 24.867,-8.294 45.574,-12.44l70.425,-0c24.854,-0 45.574,-0 62.145,4.146c16.573,0 29,4.147 37.281,12.427c8.293,8.294 12.427,16.574 12.427,28.998c-0,8.293 -4.134,24.854 -12.427,41.427l-683.535,1835.21Z" style="fill:#7b7b7b;fill-rule:nonzero;"/></g><g><path d="M8091.78,10245.8c-0,-0 -0,41.424 -0,41.424c-4.134,12.427 -4.134,24.854 -8.281,33.147c0,12.427 -4.146,20.708 -12.427,24.851c-4.146,8.293 -12.427,20.72 -33.147,37.281c-16.57,20.72 -45.558,41.44 -86.998,70.425c-41.424,24.867 -86.986,49.721 -136.703,70.425c-53.852,20.72 -107.706,37.294 -165.704,49.721c-62.145,12.427 -120.146,16.573 -186.424,16.573c-124.276,0 -236.128,-20.72 -335.554,-62.148c-99.425,-41.424 -178.131,-103.556 -244.422,-186.42c-66.278,-86.986 -115.986,-186.411 -153.276,-306.557c-33.148,-120.129 -49.708,-260.982 -49.708,-418.406c-0,-178.143 20.707,-331.42 62.135,-455.696c41.424,-128.426 103.568,-231.985 173.996,-314.85c74.572,-78.705 161.558,-140.85 260.98,-178.131c99.425,-37.277 207.144,-57.998 318.996,-57.998c62.132,0 120.13,8.294 173.984,16.574c53.864,12.427 107.716,28.997 153.29,45.571c45.558,20.707 86.986,41.427 124.276,66.281c37.281,24.851 62.135,45.571 78.705,62.145c16.574,16.573 29.001,28.997 37.294,37.278c4.134,8.28 8.28,20.72 12.427,29c4.134,12.427 4.134,24.854 8.28,37.278l0,45.574c0,37.278 -4.146,66.278 -16.573,82.852c-12.427,12.427 -24.854,20.72 -37.281,20.72c-20.717,0 -41.424,-12.427 -70.425,-37.294c-28.997,-20.707 -62.144,-49.704 -103.572,-78.705c-45.571,-29 -99.422,-53.851 -157.423,-78.705c-62.132,-24.867 -136.703,-37.294 -219.555,-37.294c-178.131,0 -310.7,66.294 -405.979,202.997c-95.279,132.56 -145,327.274 -145,584.11c0,128.426 12.427,240.275 41.428,335.567c24.854,99.425 62.144,178.131 107.706,240.275c49.717,66.282 107.715,111.852 178.143,144.987c66.278,33.144 144.996,49.717 231.982,49.717c78.718,0 149.143,-16.573 211.275,-41.424c62.147,-24.867 115.999,-53.855 161.573,-82.852c49.705,-33.147 86.998,-62.148 115.996,-86.998c29,-24.854 53.851,-37.294 66.278,-37.294c8.28,-0 16.573,4.147 24.854,8.293c4.146,4.147 8.293,12.427 12.427,20.707c4.146,8.294 8.293,20.717 8.293,37.291c4.134,12.427 4.134,29.001 4.134,49.708Z" style="fill:#7b7b7b;fill-rule:nonzero;"/></g><g><path d="M10060.8,10515.1c0,8.28 -4.146,16.573 -8.28,24.854c-4.147,4.146 -8.293,12.427 -16.574,16.573c-8.28,0 -20.72,4.147 -37.277,8.293c-16.574,4.134 -33.148,4.134 -58.002,4.134c-24.863,0 -45.57,0 -57.997,-4.134c-16.574,-4.146 -29.001,-8.293 -37.294,-8.293c-8.281,-4.146 -16.558,-12.427 -20.704,-16.573c-4.147,-8.281 -4.147,-16.574 -4.147,-24.854l0,-1085.38c0,-111.849 -8.28,-207.128 -29,-277.552c-16.574,-70.429 -41.425,-128.426 -78.706,-182.278c-33.147,-49.72 -78.718,-86.998 -132.572,-115.999c-53.852,-29 -120.13,-41.424 -190.555,-41.424c-95.279,-0 -186.424,33.131 -281.702,99.422c-91.145,66.282 -190.571,161.557 -289.996,289.983l-0,1313.23c-0,8.28 -4.131,16.573 -8.278,24.854c-4.146,4.146 -8.293,12.427 -16.573,16.573c-12.427,0 -24.854,4.147 -37.281,8.293c-16.57,4.134 -37.291,4.134 -62.145,4.134c-20.707,0 -41.427,0 -57.997,-4.134c-12.427,-4.146 -24.854,-8.293 -37.281,-8.293c-8.294,-4.146 -12.427,-12.427 -16.574,-16.573c-4.146,-8.281 -4.146,-16.574 -4.146,-24.854l-0,-2725.89c-0,-8.277 -0,-16.557 4.146,-20.704c4.147,-8.293 8.28,-12.427 16.574,-16.573c12.427,-8.281 24.854,-8.281 37.281,-12.427c16.57,-0 37.29,-4.147 57.997,-4.147c24.854,0 45.571,4.147 62.145,4.147c12.427,4.146 24.854,4.146 37.281,12.427c8.28,4.146 12.427,8.28 16.573,16.573c4.147,4.147 8.278,12.427 8.278,20.704l-0,1143.38c99.425,-111.853 198.851,-190.558 298.276,-244.409c99.425,-49.721 198.851,-78.718 298.273,-78.718c120.133,-0 223.705,20.72 302.423,62.144c82.852,41.428 149.13,95.279 202.981,161.557c49.721,70.425 86.999,149.143 107.719,244.422c20.707,91.145 33.134,198.851 33.134,331.42l0,1106.09Z" style="fill:#7b7b7b;fill-rule:nonzero;"/></g><g><path d="M12349.7,9583.04c0,144.996 -20.707,277.556 -57.985,401.845c-37.293,120.133 -95.291,227.851 -169.85,318.984c-74.571,91.142 -165.716,161.57 -277.569,211.274c-111.852,49.718 -244.409,74.572 -393.552,74.572c-140.853,-0 -265.129,-20.72 -372.835,-66.291c-107.718,-45.562 -198.851,-111.853 -269.275,-194.705c-74.572,-82.851 -128.423,-186.407 -161.57,-306.553c-37.278,-120.133 -53.852,-256.849 -53.852,-405.979c0,-144.999 16.571,-281.703 53.852,-401.848c37.293,-124.276 95.278,-227.848 169.85,-318.981c74.571,-91.145 165.704,-161.57 277.556,-211.274c111.865,-49.721 244.422,-74.575 393.565,-74.575c144.983,0.003 269.263,24.854 376.981,66.294c107.703,45.558 194.701,111.853 265.126,194.705c74.575,82.851 128.426,186.408 161.573,306.553c37.278,120.13 57.985,256.849 57.985,405.979Zm-256.836,20.72c0,-103.572 -8.293,-202.997 -29,-298.276c-20.717,-95.276 -53.851,-178.144 -103.569,-248.568c-45.574,-70.425 -107.706,-128.411 -190.558,-173.985c-78.718,-41.424 -178.143,-62.144 -294.142,-62.144c-111.849,-0 -202.981,20.72 -285.833,57.998c-78.718,41.427 -145,95.279 -194.717,165.704c-49.705,66.294 -86.986,149.146 -111.853,244.424c-24.851,95.276 -37.278,194.702 -37.278,306.554c0,103.572 12.427,202.997 33.144,298.273c20.708,95.279 53.855,178.143 99.426,248.572c45.561,74.558 111.852,128.41 190.558,169.834c78.718,41.44 178.143,66.294 298.273,66.294c107.705,0 202.997,-20.72 281.702,-62.148c78.706,-37.277 144.997,-91.129 194.705,-161.557c49.717,-66.291 86.998,-149.143 111.849,-244.421c24.866,-95.279 37.293,-194.701 37.293,-306.554Z" style="fill:#7b7b7b;fill-rule:nonzero;"/></g><g><path d="M14365.1,10515.1c-0,12.427 -0,16.573 -4.134,24.854c-4.144,8.293 -12.424,12.427 -20.717,16.573c-8.28,4.147 -16.574,8.293 -33.147,8.293c-12.427,4.134 -29.001,4.134 -49.705,4.134c-20.72,0 -37.281,0 -53.854,-4.134c-12.424,0 -24.851,-4.146 -33.144,-8.293c-8.281,-4.146 -16.574,-8.28 -20.708,-16.573c-4.146,-8.281 -8.293,-12.427 -8.293,-24.854l0,-260.98c-95.279,103.556 -194.704,186.408 -298.273,248.556c-107.706,57.998 -219.558,86.995 -343.834,86.995c-128.426,0 -244.422,-24.851 -335.554,-74.571c-95.292,-53.852 -169.851,-120.13 -227.852,-211.275c-57.998,-86.999 -99.422,-190.558 -128.423,-306.557c-24.854,-115.996 -41.427,-244.421 -41.427,-376.978c-0,-153.29 16.573,-294.143 49.708,-418.419c37.29,-124.279 86.998,-231.982 153.277,-318.98c66.291,-86.999 144.996,-153.28 244.421,-202.998c95.279,-45.574 207.132,-70.424 335.554,-70.424c111.853,-0 211.278,24.85 302.423,74.571c95.276,49.705 182.274,120.13 273.407,219.555l-0,-1106.09c-0,-4.147 -0,-12.424 4.146,-20.717c4.147,-8.281 8.281,-12.427 20.72,-16.574c8.281,-4.134 20.708,-8.28 37.278,-8.28c16.574,-4.147 33.147,-4.147 58.001,-4.147c24.851,0 41.424,0 57.998,4.147c16.574,-0 29.001,4.146 37.281,8.28c8.293,4.147 16.57,8.293 20.717,16.574c4.134,8.293 4.134,16.57 4.134,20.717l-0,2717.59Zm-240.275,-1321.51c-103.56,-120.146 -198.851,-215.421 -294.127,-277.569c-91.132,-66.278 -190.558,-99.409 -294.13,-99.409c-91.132,-0 -169.85,20.704 -236.128,66.278c-66.279,45.571 -120.146,103.556 -161.57,178.131c-41.428,70.424 -74.559,153.276 -91.132,244.421c-20.721,91.129 -29.001,186.421 -29.001,281.7c0,99.425 8.28,198.851 24.854,294.129c16.574,95.279 41.424,182.278 82.852,256.849c37.294,74.572 91.145,132.557 153.277,178.131c66.291,45.571 144.996,66.278 244.421,66.278c49.708,0 95.279,-4.134 140.853,-16.561c45.571,-16.573 95.276,-37.293 140.85,-66.291c49.705,-33.134 99.425,-74.558 153.277,-124.279c49.72,-45.571 107.706,-107.703 165.704,-182.277l-0,-799.531Z" style="fill:#7b7b7b;fill-rule:nonzero;"/></g><g><path d="M16525.6,10515.1c-0,8.28 -4.147,16.573 -8.294,24.854c-4.133,4.146 -8.28,12.427 -16.573,16.573c-8.281,0 -20.708,4.147 -37.281,8.293c-16.574,4.134 -33.144,4.134 -57.998,4.134c-24.854,0 -45.574,0 -57.998,-4.134c-16.561,-4.146 -29,-8.293 -37.281,-8.293c-8.28,-4.146 -16.573,-12.427 -20.72,-16.573c-4.134,-8.281 -4.134,-16.574 -4.134,-24.854l0.003,-1085.38c-0.003,-111.849 -8.296,-207.128 -29,-277.552c-16.574,-70.429 -41.428,-128.426 -78.718,-182.278c-33.135,-49.72 -78.705,-86.998 -132.56,-115.999c-53.851,-29 -120.142,-41.424 -190.567,-41.424c-95.279,-0 -186.411,33.131 -281.703,99.422c-91.132,66.282 -190.558,161.557 -289.983,289.983l-0,1313.23c-0,8.28 -4.147,16.573 -8.293,24.854c-4.131,4.146 -8.281,12.427 -16.558,16.573c-12.44,0 -24.866,4.147 -37.293,8.293c-16.574,4.134 -37.281,4.134 -62.132,4.134c-20.72,0 -41.428,0 -58.001,-4.134c-12.424,-4.146 -24.851,-8.293 -37.291,-8.293c-8.28,-4.146 -12.427,-12.427 -16.561,-16.573c-4.146,-8.281 -4.146,-16.574 -4.146,-24.854l-0,-1831.06c-0,-8.28 -0,-12.427 4.146,-20.72c4.134,-8.281 8.281,-12.427 16.561,-16.558c12.44,-4.15 24.867,-8.296 37.291,-12.443l111.852,0c16.574,4.147 24.854,8.293 33.134,12.44c8.294,4.134 16.571,8.28 16.571,16.561c4.146,8.293 8.296,12.44 8.296,20.72l0,260.983c103.556,-115.987 207.128,-202.985 306.554,-256.836c103.572,-49.721 202.994,-78.718 302.419,-78.718c120.133,-0 223.705,20.72 302.41,62.144c82.852,41.428 149.143,95.279 202.995,161.557c49.708,70.425 86.998,149.143 107.705,244.422c20.721,91.145 33.148,198.851 33.148,331.42l-0,1106.09Z" style="fill:#7b7b7b;fill-rule:nonzero;"/></g><g><path d="M17435.1,10515.1c0,8.28 -4.134,16.573 -8.28,24.854c-4.147,4.146 -8.293,12.427 -16.574,16.573c-12.427,0 -24.854,4.147 -37.281,8.293c-16.57,4.134 -37.29,4.134 -62.144,4.134c-20.72,0 -41.425,0 -57.998,-4.134c-12.427,-4.146 -24.854,-8.293 -37.281,-8.293c-8.293,-4.146 -12.427,-12.427 -16.574,-16.573c-4.146,-8.281 -4.146,-16.574 -4.146,-24.854l-0,-1831.06c-0,-8.28 -0,-12.427 4.146,-20.72c4.147,-8.281 8.281,-12.427 16.574,-16.558c12.427,-4.15 24.854,-8.296 37.281,-12.443l120.142,0c12.427,4.147 24.854,8.293 37.281,12.44c8.281,4.134 12.427,8.28 16.574,16.561c4.146,8.293 8.28,12.44 8.28,20.72l0,1831.06Zm33.144,-2448.32c0,66.279 -8.293,111.853 -33.144,132.56c-20.707,24.864 -62.132,33.144 -124.279,33.144c-57.998,0 -99.426,-8.28 -124.276,-33.144c-20.721,-20.707 -33.148,-62.132 -33.148,-128.426c0,-66.278 12.427,-107.706 37.294,-132.556c20.704,-20.721 62.132,-33.148 124.276,-33.148c58.001,0 99.426,12.427 120.133,33.148c24.851,20.704 33.144,66.278 33.144,128.422Z" style="fill:#7b7b7b;fill-rule:nonzero;"/></g><g><path d="M19389.1,10515.1c0,12.427 -4.134,24.854 -12.427,33.147c-8.28,8.28 -20.707,12.427 -33.134,16.573c-16.574,4.134 -33.144,4.134 -57.998,4.134c-24.867,0 -45.574,0 -57.998,-4.134c-16.574,-4.146 -29.001,-8.293 -37.294,-16.573c-12.427,-8.293 -16.561,-20.72 -16.561,-33.147l0,-202.995c-82.851,86.999 -169.85,157.424 -269.275,207.141c-99.423,45.574 -202.995,70.425 -310.7,70.425c-95.279,0.003 -182.278,-12.424 -256.849,-37.29c-74.572,-24.854 -140.85,-57.986 -194.704,-107.706c-49.718,-45.571 -91.142,-99.426 -120.143,-165.704c-29,-66.278 -41.427,-140.85 -41.427,-223.702c-0,-103.572 20.72,-190.57 62.147,-265.142c41.425,-74.558 99.426,-136.706 178.128,-186.411c74.575,-49.717 169.85,-86.998 277.569,-111.852c107.706,-24.864 227.838,-37.291 360.408,-37.291l289.98,0l-0,-157.423c-0,-78.705 -8.278,-149.133 -24.851,-207.131c-16.574,-62.132 -41.428,-111.853 -78.705,-153.277c-37.294,-37.281 -82.852,-70.425 -140.853,-91.145c-57.998,-16.561 -128.423,-28.988 -211.275,-28.988c-82.852,0 -153.277,8.281 -219.568,28.988c-66.281,20.72 -120.133,41.44 -169.85,66.291c-49.708,24.854 -86.998,45.574 -120.133,66.278c-33.147,20.721 -53.851,29.001 -70.425,29.001c-4.146,0 -12.427,0 -20.72,-4.147c-8.28,-4.133 -12.427,-8.28 -16.573,-16.573c-4.134,-4.134 -8.281,-16.558 -8.281,-24.851c-4.146,-12.427 -4.146,-29 -4.146,-45.574c-0,-24.854 -0,-49.705 4.146,-66.278c4.147,-16.574 16.574,-33.135 33.147,-49.705c16.574,-16.574 45.558,-37.294 91.133,-58.001c41.424,-24.851 91.145,-45.571 144.996,-66.278c58.001,-20.721 120.133,-33.148 182.277,-45.571c66.278,-12.427 128.423,-20.72 194.704,-20.72c124.277,-0 231.995,16.573 318.994,45.57c86.985,33.148 153.276,74.572 207.131,132.573c53.851,53.851 91.129,124.276 115.996,207.128c20.707,82.852 33.134,178.131 33.134,281.703l0,1238.66Zm-240.275,-861.676l-335.557,-0.003c-95.276,0.003 -182.274,8.296 -252.702,24.854c-74.572,16.574 -132.557,45.574 -182.275,78.718c-49.707,33.134 -82.851,74.575 -107.705,120.133c-24.867,45.571 -37.294,99.425 -37.294,161.57c-0,103.572 33.147,190.557 99.425,252.702c70.425,62.144 161.57,91.132 285.85,91.132c95.278,0 182.277,-20.707 265.129,-70.425c82.852,-49.708 173.997,-128.413 265.129,-227.838l-0,-430.846l-0,0.003Z" style="fill:#7b7b7b;fill-rule:nonzero;"/></g><g><path d="M23410.8,10511c-4.146,12.424 -12.427,20.717 -20.72,28.997c-8.28,8.293 -20.704,12.427 -33.131,16.574c-16.574,4.146 -33.147,8.293 -49.721,8.293c-20.704,4.134 -41.424,4.134 -62.131,4.134c-24.867,-0 -49.718,-0 -66.291,-4.134c-20.708,-0 -37.281,-4.147 -49.708,-8.293c-12.424,-4.147 -24.851,-8.281 -33.144,-16.574c-8.281,-8.28 -16.574,-16.573 -20.708,-28.997l-617.269,-2150.04l-4.134,-0l-567.549,2150.04c-4.146,12.424 -8.28,20.717 -16.573,28.997c-8.281,8.293 -16.574,12.427 -28.998,16.574c-12.427,4.146 -29,8.293 -45.574,8.293c-20.707,4.134 -41.424,4.134 -66.278,4.134c-29.001,-0 -49.705,-0 -70.425,-4.134c-20.707,-0 -37.281,-4.147 -53.854,-8.293c-12.424,-4.147 -24.851,-8.281 -33.144,-16.574c-8.281,-8.28 -16.574,-16.573 -20.708,-28.997l-741.545,-2489.74c-8.281,-20.72 -8.281,-37.278 -8.281,-49.717c0,-12.427 4.147,-20.708 12.427,-28.988c8.281,-4.147 20.72,-12.44 41.424,-12.44c16.574,-4.134 41.428,-4.134 70.425,-4.134c29.001,0 53.855,0 70.428,4.134c16.571,0 33.144,4.147 41.425,8.293c8.293,4.147 16.573,8.281 16.573,16.574c4.147,8.28 8.281,16.561 12.427,24.854l654.548,2295.04l4.133,0l604.843,-2295.04c-0,-8.293 4.134,-16.574 8.28,-24.854c4.147,-8.293 12.427,-12.427 20.704,-16.574c12.44,-4.146 24.867,-8.293 45.575,-8.293c16.573,-4.134 41.424,-4.134 70.424,-4.134c20.721,0 41.428,0 53.852,4.134c16.573,0 29,4.147 37.293,8.293c8.281,4.147 12.427,8.281 20.708,16.574c4.146,8.28 8.293,16.561 8.293,24.854l658.681,2295.04l4.147,0l642.107,-2295.04c4.147,-8.293 8.293,-16.574 8.293,-24.854c4.134,-8.293 12.427,-12.427 20.708,-16.574c8.293,-4.146 20.72,-8.293 37.293,-8.293c16.558,-4.134 41.425,-4.134 66.279,-4.134c33.131,0 53.851,4.134 74.571,4.134c16.561,4.147 28.985,8.293 37.278,16.574c8.28,4.146 12.427,16.573 12.427,24.854c4.146,12.439 -0,28.997 -4.147,49.717l-741.533,2489.74Z" style="fill:#7b7b7b;fill-rule:nonzero;"/></g><g><path d="M25984.3,9508.47c0,45.574 -12.427,78.718 -37.277,99.426c-29.001,16.573 -53.852,24.866 -74.572,24.866l-1251.09,0c0,115.983 12.427,215.409 33.135,310.701c24.866,91.132 62.144,169.85 111.852,231.982c49.717,66.278 115.996,115.999 198.848,153.276c82.851,33.147 186.423,53.855 306.569,53.855c82.852,-0 157.411,-8.281 227.835,-24.854c66.292,-12.427 124.293,-29.001 173.997,-49.705c49.718,-16.573 91.145,-33.147 120.146,-49.721c33.131,-12.427 53.851,-20.707 70.425,-20.707c8.28,0 12.427,0 20.704,4.134c8.293,4.146 12.427,12.44 16.574,20.72c4.146,8.28 8.28,20.72 8.28,33.147c4.146,12.427 4.146,28.997 4.146,49.705c0,8.293 0,20.72 -4.146,29c-0,8.281 -0,16.574 -4.134,24.851c0,4.147 -4.146,12.427 -8.293,20.72c-4.134,4.147 -8.28,12.427 -16.574,20.708c-8.277,4.146 -28.997,16.573 -62.131,33.147c-37.291,16.57 -82.852,33.144 -136.704,49.705c-57.997,20.72 -124.292,33.147 -198.85,45.57c-74.572,16.574 -153.29,20.721 -240.276,20.721c-140.849,-0 -269.275,-20.721 -376.994,-62.145c-107.702,-41.427 -202.981,-103.559 -277.553,-186.424c-70.425,-86.985 -128.426,-186.411 -165.703,-310.7c-41.428,-124.279 -58.002,-265.129 -58.002,-426.686c0,-153.277 20.708,-294.13 58.002,-418.419c41.424,-120.133 99.425,-223.705 169.85,-310.703c74.559,-86.982 165.704,-149.13 269.276,-194.701c103.556,-45.574 219.555,-70.425 347.977,-70.425c140.853,0 256.849,24.851 352.128,70.425c99.425,45.571 178.131,107.719 240.275,186.424c62.148,74.571 107.706,165.704 136.706,269.272c28.998,99.426 45.571,211.278 45.571,323.131l0,49.704Zm-248.555,-74.558c4.134,-190.571 -41.425,-343.848 -132.57,-451.553c-95.278,-111.85 -231.982,-165.704 -410.125,-165.704c-91.132,-0 -169.85,16.561 -240.278,53.854c-70.425,33.132 -128.423,78.706 -173.981,132.557c-49.721,57.998 -86.999,124.279 -111.865,198.851c-24.854,74.571 -41.428,153.277 -45.562,231.995l1114.38,-0Z" style="fill:#7b7b7b;fill-rule:nonzero;"/></g><g><path d="M27398,10407.4c0,29.001 0,49.708 -4.146,66.278c-4.134,20.72 -12.427,33.147 -24.854,41.428c-8.281,12.427 -24.854,20.72 -41.425,29c-20.72,8.278 -45.574,16.571 -70.428,24.851c-24.851,4.147 -49.717,8.293 -78.705,12.427c-28.997,4.147 -57.998,4.147 -82.865,4.147c-91.132,-0 -169.85,-12.427 -231.982,-33.147c-62.144,-24.851 -115.999,-62.132 -157.423,-111.85c-37.281,-49.708 -66.278,-111.852 -86.999,-186.411c-16.573,-74.571 -24.853,-165.716 -24.853,-269.275l-0,-1139.25l-273.423,0c-20.704,0 -33.131,-8.28 -45.558,-24.854c-12.44,-16.573 -16.573,-41.427 -16.573,-74.558c-0,-16.574 -0,-33.147 4.133,-45.574c4.147,-12.424 8.293,-24.851 12.44,-33.144c4.134,-8.281 12.427,-12.427 20.707,-16.574c4.147,-4.134 12.424,-8.28 24.851,-8.28l273.423,-0l-0,-447.407c-0,-8.293 -0,-16.57 4.146,-24.863c4.134,-4.134 8.28,-12.427 16.561,-16.561c12.44,-4.147 24.867,-8.293 41.437,-8.293c12.427,-4.147 33.134,-4.147 53.854,-4.147c24.851,0 45.559,0 62.132,4.147c16.574,-0 24.867,4.146 37.294,8.293c8.277,4.134 12.424,12.427 16.558,16.561c4.146,8.293 8.293,16.57 8.293,24.863l-0,447.407l505.404,-0c8.28,-0 16.574,4.146 24.854,8.28c8.293,4.147 12.427,8.293 20.72,16.574c4.147,8.293 8.281,20.72 8.281,33.144c4.146,12.427 4.146,29 4.146,45.574c0,33.131 -4.146,57.985 -16.573,74.558c-8.281,16.574 -24.854,24.854 -41.428,24.854l-505.404,0l-0,1106.1c-0,140.849 20.707,248.555 58.001,318.98c41.424,74.571 111.849,111.849 219.555,111.849c29,0 62.144,-4.13 86.998,-12.424c24.854,-8.28 49.718,-12.427 70.425,-20.707c20.72,-8.293 37.281,-16.573 49.721,-24.854c16.557,-4.146 28.984,-8.293 37.278,-8.293c8.28,-0 12.427,-0 20.707,4.147c4.147,4.146 8.293,8.28 12.44,16.573c4.134,4.134 4.134,16.574 8.28,24.854l0,45.571Z" style="fill:#7b7b7b;fill-rule:nonzero;"/></g><g><path d="M29332.2,9508.47c0,45.574 -12.426,78.718 -37.293,99.426c-28.988,16.573 -53.852,24.866 -74.559,24.866l-1251.1,0c-0,115.983 12.439,215.409 33.143,310.701c24.854,91.132 62.148,169.85 111.853,231.982c49.721,66.278 115.999,115.999 198.851,153.276c82.852,33.147 186.424,53.855 306.553,53.855c82.852,-0 157.423,-8.281 227.848,-24.854c66.295,-12.427 124.28,-29.001 173.997,-49.705c49.708,-16.573 91.133,-33.147 120.133,-49.721c33.144,-12.427 53.864,-20.707 70.425,-20.707c8.293,0 12.427,0 20.72,4.134c8.28,4.146 12.427,12.44 16.574,20.72c4.133,8.28 8.28,20.72 8.28,33.147c4.147,12.427 4.147,28.997 4.147,49.705c-0,8.293 -0,20.72 -4.147,29c0,8.281 0,16.574 -4.147,24.851c0,4.147 -4.133,12.427 -8.28,20.72c-4.147,4.147 -8.28,12.427 -16.574,20.708c-8.28,4.146 -29,16.573 -62.131,33.147c-37.294,16.57 -82.868,33.144 -136.719,49.705c-57.998,20.72 -124.277,33.147 -198.851,45.57c-74.556,16.574 -153.277,20.721 -240.275,20.721c-140.85,-0 -269.26,-20.721 -376.979,-62.145c-107.706,-41.427 -202.984,-103.559 -277.556,-186.424c-70.425,-86.985 -128.423,-186.411 -165.704,-310.7c-41.424,-124.279 -57.997,-265.129 -57.997,-426.686c-0,-153.277 20.707,-294.13 57.997,-418.419c41.428,-120.133 99.426,-223.705 169.851,-310.703c74.558,-86.982 165.703,-149.13 269.263,-194.701c103.572,-45.574 219.568,-70.425 347.993,-70.425c140.85,0 256.849,24.851 352.128,70.425c99.425,45.571 178.131,107.719 240.275,186.424c62.132,74.571 107.706,165.704 136.703,269.272c29.001,99.426 45.574,211.278 45.574,323.131l0,49.704Zm-248.571,-74.558c4.147,-190.571 -41.424,-343.848 -132.557,-451.553c-95.278,-111.85 -231.994,-165.704 -410.125,-165.704c-91.145,-0 -169.85,16.561 -240.275,53.854c-70.425,33.132 -128.426,78.706 -173.997,132.557c-49.708,57.998 -86.999,124.279 -111.853,198.851c-24.854,74.571 -41.424,153.277 -45.57,231.995l1114.38,-0Z" style="fill:#7b7b7b;fill-rule:nonzero;"/></g><g><path d="M30902.8,8779.31c0,20.72 -4.134,37.294 -4.134,49.718c0.004,16.56 -4.143,24.854 -8.29,37.281c0,8.28 -4.133,12.427 -8.28,16.573c-8.293,8.277 -12.427,8.277 -20.72,8.277c-12.427,0.004 -24.854,-4.13 -41.428,-8.277c-16.573,-8.293 -37.277,-12.427 -57.998,-20.72c-20.707,-4.134 -45.558,-12.427 -70.424,-16.574c-24.854,-8.28 -53.855,-12.427 -86.986,-12.427c-33.147,0 -70.425,8.294 -107.719,24.867c-33.131,16.561 -70.425,41.428 -107.702,74.559c-37.294,33.147 -78.722,78.718 -120.146,136.719c-45.561,57.985 -91.132,128.423 -140.853,207.128l0,1238.66c0,8.28 -4.13,16.573 -8.277,24.854c-4.147,4.146 -8.28,12.427 -16.574,16.573c-12.427,0 -24.854,4.147 -37.281,8.294c-16.57,4.133 -37.29,4.133 -62.144,4.133c-20.707,0 -41.428,0 -57.998,-4.133c-12.427,-4.147 -24.854,-8.294 -37.281,-8.294c-8.293,-4.146 -12.427,-12.427 -16.573,-16.573c-4.147,-8.281 -4.147,-16.574 -4.147,-24.854l0,-1831.06c0,-8.28 0,-12.427 4.147,-20.72c4.146,-8.28 8.28,-12.427 16.573,-16.557c12.427,-4.147 24.854,-8.294 37.281,-12.44l111.849,-0c16.574,4.146 24.867,8.293 33.147,12.44c8.281,4.13 16.574,8.277 16.574,16.557c4.147,8.293 8.28,12.44 8.28,20.72l0,289.983c49.718,-74.558 99.426,-136.706 144.997,-186.411c45.574,-45.574 86.998,-82.864 128.426,-107.718c37.277,-29.001 78.702,-45.571 115.995,-53.852c37.281,-12.427 78.706,-16.573 120.133,-16.573c16.571,-0 37.278,4.146 57.998,4.146c24.854,0 49.705,4.147 74.572,12.427c29,4.147 49.704,12.427 70.425,16.571c20.707,8.28 37.28,16.573 45.561,20.707c8.293,8.293 12.44,12.44 16.57,16.574c0,4.146 4.147,12.427 4.147,20.72c4.146,4.134 4.146,16.573 4.146,28.997c4.134,12.427 4.134,29.001 4.134,49.708Z" style="fill:#7b7b7b;fill-rule:nonzero;"/></g><g><path d="M32044.5,10556.5l-252.702,687.682c-8.28,12.44 -20.707,24.867 -41.424,37.294c-24.854,8.28 -58.001,12.427 -103.56,12.427c-24.866,-0 -45.574,-0 -62.144,-4.147c-16.574,0 -29.001,-8.28 -37.281,-12.427c-8.293,-8.28 -12.427,-16.573 -16.574,-29c0,-12.427 4.147,-24.851 8.281,-41.425l260.995,-650.404c-12.427,-4.146 -20.72,-12.427 -29,-20.704c-8.294,-8.293 -12.424,-16.573 -16.571,-29l-666.977,-1785.5c-4.131,-16.573 -8.277,-33.134 -8.277,-45.558c-0,-12.44 4.146,-20.72 12.423,-24.867c4.147,-8.28 16.574,-12.427 33.148,-16.573l140.849,-0c16.561,4.146 33.135,8.293 41.428,12.44c8.28,4.133 16.573,8.28 20.707,12.427c4.147,8.28 12.424,16.573 12.424,24.85l575.845,1599.08l8.281,0l559.255,-1599.08c8.293,-16.57 16.574,-28.997 29.001,-37.277c12.424,-4.147 24.851,-8.294 45.571,-12.44l70.425,-0c24.853,-0 45.574,-0 62.147,4.146c16.558,0 28.998,4.147 37.278,12.427c8.28,8.294 12.427,16.574 12.427,28.998c-0,8.293 -4.147,24.854 -12.427,41.427l-683.548,1835.21Z" style="fill:#7b7b7b;fill-rule:nonzero;"/></g><g><path d="M34645.7,10515.1c-0,8.28 -4.147,16.573 -8.293,24.854c-4.147,4.146 -8.281,12.427 -16.574,16.573c-8.28,0 -20.707,4.147 -37.281,8.293c-16.57,4.134 -33.144,4.134 -57.998,4.134c-24.854,0 -45.571,0 -57.998,-4.134c-16.573,-4.146 -29,-8.293 -37.281,-8.293c-8.293,-4.146 -16.573,-12.427 -20.72,-16.573c-4.13,-8.281 -4.13,-16.574 -4.13,-24.854l-0,-1085.38c-0,-111.849 -8.294,-207.128 -29.001,-277.552c-16.574,-70.429 -41.428,-128.426 -78.718,-182.278c-33.134,-49.72 -78.705,-86.998 -132.56,-115.999c-53.864,-29 -120.142,-41.424 -190.567,-41.424c-95.279,-0 -186.424,33.131 -281.703,99.422c-91.132,66.282 -190.557,161.557 -289.983,289.983l0,1313.23c0,8.28 -4.146,16.573 -8.293,24.854c-4.131,4.146 -8.277,12.427 -16.57,16.573c-12.427,0 -24.854,4.147 -37.281,8.293c-16.574,4.134 -37.278,4.134 -62.132,4.134c-20.72,0 -41.44,0 -57.998,-4.134c-12.427,-4.146 -24.867,-8.293 -37.294,-8.293c-8.28,-4.146 -12.427,-12.427 -16.573,-16.573c-4.134,-8.281 -4.134,-16.574 -4.134,-24.854l-0,-1831.06c-0,-8.28 -0,-12.427 4.134,-20.72c4.146,-8.281 8.293,-12.427 16.573,-16.558c12.427,-4.15 24.867,-8.296 37.294,-12.443l111.849,0c16.574,4.147 24.854,8.293 33.135,12.44c8.293,4.134 16.573,8.28 16.573,16.561c4.147,8.293 8.293,12.44 8.293,20.72l0,260.983c103.556,-115.987 207.128,-202.985 306.554,-256.836c103.572,-49.721 202.981,-78.718 302.407,-78.718c120.145,-0 223.717,20.72 302.423,62.144c82.851,41.428 149.13,95.279 202.994,161.557c49.708,70.425 86.985,149.143 107.706,244.422c20.707,91.145 33.147,198.851 33.147,331.42l-0,1106.09Z" style="fill:#7b7b7b;fill-rule:nonzero;"/></g><g><path d="M36594.9,10515.1c0,12.427 -4.134,24.854 -12.427,33.147c-8.28,8.28 -20.707,12.427 -33.134,16.573c-16.57,4.134 -33.144,4.134 -57.998,4.134c-24.867,0 -45.571,0 -57.998,-4.134c-16.573,-4.146 -29,-8.293 -37.294,-16.573c-12.427,-8.293 -16.56,-20.72 -16.56,-33.147l-0,-202.995c-82.865,86.999 -169.851,157.424 -269.273,207.141c-99.425,45.574 -202.997,70.425 -310.703,70.425c-95.292,0.003 -182.277,-12.424 -256.849,-37.29c-74.571,-24.854 -140.85,-57.986 -194.701,-107.706c-49.721,-45.571 -91.148,-99.426 -120.145,-165.704c-29.001,-66.278 -41.428,-140.85 -41.428,-223.702c-0,-103.572 20.72,-190.57 62.148,-265.142c41.424,-74.558 99.422,-136.706 178.127,-186.411c74.575,-49.717 169.85,-86.998 277.556,-111.852c107.719,-24.864 227.848,-37.291 360.421,-37.291l289.98,0l-0,-157.423c-0,-78.705 -8.277,-149.133 -24.851,-207.131c-16.573,-62.132 -41.427,-111.853 -78.705,-153.277c-37.294,-37.281 -82.852,-70.425 -140.853,-91.145c-57.998,-16.561 -128.423,-28.988 -211.275,-28.988c-82.852,0 -153.276,8.281 -219.571,28.988c-66.278,20.72 -120.129,41.44 -169.85,66.291c-49.705,24.854 -86.998,45.574 -120.13,66.278c-33.147,20.721 -53.851,29.001 -70.424,29.001c-4.147,0 -12.427,0 -20.721,-4.147c-8.28,-4.133 -12.427,-8.28 -16.573,-16.573c-4.134,-4.134 -8.281,-16.558 -8.281,-24.851c-4.146,-12.427 -4.146,-29 -4.146,-45.574c-0,-24.854 -0,-49.705 4.146,-66.278c4.147,-16.574 16.574,-33.135 33.148,-49.705c16.573,-16.574 45.558,-37.294 91.132,-58.001c41.424,-24.851 91.145,-45.571 144.996,-66.278c57.998,-20.721 120.133,-33.148 182.277,-45.571c66.279,-12.427 128.423,-20.72 194.705,-20.72c124.276,-0 231.994,16.573 318.993,45.57c86.986,33.148 153.277,74.572 207.128,132.573c53.854,53.851 91.132,124.276 115.999,207.128c20.707,82.852 33.134,178.131 33.134,281.703l0,1238.66Zm-240.278,-861.676l-335.554,-0.003c-95.276,0.003 -182.274,8.296 -252.702,24.854c-74.572,16.574 -132.57,45.574 -182.274,78.718c-49.708,33.134 -82.852,74.575 -107.706,120.133c-24.867,45.571 -37.294,99.425 -37.294,161.57c0,103.572 33.147,190.557 99.426,252.702c70.424,62.144 161.569,91.132 285.849,91.132c95.279,0 182.277,-20.707 265.129,-70.425c82.852,-49.708 173.997,-128.413 265.126,-227.838l-0,-430.846l-0,0.003Z" style="fill:#7b7b7b;fill-rule:nonzero;"/></g><g><path d="M38280,8779.31c-0,20.72 -4.147,37.294 -4.147,49.718c0,16.56 -4.147,24.854 -8.293,37.281c-0,8.28 -4.134,12.427 -8.281,16.573c-8.28,8.277 -12.426,8.277 -20.707,8.277c-12.436,0.004 -24.863,-4.13 -41.437,-8.277c-16.561,-8.293 -37.281,-12.427 -57.985,-20.72c-20.72,-4.134 -45.574,-12.427 -70.425,-16.574c-24.867,-8.28 -53.867,-12.427 -86.998,-12.427c-33.148,0 -70.429,8.294 -107.719,24.867c-33.134,16.561 -70.425,41.428 -107.706,74.559c-37.278,33.147 -78.705,78.718 -120.129,136.719c-45.575,57.985 -91.145,128.423 -140.853,207.128l-0,1238.66c-0,8.28 -4.147,16.573 -8.294,24.854c-4.146,4.146 -8.28,12.427 -16.573,16.573c-12.424,0 -24.851,4.147 -37.278,8.294c-16.573,4.133 -37.281,4.133 -62.144,4.133c-20.708,0 -41.428,0 -58.001,-4.133c-12.427,-4.147 -24.851,-8.294 -37.278,-8.294c-8.281,-4.146 -12.427,-12.427 -16.574,-16.573c-4.134,-8.281 -4.134,-16.574 -4.134,-24.854l0,-1831.06c0,-8.28 0,-12.427 4.134,-20.72c4.147,-8.28 8.293,-12.427 16.574,-16.557c12.427,-4.147 24.851,-8.294 37.278,-12.44l111.865,-0c16.561,4.146 24.854,8.293 33.134,12.44c8.293,4.13 16.57,8.277 16.57,16.557c4.147,8.293 8.281,12.44 8.281,20.72l-0,289.983c49.721,-74.558 99.425,-136.706 144.999,-186.411c45.571,-45.574 86.999,-82.864 128.423,-107.718c37.281,-29.001 78.705,-45.571 115.999,-53.852c37.278,-12.427 78.705,-16.573 120.13,-16.573c16.573,-0 37.293,4.146 58.001,4.146c24.851,0 49.717,4.147 74.571,12.427c28.998,4.147 49.705,12.427 70.425,16.571c20.708,8.28 37.278,16.573 45.571,20.707c8.28,8.293 12.427,12.44 16.561,16.574c-0,4.146 4.146,12.427 4.146,20.72c4.147,4.134 4.147,16.573 4.147,28.997c4.147,12.427 4.147,29.001 4.147,49.708Z" style="fill:#7b7b7b;fill-rule:nonzero;"/></g><g><path d="M39421.6,10556.5l-252.715,687.682c-8.28,12.44 -20.707,24.867 -41.424,37.294c-24.854,8.28 -57.989,12.427 -103.559,12.427c-24.854,-0 -45.575,-0 -62.145,-4.147c-16.574,0 -29.001,-8.28 -37.281,-12.427c-8.293,-8.28 -12.427,-16.573 -16.573,-29c-0,-12.427 4.146,-24.851 8.28,-41.425l260.995,-650.404c-12.427,-4.146 -20.72,-12.427 -28.997,-20.704c-8.281,-8.293 -12.427,-16.573 -16.574,-29l-666.974,-1785.5c-4.134,-16.573 -8.28,-33.134 -8.28,-45.558c-0,-12.44 4.146,-20.72 12.427,-24.867c4.146,-8.28 16.57,-12.427 33.144,-16.573l140.853,-0c16.57,4.146 33.131,8.293 41.424,12.44c8.28,4.133 16.573,8.28 20.707,12.427c4.147,8.28 12.44,16.573 12.44,24.85l575.829,1599.08l8.281,0l559.255,-1599.08c8.293,-16.57 16.574,-28.997 29.001,-37.277c12.44,-4.147 24.867,-8.294 45.571,-12.44l70.425,-0c24.854,-0 45.574,-0 62.147,4.146c16.574,0 28.998,4.147 37.278,12.427c8.293,8.294 12.427,16.574 12.427,28.998c-0,8.293 -4.134,24.854 -12.427,41.427l-683.535,1835.21Z" style="fill:#7b7b7b;fill-rule:nonzero;"/></g><g><path d="M40813.3,10610.4c0,128.426 -8.293,236.145 -24.867,314.85c-20.704,78.705 -49.704,144.996 -86.998,202.994c-41.424,53.855 -91.132,95.279 -157.411,124.28c-62.144,29 -140.849,41.424 -236.141,41.424c-33.134,-0 -66.278,-0 -91.132,-4.147c-24.854,-8.277 -45.571,-12.423 -62.145,-16.57c-12.427,-4.134 -24.854,-12.427 -29,-20.707c-8.281,-8.294 -12.427,-16.574 -12.427,-24.854c-4.147,-8.294 -4.147,-16.574 -4.147,-24.867l0,-74.559c4.147,-12.44 4.147,-20.717 8.293,-28.997c4.147,-8.293 12.427,-16.574 16.574,-20.72c8.28,-4.147 12.427,-4.147 20.707,-4.147c8.293,0 24.851,0 49.718,4.147c24.854,4.146 58.001,4.146 91.132,4.146c49.721,0 95.279,-4.146 128.426,-20.72c37.29,-16.573 66.278,-37.278 86.998,-74.559c20.717,-33.147 37.278,-78.718 49.705,-132.569c8.293,-58.001 12.44,-136.706 12.44,-244.425l-0,-1926.34c-0,-8.281 4.134,-12.427 8.28,-20.72c4.147,-8.278 8.281,-12.424 16.571,-16.558c12.427,-4.147 20.707,-8.293 37.281,-12.44l120.145,0c12.427,4.147 24.851,8.293 33.131,12.44c8.293,4.134 16.574,8.28 20.72,16.558c4.147,8.293 4.147,12.439 4.147,20.72l0,1926.34Zm41.428,-2543.59c-0,66.278 -12.44,111.849 -37.294,132.557c-20.708,24.867 -62.132,33.147 -124.28,33.147c-57.997,-0 -99.422,-8.28 -120.129,-33.147c-24.867,-20.708 -33.147,-62.132 -33.147,-128.426c-0,-66.278 8.28,-107.703 33.147,-132.557c20.707,-20.72 62.132,-33.147 124.276,-33.147c58.001,0 99.425,12.427 124.279,33.147c20.708,20.708 33.148,66.279 33.148,128.426Z" style="fill:#7b7b7b;fill-rule:nonzero;"/></g><g><path d="M42975.6,10515.1c0,8.28 -4.147,16.573 -8.293,24.854c-4.134,4.146 -8.281,12.427 -16.561,16.573c-8.293,0 -20.72,4.147 -37.294,8.293c-16.57,4.134 -33.131,4.134 -57.998,4.134c-24.853,0 -45.558,0 -57.997,-4.134c-16.561,-4.146 -29.001,-8.293 -37.281,-8.293c-8.281,-4.146 -16.574,-12.427 -20.705,-16.573c-4.146,-8.281 -4.146,-16.574 -4.146,-24.854l-0,-1085.38c-0,-111.849 -8.293,-207.128 -29.001,-277.552c-16.573,-70.429 -41.427,-128.426 -78.718,-182.278c-33.134,-49.72 -78.705,-86.998 -132.559,-115.999c-53.852,-29 -120.143,-41.424 -190.568,-41.424c-95.279,-0 -186.411,33.131 -281.702,99.422c-91.133,66.282 -190.558,161.557 -289.984,289.983l0,1313.23c0,8.28 -4.146,16.573 -8.277,24.854c-4.146,4.146 -8.293,12.427 -16.573,16.573c-12.427,0 -24.867,4.147 -37.294,8.293c-16.561,4.134 -37.278,4.134 -62.132,4.134c-20.72,0 -41.427,0 -57.998,-4.134c-12.427,-4.146 -24.854,-8.293 -37.293,-8.293c-8.281,-4.146 -12.427,-12.427 -16.561,-16.573c-4.147,-8.281 -4.147,-16.574 -4.147,-24.854l0,-1831.06c0,-8.28 0,-12.427 4.147,-20.72c4.134,-8.281 8.28,-12.427 16.561,-16.558c12.439,-4.15 24.866,-8.296 37.293,-12.443l111.85,0c16.573,4.147 24.854,8.293 33.147,12.44c8.28,4.134 16.561,8.28 16.561,16.561c4.146,8.293 8.293,12.44 8.293,20.72l-0,260.983c103.556,-115.987 207.128,-202.985 306.553,-256.836c103.572,-49.721 202.998,-78.718 302.42,-78.718c120.133,-0 223.705,20.72 302.41,62.144c82.852,41.428 149.143,95.279 202.994,161.557c49.708,70.425 86.999,149.143 107.706,244.422c20.72,91.145 33.147,198.851 33.147,331.42l0,1106.09Z" style="fill:#7b7b7b;fill-rule:nonzero;"/></g><g><path d="M44924.8,10515.1c-0,12.427 -4.147,24.854 -12.427,33.147c-8.281,8.28 -20.708,12.427 -33.147,16.573c-16.558,4.134 -33.132,4.134 -57.986,4.134c-24.866,0 -45.571,0 -57.998,-4.134c-16.573,-4.146 -29,-8.293 -37.293,-16.573c-12.427,-8.293 -16.574,-20.72 -16.574,-33.147l0,-202.995c-82.852,86.999 -169.85,157.424 -269.26,207.141c-99.425,45.574 -202.997,70.425 -310.703,70.425c-95.291,0.003 -182.29,-12.424 -256.849,-37.29c-74.571,-24.854 -140.849,-57.986 -194.704,-107.706c-49.717,-45.571 -91.145,-99.426 -120.142,-165.704c-29.001,-66.278 -41.428,-140.85 -41.428,-223.702c0,-103.572 20.72,-190.57 62.148,-265.142c41.424,-74.558 99.422,-136.706 178.127,-186.411c74.575,-49.717 169.851,-86.998 277.557,-111.852c107.718,-24.864 227.848,-37.291 360.42,-37.291l289.98,0l0,-157.423c0,-78.705 -8.277,-149.133 -24.851,-207.131c-16.573,-62.132 -41.427,-111.853 -78.705,-153.277c-37.293,-37.281 -82.864,-70.425 -140.853,-91.145c-57.998,-16.561 -128.423,-28.988 -211.274,-28.988c-82.865,0 -153.29,8.281 -219.571,28.988c-66.279,20.72 -120.13,41.44 -169.851,66.291c-49.704,24.854 -86.998,45.574 -120.129,66.278c-33.147,20.721 -53.868,29.001 -70.425,29.001c-4.147,0 -12.427,0 -20.72,-4.147c-8.281,-4.133 -12.427,-8.28 -16.574,-16.573c-4.134,-4.134 -8.28,-16.558 -8.28,-24.851c-4.147,-12.427 -4.147,-29 -4.147,-45.574c0,-24.854 0,-49.705 4.147,-66.278c4.146,-16.574 16.573,-33.135 33.147,-49.705c16.561,-16.574 45.558,-37.294 91.132,-58.001c41.424,-24.851 91.145,-45.571 144.996,-66.278c57.998,-20.721 120.133,-33.148 182.278,-45.571c66.278,-12.427 128.423,-20.72 194.704,-20.72c124.276,-0 231.995,16.573 318.98,45.57c86.999,33.148 153.29,74.572 207.141,132.573c53.855,53.851 91.133,124.276 115.999,207.128c20.708,82.852 33.135,178.131 33.135,281.703l-0,1238.66Zm-240.279,-861.676l-335.554,-0.003c-95.275,0.003 -182.274,8.296 -252.702,24.854c-74.571,16.574 -132.569,45.574 -182.274,78.718c-49.721,33.134 -82.852,74.575 -107.719,120.133c-24.854,45.571 -37.281,99.425 -37.281,161.57c0,103.572 33.148,190.557 99.426,252.702c70.425,62.144 161.57,91.132 285.849,91.132c95.279,0 182.277,-20.707 265.129,-70.425c82.852,-49.708 173.997,-128.413 265.126,-227.838l0,-430.846l0,0.003Z" style="fill:#7b7b7b;fill-rule:nonzero;"/></g><g><path d="M6018.08,5986.63c39.289,117.866 63.844,211.177 73.666,279.933c9.822,68.755 -3.274,120.322 -39.289,154.699c-36.014,34.378 -99.859,55.659 -191.533,63.845c-91.673,8.185 -217.725,12.277 -378.154,12.277c-166.978,0 -297.122,-2.455 -390.433,-7.366c-93.311,-4.911 -164.522,-14.734 -213.633,-29.467c-49.111,-14.733 -83.489,-35.196 -103.133,-61.389c-19.645,-26.192 -36.015,-60.57 -49.111,-103.133l-427.266,-1276.89l-2386.8,-0l-402.71,1242.51c-13.096,45.837 -30.285,84.308 -51.567,115.411c-21.281,31.104 -55.659,55.659 -103.133,73.667c-47.474,18.007 -114.592,30.285 -201.355,36.833c-86.763,6.548 -200.537,9.822 -341.322,9.822c-150.607,0 -268.473,-4.911 -353.599,-14.733c-85.126,-9.822 -144.059,-33.559 -176.8,-71.211c-32.74,-37.652 -44.2,-90.855 -34.377,-159.611c9.822,-68.755 34.377,-160.429 73.666,-275.022l1959.53,-5637.94c19.644,-55.659 42.563,-100.678 68.755,-135.055c26.193,-34.378 67.937,-60.571 125.233,-78.578c57.297,-18.007 136.693,-29.467 238.189,-34.378c101.496,-4.911 235.733,-7.366 402.71,-7.366c193.17,-0 347.052,2.455 461.644,7.366c114.592,4.911 203.811,16.371 267.655,34.378c63.844,18.007 109.681,45.018 137.511,81.033c27.829,36.015 51.566,85.126 71.211,147.333l1964.44,5633.03Zm-2917.2,-4660.64l-4.911,-0l-898.732,2701.11l1802.38,-0l-898.732,-2701.11Z" style="fill:url(#_Linear1);fill-rule:nonzero;"/><path d="M14312.9,6291.12c-0,32.741 -9.004,62.207 -27.012,88.4c-18.007,26.192 -50.748,47.474 -98.222,63.844c-47.474,16.371 -110.499,29.467 -189.077,39.289c-78.578,9.822 -178.437,14.733 -299.577,14.733c-117.867,0 -216.089,-4.911 -294.666,-14.733c-78.578,-9.822 -140.785,-22.918 -186.622,-39.289c-45.837,-16.37 -78.578,-37.652 -98.222,-63.844c-19.645,-26.193 -29.467,-55.659 -29.467,-88.4l0,-5171.39l-9.822,0l-1841.66,5166.48c-13.096,42.563 -34.377,77.759 -63.844,105.589c-29.466,27.829 -69.574,49.929 -120.322,66.3c-50.748,16.37 -115.411,27.011 -193.988,31.922c-78.578,4.911 -173.526,7.366 -284.844,7.366c-111.319,0 -206.267,-4.092 -284.844,-12.277c-78.578,-8.186 -143.241,-21.282 -193.989,-39.289c-50.748,-18.008 -90.855,-40.108 -120.322,-66.3c-29.466,-26.193 -49.111,-57.296 -58.933,-93.311l-1777.82,-5166.48l-9.822,0l-0,5171.39c-0,32.741 -9.004,62.207 -27.011,88.4c-18.008,26.192 -51.567,47.474 -100.678,63.844c-49.111,16.371 -112.137,29.467 -189.077,39.289c-76.941,9.822 -175.982,14.733 -297.122,14.733c-117.867,0 -216.089,-4.911 -294.666,-14.733c-78.578,-9.822 -141.604,-22.918 -189.078,-39.289c-47.474,-16.37 -80.214,-37.652 -98.222,-63.844c-18.007,-26.193 -27.011,-55.659 -27.011,-88.4l0,-5662.5c0,-166.977 44.2,-294.666 132.6,-383.066c88.4,-88.4 206.266,-132.6 353.599,-132.6l844.71,0c150.607,0 279.933,12.278 387.977,36.834c108.044,24.555 201.355,65.481 279.933,122.777c78.578,57.296 144.059,132.6 196.444,225.911c52.385,93.311 98.222,208.722 137.511,346.233l1375.11,3786.46l19.645,0l1424.22,-3776.64c42.562,-137.511 89.218,-253.741 139.966,-348.688c50.748,-94.948 109.681,-171.889 176.8,-230.822c67.118,-58.933 146.514,-100.678 238.188,-125.233c91.674,-24.556 198.081,-36.834 319.222,-36.834l869.265,0c88.4,0 164.522,11.46 228.366,34.378c63.844,22.918 116.23,56.478 157.155,100.678c40.926,44.2 72.03,98.222 93.311,162.066c21.282,63.844 31.923,136.692 31.923,218.544l-0,5662.5Z" style="fill:url(#_Linear2);fill-rule:nonzero;"/><path d="M16994.4,6291.12c0,32.741 -10.64,62.207 -31.922,88.4c-21.281,26.192 -56.477,47.474 -105.589,63.844c-49.111,16.371 -114.592,29.467 -196.444,39.289c-81.851,9.822 -186.621,14.733 -314.31,14.733c-124.415,0 -228.366,-4.911 -311.855,-14.733c-83.489,-9.822 -149.789,-22.918 -198.9,-39.289c-49.111,-16.37 -84.307,-37.652 -105.588,-63.844c-21.282,-26.193 -31.923,-55.659 -31.923,-88.4l0,-6001.37c0,-32.741 10.641,-62.207 31.923,-88.4c21.281,-26.192 57.296,-47.474 108.044,-63.844c50.748,-16.371 117.048,-29.467 198.899,-39.289c81.852,-9.822 184.985,-14.733 309.4,-14.733c127.689,-0 232.459,4.911 314.31,14.733c81.852,9.822 147.333,22.918 196.444,39.289c49.112,16.37 84.308,37.652 105.589,63.844c21.282,26.193 31.922,55.659 31.922,88.4l0,6001.37Z" style="fill:url(#_Linear3);fill-rule:nonzero;"/><path d="M22774.8,5505.35c-0,81.851 -2.456,151.425 -7.367,208.722c-4.911,57.296 -12.278,106.407 -22.1,147.333c-9.822,40.925 -22.918,76.122 -39.289,105.588c-16.37,29.467 -42.563,63.026 -78.577,100.678c-36.015,37.652 -105.589,85.944 -208.722,144.877c-103.133,58.934 -229.185,115.411 -378.155,169.433c-148.97,54.023 -319.222,99.041 -510.755,135.056c-191.533,36.014 -398.617,54.022 -621.254,54.022c-435.451,-0 -828.339,-67.119 -1178.66,-201.355c-350.325,-134.237 -648.265,-334.774 -893.82,-601.61c-245.555,-266.837 -433.814,-599.973 -564.777,-999.41c-130.963,-399.436 -196.444,-864.354 -196.444,-1394.75c-0,-540.221 72.029,-1019.87 216.088,-1438.95c144.059,-419.08 345.415,-771.043 604.066,-1055.89c258.651,-284.844 568.869,-500.932 930.654,-648.265c361.784,-147.333 760.402,-221 1195.85,-221c176.8,0 347.051,14.734 510.755,44.2c163.703,29.467 315.129,67.937 454.277,115.411c139.148,47.474 264.381,102.315 375.699,164.522c111.319,62.207 189.078,115.411 233.278,159.611c44.199,44.2 74.485,81.033 90.855,110.5c16.37,29.466 29.467,67.118 39.289,112.955c9.822,45.837 17.189,99.859 22.1,162.066c4.911,62.208 7.366,139.148 7.366,230.822c0,98.222 -3.274,181.711 -9.822,250.466c-6.548,68.756 -18.007,124.415 -34.378,166.978c-16.37,42.563 -36.014,73.666 -58.933,93.311c-22.918,19.644 -49.111,29.466 -78.577,29.466c-49.111,0 -111.319,-28.648 -186.622,-85.944c-75.304,-57.296 -172.707,-121.14 -292.211,-191.533c-119.503,-70.392 -261.925,-134.237 -427.266,-191.533c-165.34,-57.296 -362.603,-85.944 -591.788,-85.944c-252.103,-0 -477.195,51.566 -675.276,154.7c-198.081,103.133 -366.696,250.466 -505.844,441.999c-139.148,191.533 -244.736,423.173 -316.766,694.921c-72.029,271.747 -108.044,577.873 -108.044,918.376c-0,373.244 38.47,696.558 115.411,969.943c76.94,273.384 186.622,498.476 329.044,675.276c142.422,176.8 314.31,308.581 515.665,395.344c201.356,86.763 428.085,130.144 680.188,130.144c229.185,0 427.266,-27.011 594.243,-81.033c166.978,-54.022 310.218,-113.774 429.722,-179.255c119.503,-65.482 217.725,-124.415 294.666,-176.8c76.941,-52.385 136.692,-78.578 179.255,-78.578c32.741,0 58.934,6.548 78.578,19.645c19.644,13.096 36.015,39.289 49.111,78.577c13.096,39.289 22.918,94.13 29.467,164.522c6.548,70.393 9.822,164.522 9.822,282.389Z" style="fill:url(#_Linear4);fill-rule:nonzero;"/><path d="M24999.5,6291.12c0,32.741 -10.641,62.207 -31.922,88.4c-21.281,26.192 -56.478,47.474 -105.589,63.844c-49.111,16.371 -114.592,29.467 -196.444,39.289c-81.852,9.822 -186.622,14.733 -314.31,14.733c-124.415,0 -228.367,-4.911 -311.855,-14.733c-83.489,-9.822 -149.789,-22.918 -198.9,-39.289c-49.111,-16.37 -84.307,-37.652 -105.589,-63.844c-21.281,-26.193 -31.922,-55.659 -31.922,-88.4l0,-6001.37c0,-32.741 10.641,-62.207 31.922,-88.4c21.282,-26.192 57.296,-47.474 108.045,-63.844c50.748,-16.371 117.047,-29.467 198.899,-39.289c81.852,-9.822 184.985,-14.733 309.4,-14.733c127.688,-0 232.458,4.911 314.31,14.733c81.852,9.822 147.333,22.918 196.444,39.289c49.111,16.37 84.308,37.652 105.589,63.844c21.281,26.193 31.922,55.659 31.922,88.4l0,6001.37Z" style="fill:url(#_Linear5);fill-rule:nonzero;"/><path d="M30151.2,4562.41c0,333.955 -62.207,626.984 -186.621,879.087c-124.415,252.104 -293.03,462.462 -505.844,631.077c-212.814,168.614 -461.644,295.485 -746.488,380.61c-284.843,85.126 -589.332,127.689 -913.465,127.689c-219.362,0 -423.173,-18.007 -611.432,-54.022c-188.259,-36.015 -354.418,-79.396 -498.477,-130.144c-144.059,-50.748 -264.381,-103.952 -360.966,-159.611c-96.585,-55.659 -166.159,-104.77 -208.722,-147.333c-42.562,-42.563 -72.848,-103.952 -90.855,-184.166c-18.007,-80.215 -27.011,-195.626 -27.011,-346.233c-0,-101.496 3.274,-186.622 9.822,-255.378c6.548,-68.755 17.189,-124.414 31.922,-166.977c14.734,-42.563 34.378,-72.848 58.934,-90.855c24.555,-18.008 53.203,-27.011 85.944,-27.011c45.837,-0 110.5,27.011 193.988,81.033c83.489,54.022 190.715,113.774 321.678,179.255c130.962,65.481 287.299,125.233 469.01,179.255c181.711,54.022 392.07,81.033 631.077,81.033c157.155,0 297.94,-18.826 422.354,-56.477c124.415,-37.652 230.004,-90.856 316.766,-159.611c86.763,-68.756 153.063,-153.881 198.9,-255.377c45.837,-101.497 68.755,-214.452 68.755,-338.866c0,-144.06 -39.288,-267.656 -117.866,-370.789c-78.578,-103.133 -180.892,-194.807 -306.944,-275.021c-126.051,-80.215 -269.292,-155.519 -429.721,-225.911c-160.43,-70.393 -325.77,-144.878 -496.022,-223.455c-170.251,-78.578 -335.592,-167.796 -496.021,-267.655c-160.429,-99.86 -303.67,-219.363 -429.721,-358.511c-126.052,-139.148 -228.367,-303.67 -306.944,-493.566c-78.578,-189.896 -117.867,-417.443 -117.867,-682.643c0,-304.488 56.478,-572.143 169.433,-802.965c112.956,-230.822 265.2,-422.355 456.733,-574.599c191.533,-152.244 417.443,-266.018 677.732,-341.322c260.288,-75.303 536.129,-112.955 827.521,-112.955c150.607,-0 301.214,11.459 451.821,34.378c150.607,22.918 291.392,54.022 422.355,93.311c130.963,39.288 247.192,83.488 348.688,132.599c101.496,49.111 168.615,90.037 201.355,122.778c32.741,32.741 54.841,60.57 66.3,83.489c11.459,22.918 21.282,53.203 29.467,90.855c8.185,37.652 13.915,85.126 17.189,142.422c3.274,57.296 4.911,128.507 4.911,213.633c-0,94.948 -2.456,175.163 -7.367,240.644c-4.911,65.481 -13.096,119.504 -24.555,162.066c-11.46,42.563 -27.83,73.667 -49.111,93.311c-21.282,19.645 -49.93,29.467 -85.945,29.467c-36.014,-0 -93.311,-22.919 -171.888,-68.755c-78.578,-45.837 -175.163,-95.767 -289.755,-149.789c-114.593,-54.022 -247.192,-103.133 -397.8,-147.333c-150.607,-44.2 -315.947,-66.3 -496.021,-66.3c-140.785,-0 -263.562,17.189 -368.333,51.567c-104.77,34.377 -192.351,81.851 -262.744,142.422c-70.392,60.57 -122.777,133.418 -157.155,218.544c-34.378,85.125 -51.566,175.162 -51.566,270.11c-0,140.785 38.47,262.744 115.41,365.877c76.941,103.133 180.074,194.807 309.4,275.022c129.326,80.215 275.84,155.518 439.544,225.911c163.703,70.392 330.68,144.877 500.932,223.455c170.252,78.578 337.229,167.796 500.932,267.655c163.704,99.859 309.4,219.362 437.089,358.51c127.688,139.148 230.821,302.852 309.399,491.111c78.578,188.259 117.866,410.077 117.866,665.454Z" style="fill:url(#_Linear6);fill-rule:nonzero;"/><path d="M37179,4562.41c-0,333.955 -62.207,626.984 -186.622,879.087c-124.415,252.104 -293.029,462.462 -505.844,631.077c-212.814,168.614 -461.643,295.485 -746.487,380.61c-284.844,85.126 -589.332,127.689 -913.465,127.689c-219.363,0 -423.173,-18.007 -611.432,-54.022c-188.259,-36.015 -354.418,-79.396 -498.477,-130.144c-144.059,-50.748 -264.381,-103.952 -360.966,-159.611c-96.585,-55.659 -166.159,-104.77 -208.722,-147.333c-42.563,-42.563 -72.848,-103.952 -90.856,-184.166c-18.007,-80.215 -27.011,-195.626 -27.011,-346.233c0,-101.496 3.274,-186.622 9.823,-255.378c6.548,-68.755 17.188,-124.414 31.922,-166.977c14.733,-42.563 34.377,-72.848 58.933,-90.855c24.555,-18.008 53.204,-27.011 85.944,-27.011c45.837,-0 110.5,27.011 193.989,81.033c83.489,54.022 190.714,113.774 321.677,179.255c130.963,65.481 287.299,125.233 469.01,179.255c181.711,54.022 392.07,81.033 631.077,81.033c157.155,0 297.94,-18.826 422.355,-56.477c124.414,-37.652 230.003,-90.856 316.766,-159.611c86.763,-68.756 153.063,-153.881 198.899,-255.377c45.837,-101.497 68.756,-214.452 68.756,-338.866c-0,-144.06 -39.289,-267.656 -117.867,-370.789c-78.577,-103.133 -180.892,-194.807 -306.943,-275.021c-126.052,-80.215 -269.293,-155.519 -429.722,-225.911c-160.429,-70.393 -325.77,-144.878 -496.021,-223.455c-170.252,-78.578 -335.592,-167.796 -496.022,-267.655c-160.429,-99.86 -303.669,-219.363 -429.721,-358.511c-126.052,-139.148 -228.366,-303.67 -306.944,-493.566c-78.578,-189.896 -117.866,-417.443 -117.866,-682.643c-0,-304.488 56.477,-572.143 169.433,-802.965c112.955,-230.822 265.199,-422.355 456.732,-574.599c191.533,-152.244 417.444,-266.018 677.732,-341.322c260.289,-75.303 536.129,-112.955 827.521,-112.955c150.607,-0 301.214,11.459 451.821,34.378c150.608,22.918 291.393,54.022 422.355,93.311c130.963,39.288 247.192,83.488 348.688,132.599c101.497,49.111 168.615,90.037 201.356,122.778c32.74,32.741 54.84,60.57 66.3,83.489c11.459,22.918 21.281,53.203 29.466,90.855c8.185,37.652 13.915,85.126 17.189,142.422c3.274,57.296 4.911,128.507 4.911,213.633c0,94.948 -2.455,175.163 -7.367,240.644c-4.911,65.481 -13.096,119.504 -24.555,162.066c-11.459,42.563 -27.83,73.667 -49.111,93.311c-21.281,19.645 -49.93,29.467 -85.944,29.467c-36.015,-0 -93.311,-22.919 -171.889,-68.755c-78.578,-45.837 -175.163,-95.767 -289.755,-149.789c-114.592,-54.022 -247.192,-103.133 -397.799,-147.333c-150.607,-44.2 -315.948,-66.3 -496.022,-66.3c-140.784,-0 -263.562,17.189 -368.332,51.567c-104.77,34.377 -192.352,81.851 -262.744,142.422c-70.393,60.57 -122.778,133.418 -157.156,218.544c-34.377,85.125 -51.566,175.162 -51.566,270.11c-0,140.785 38.47,262.744 115.411,365.877c76.94,103.133 180.074,194.807 309.399,275.022c129.326,80.215 275.841,155.518 439.544,225.911c163.703,70.392 330.681,144.877 500.932,223.455c170.252,78.578 337.229,167.796 500.933,267.655c163.703,99.859 309.399,219.362 437.088,358.51c127.689,139.148 230.822,302.852 309.399,491.111c78.578,188.259 117.867,410.077 117.867,665.454Z" style="fill:url(#_Linear7);fill-rule:nonzero;"/><path d="M39546.2,5760.72c0,304.488 -53.203,509.118 -159.611,613.888c-106.407,104.77 -297.121,157.155 -572.143,157.155c-275.022,-0 -464.918,-51.567 -569.688,-154.7c-104.77,-103.133 -157.155,-298.758 -157.155,-586.876c-0,-307.763 53.203,-514.029 159.611,-618.799c106.407,-104.771 298.758,-157.156 577.054,-157.156c271.748,0 460.007,51.567 564.777,154.7c104.77,103.133 157.155,300.396 157.155,591.788Z" style="fill:url(#_Linear8);fill-rule:nonzero;"/><path d="M45076.1,5505.35c0,81.851 -2.455,151.425 -7.366,208.722c-4.911,57.296 -12.278,106.407 -22.1,147.333c-9.823,40.925 -22.919,76.122 -39.289,105.588c-16.37,29.467 -42.563,63.026 -78.578,100.678c-36.015,37.652 -105.588,85.944 -208.722,144.877c-103.133,58.934 -229.184,115.411 -378.155,169.433c-148.97,54.023 -319.221,99.041 -510.754,135.056c-191.533,36.014 -398.618,54.022 -621.255,54.022c-435.451,-0 -828.339,-67.119 -1178.66,-201.355c-350.325,-134.237 -648.266,-334.774 -893.821,-601.61c-245.555,-266.837 -433.814,-599.973 -564.777,-999.41c-130.962,-399.436 -196.444,-864.354 -196.444,-1394.75c0,-540.221 72.03,-1019.87 216.089,-1438.95c144.059,-419.08 345.414,-771.043 604.065,-1055.89c258.652,-284.844 568.87,-500.932 930.654,-648.265c361.785,-147.333 760.403,-221 1195.85,-221c176.799,0 347.051,14.734 510.754,44.2c163.704,29.467 315.129,67.937 454.277,115.411c139.148,47.474 264.381,102.315 375.7,164.522c111.318,62.207 189.077,115.411 233.277,159.611c44.2,44.2 74.485,81.033 90.855,110.5c16.371,29.466 29.467,67.118 39.289,112.955c9.822,45.837 17.189,99.859 22.1,162.066c4.911,62.208 7.367,139.148 7.367,230.822c-0,98.222 -3.274,181.711 -9.822,250.466c-6.548,68.756 -18.008,124.415 -34.378,166.978c-16.37,42.563 -36.015,73.666 -58.933,93.311c-22.919,19.644 -49.111,29.466 -78.578,29.466c-49.111,0 -111.318,-28.648 -186.622,-85.944c-75.303,-57.296 -172.707,-121.14 -292.21,-191.533c-119.504,-70.392 -261.926,-134.237 -427.266,-191.533c-165.341,-57.296 -362.603,-85.944 -591.788,-85.944c-252.103,-0 -477.196,51.566 -675.277,154.7c-198.081,103.133 -366.695,250.466 -505.843,441.999c-139.148,191.533 -244.737,423.173 -316.766,694.921c-72.03,271.747 -108.045,577.873 -108.045,918.376c0,373.244 38.471,696.558 115.411,969.943c76.941,273.384 186.622,498.476 329.044,675.276c142.422,176.8 314.311,308.581 515.666,395.344c201.355,86.763 428.084,130.144 680.188,130.144c229.184,0 427.266,-27.011 594.243,-81.033c166.977,-54.022 310.218,-113.774 429.721,-179.255c119.504,-65.482 217.726,-124.415 294.667,-176.8c76.94,-52.385 136.692,-78.578 179.255,-78.578c32.741,0 58.933,6.548 78.577,19.645c19.645,13.096 36.015,39.289 49.111,78.577c13.097,39.289 22.919,94.13 29.467,164.522c6.548,70.393 9.822,164.522 9.822,282.389Z" style="fill:url(#_Linear9);fill-rule:nonzero;"/></g><defs><linearGradient id="_Linear1" x1="0" y1="0" x2="1" y2="0" gradientUnits="userSpaceOnUse" gradientTransform="matrix(44081.9,0,0,44081.9,505.553,14099.6)"><stop offset="0" style="stop-color:#1d92ac;stop-opacity:1"/><stop offset="0.47" style="stop-color:#319789;stop-opacity:1"/><stop offset="1" style="stop-color:#37987f;stop-opacity:1"/></linearGradient><linearGradient id="_Linear2" x1="0" y1="0" x2="1" y2="0" gradientUnits="userSpaceOnUse" gradientTransform="matrix(44081.9,0,0,44081.9,505.553,14099.6)"><stop offset="0" style="stop-color:#1d92ac;stop-opacity:1"/><stop offset="0.47" style="stop-color:#319789;stop-opacity:1"/><stop offset="1" style="stop-color:#37987f;stop-opacity:1"/></linearGradient><linearGradient id="_Linear3" x1="0" y1="0" x2="1" y2="0" gradientUnits="userSpaceOnUse" gradientTransform="matrix(44081.9,0,0,44081.9,505.553,14099.6)"><stop offset="0" style="stop-color:#1d92ac;stop-opacity:1"/><stop offset="0.47" style="stop-color:#319789;stop-opacity:1"/><stop offset="1" style="stop-color:#37987f;stop-opacity:1"/></linearGradient><linearGradient id="_Linear4" x1="0" y1="0" x2="1" y2="0" gradientUnits="userSpaceOnUse" gradientTransform="matrix(44081.9,0,0,44081.9,505.553,14099.6)"><stop offset="0" style="stop-color:#1d92ac;stop-opacity:1"/><stop offset="0.47" style="stop-color:#319789;stop-opacity:1"/><stop offset="1" style="stop-color:#37987f;stop-opacity:1"/></linearGradient><linearGradient id="_Linear5" x1="0" y1="0" x2="1" y2="0" gradientUnits="userSpaceOnUse" gradientTransform="matrix(44081.9,0,0,44081.9,505.553,14099.6)"><stop offset="0" style="stop-color:#1d92ac;stop-opacity:1"/><stop offset="0.47" style="stop-color:#319789;stop-opacity:1"/><stop offset="1" style="stop-color:#37987f;stop-opacity:1"/></linearGradient><linearGradient id="_Linear6" x1="0" y1="0" x2="1" y2="0" gradientUnits="userSpaceOnUse" gradientTransform="matrix(44081.9,0,0,44081.9,505.553,14099.6)"><stop offset="0" style="stop-color:#1d92ac;stop-opacity:1"/><stop offset="0.47" style="stop-color:#319789;stop-opacity:1"/><stop offset="1" style="stop-color:#37987f;stop-opacity:1"/></linearGradient><linearGradient id="_Linear7" x1="0" y1="0" x2="1" y2="0" gradientUnits="userSpaceOnUse" gradientTransform="matrix(44081.9,0,0,44081.9,505.553,14099.6)"><stop offset="0" style="stop-color:#1d92ac;stop-opacity:1"/><stop offset="0.47" style="stop-color:#319789;stop-opacity:1"/><stop offset="1" style="stop-color:#37987f;stop-opacity:1"/></linearGradient><linearGradient id="_Linear8" x1="0" y1="0" x2="1" y2="0" gradientUnits="userSpaceOnUse" gradientTransform="matrix(44081.9,0,0,44081.9,505.553,14099.6)"><stop offset="0" style="stop-color:#1d92ac;stop-opacity:1"/><stop offset="0.47" style="stop-color:#319789;stop-opacity:1"/><stop offset="1" style="stop-color:#37987f;stop-opacity:1"/></linearGradient><linearGradient id="_Linear9" x1="0" y1="0" x2="1" y2="0" gradientUnits="userSpaceOnUse" gradientTransform="matrix(44081.9,0,0,44081.9,505.553,14099.6)"><stop offset="0" style="stop-color:#1d92ac;stop-opacity:1"/><stop offset="0.47" style="stop-color:#319789;stop-opacity:1"/><stop offset="1" style="stop-color:#37987f;stop-opacity:1"/></linearGradient></defs></svg>