<?xml version="1.0" encoding="UTF-8" standalone="no"?><!DOCTYPE svg PUBLIC "-//W3C//DTD SVG 1.1//EN" "http://www.w3.org/Graphics/SVG/1.1/DTD/svg11.dtd"><svg width="100%" height="100%" viewBox="0 0 4949 4199" version="1.1" xmlns="http://www.w3.org/2000/svg" xmlns:xlink="http://www.w3.org/1999/xlink" xml:space="preserve" xmlns:serif="http://www.serif.com/" style="fill-rule:evenodd;clip-rule:evenodd;stroke-linecap:round;stroke-linejoin:round;stroke-miterlimit:1.5;"><path d="M4739.56,1773.13l87.89,566.407c-499.153,25.85 -782.331,-302.869 -87.891,-566.407Z" style="fill:#808080;stroke:#808080;stroke-width:7.22px;"/><path d="M2921.5,1605.29c11.228,0.412 22.147,-3.722 30.287,-11.466c8.141,-7.744 12.813,-18.447 12.96,-29.681c2.969,-231.419 -150.303,-331.932 -256.344,-310.241c-115.362,22.647 -255.331,168.241 -164.556,358.984c9.053,19.116 30.553,28.941 50.931,23.275c106.263,-28.184 215.194,-34.7 326.722,-30.871Z" style="fill:#808080;stroke:#808080;stroke-width:7.22px;"/><path d="M2161.44,1128.6c190.585,-228.728 27.726,-314.572 -185.546,-458.984c-161.682,-109.478 -536.3,-67.916 -859.375,29.297c-207.1,62.315 -378.629,132.906 -449.219,253.906c-37.706,105.137 -12.85,285.3 55.519,518.622c33.59,114.637 77.687,242.106 130.028,379.815c265.572,462.079 539.375,430.482 820.312,-29.296c141.819,-190.066 202.613,-437.213 213.003,-631.188c6.235,-116.406 155.882,-128.962 275.278,-62.172Z" style="fill:#808080;stroke:#808080;stroke-width:7.22px;"/><path d="M2698.56,4087.58l0,-820.312c275.276,40.093 757.069,169.146 996.094,126.953c1105.55,-195.157 1949.87,-1790.06 -136.719,-2167.97c-225.337,-662.584 -1491.74,-1460.29 -2666.01,-957.031c-205.078,87.89 -593.966,257.387 -781.25,419.922" style="fill:none;stroke:#808080;stroke-width:221.34px;"/></svg>