<?xml version="1.0" encoding="UTF-8" standalone="no"?><!DOCTYPE svg PUBLIC "-//W3C//DTD SVG 1.1//EN" "http://www.w3.org/Graphics/SVG/1.1/DTD/svg11.dtd"><svg width="100%" height="100%" viewBox="0 0 3612 1862" version="1.1" xmlns="http://www.w3.org/2000/svg" xmlns:xlink="http://www.w3.org/1999/xlink" xml:space="preserve" xmlns:serif="http://www.serif.com/" style="fill-rule:evenodd;clip-rule:evenodd;stroke-linecap:round;stroke-linejoin:round;stroke-miterlimit:1.5;"><path d="M2168.75,566.359l28.125,181.25c-159.729,8.272 -250.346,-96.918 -28.125,-181.25Z" style="fill:#808080;stroke:#808080;stroke-width:2.31px;"/><path d="M1586.97,512.648c3.593,0.132 7.087,-1.191 9.692,-3.669c2.605,-2.478 4.1,-5.903 4.147,-9.498c0.95,-74.054 -48.097,-106.218 -82.03,-99.277c-36.916,7.247 -81.706,53.837 -52.658,114.875c2.897,6.117 9.777,9.261 16.298,7.448c34.004,-9.019 68.862,-11.104 104.551,-9.879Z" style="fill:#808080;stroke:#808080;stroke-width:2.31px;"/><path d="M1343.75,360.109c60.987,-73.193 8.872,-100.663 -59.375,-146.875c-51.738,-35.033 -171.616,-21.733 -275,9.375c-66.272,19.941 -121.161,42.53 -143.75,81.25c-12.066,33.644 -4.112,91.296 17.766,165.959c10.749,36.684 24.86,77.474 41.609,121.541c84.983,147.865 172.6,137.754 262.5,-9.375c45.382,-60.821 64.836,-139.908 68.161,-201.98c1.995,-37.25 49.882,-41.268 88.089,-19.895Z" style="fill:#808080;stroke:#808080;stroke-width:2.31px;"/><path d="M1515.63,1306.98l0,-262.5c88.088,12.83 242.262,54.127 318.75,40.625c353.775,-62.45 623.959,-572.818 -43.75,-693.75c-72.108,-212.027 -477.357,-467.294 -853.125,-306.25c-65.625,28.125 -190.069,82.364 -250,134.375" style="fill:none;stroke:#808080;stroke-width:70.83px;"/><g transform="matrix(3.125,0,0,3.125,-377.409,-1066.51)"><path d="M227.115,897.792c8.184,-24.714 16.995,-49.653 26.43,-74.818l43.481,-116.458l27.591,-0l-85.884,226.484l-24.078,-0l-85.884,-226.484l27.591,-0l43.473,116.458c9.548,25.165 18.414,50.104 26.597,74.818l0.683,-0Z" style="fill:url(#_Radial1);fill-rule:nonzero;"/><path d="M404.66,815.827c-4.977,0 -9.603,0.974 -13.878,2.923c-4.274,1.948 -8.007,4.592 -11.201,7.932c-3.193,3.339 -5.776,7.259 -7.749,11.759c-1.973,4.499 -3.195,9.3 -3.664,14.403l67.632,-0c-0,-5.196 -0.681,-10.043 -2.043,-14.542c-1.362,-4.5 -3.358,-8.42 -5.988,-11.76c-2.631,-3.339 -5.872,-5.96 -9.723,-7.862c-3.852,-1.902 -8.314,-2.853 -13.386,-2.853Zm11.379,101.865c7.143,0 13.661,-0.579 19.552,-1.739c5.891,-1.16 11.759,-2.807 17.604,-4.94l-0,17.951c-4.732,2.32 -10.577,4.152 -17.535,5.497c-6.958,1.345 -14.426,2.018 -22.404,2.018c-9.463,0 -18.346,-1.206 -26.649,-3.618c-8.304,-2.412 -15.491,-6.309 -21.563,-11.69c-6.071,-5.38 -10.826,-12.408 -14.264,-21.082c-3.437,-8.675 -5.156,-19.135 -5.156,-31.381c-0,-12.061 1.666,-22.521 4.998,-31.381c3.332,-8.859 7.774,-16.258 13.326,-22.196c5.553,-5.937 11.938,-10.39 19.157,-13.359c7.218,-2.969 14.76,-4.453 22.627,-4.453c7.403,-0 14.321,1.229 20.753,3.688c6.431,2.458 12.007,6.331 16.727,11.619c4.72,5.289 8.445,12.107 11.175,20.457c2.731,8.35 4.096,18.369 4.096,30.059l-0,2.852c-0,0.789 -0.047,2.575 -0.139,5.358l-91.289,0c-0,8.442 1.275,15.609 3.826,21.5c2.552,5.891 6.031,10.669 10.437,14.334c4.407,3.664 9.579,6.332 15.517,8.002c5.937,1.669 12.339,2.504 19.204,2.504Z" style="fill:#808080;fill-rule:nonzero;stroke:#808080;stroke-width:1px;stroke-linecap:butt;stroke-miterlimit:2;"/><path d="M564.801,933.278c-1.855,0.743 -4.685,1.438 -8.489,2.088c-3.803,0.649 -8.349,1.02 -13.637,1.113c-6.958,0 -12.989,-0.858 -18.091,-2.574c-5.103,-1.717 -9.347,-4.175 -12.733,-7.376c-3.387,-3.201 -5.915,-7.074 -7.585,-11.62c-1.669,-4.546 -2.504,-9.602 -2.504,-15.168l-0,-80.435l-25.467,0l0,-18.508l25.467,-0l-0,-36.182l21.569,0l0,36.182l39.522,-0l-0,18.508l-39.522,0l0,77.095c0,3.061 0.441,5.891 1.322,8.489c0.882,2.597 2.273,4.847 4.175,6.749c1.902,1.902 4.337,3.386 7.306,4.453c2.969,1.067 6.541,1.6 10.715,1.6c2.876,0 5.915,-0.232 9.115,-0.695c3.201,-0.464 6.147,-1.067 8.837,-1.81l0,18.091Z" style="fill:#808080;fill-rule:nonzero;stroke:#808080;stroke-width:1px;stroke-linecap:butt;stroke-miterlimit:2;"/><path d="M595.416,933l0,-132.202l21.57,-0l0,132.202l-21.57,0Zm-0.556,-162.957l-0,-24.074l21.57,-0l-0,24.074l-21.57,0Z" style="fill:#808080;fill-rule:nonzero;stroke:#808080;stroke-width:1px;stroke-linecap:butt;stroke-miterlimit:2;"/><path d="M834.53,726.828c-12.681,0 -24.534,2.003 -35.56,6.009c-11.025,4.006 -20.594,9.987 -28.707,17.943c-8.113,7.956 -14.511,17.83 -19.195,29.622c-4.684,11.793 -7.026,25.532 -7.026,41.218c-0,15.573 2.17,29.086 6.511,40.54c4.342,11.454 10.51,20.933 18.507,28.438c7.996,7.504 17.62,13.062 28.871,16.673c11.251,3.611 23.788,5.417 37.61,5.417c3.769,-0 7.768,-0.198 11.994,-0.593c4.227,-0.395 8.482,-0.959 12.765,-1.693c4.284,-0.733 8.454,-1.58 12.509,-2.539c4.056,-0.959 7.683,-2.003 10.881,-3.131l0,24.375c-6.658,2.595 -14.388,4.598 -23.19,6.009c-8.802,1.41 -17.83,2.116 -27.083,2.116c-18.846,-0 -35.547,-2.624 -50.104,-7.871c-14.558,-5.248 -26.773,-12.78 -36.647,-22.598c-9.875,-9.818 -17.351,-21.808 -22.429,-35.97c-5.078,-14.162 -7.617,-30.215 -7.617,-48.158c-0,-17.604 2.68,-33.797 8.04,-48.58c5.361,-14.783 13.091,-27.479 23.19,-38.086c10.1,-10.608 22.344,-18.874 36.732,-24.798c14.388,-5.925 30.554,-8.887 48.496,-8.887c4.74,-0 9.423,0.197 14.05,0.592c4.627,0.395 9.056,0.96 13.288,1.693c4.231,0.734 8.153,1.608 11.764,2.624c3.611,1.015 6.714,2.087 9.31,3.216l-0,24.375c-6.856,-2.257 -14.339,-4.147 -22.451,-5.671c-8.112,-1.523 -16.281,-2.285 -24.509,-2.285Z" style="fill:url(#_Radial2);fill-rule:nonzero;"/><path d="M998.864,918.388l-0.556,0c-1.763,2.227 -3.989,4.43 -6.68,6.61c-2.69,2.18 -5.798,4.129 -9.324,5.845c-3.525,1.716 -7.375,3.085 -11.55,4.105c-4.175,1.021 -8.628,1.531 -13.359,1.531c-6.402,0 -12.27,-0.951 -17.604,-2.853c-5.335,-1.902 -9.927,-4.685 -13.777,-8.349c-3.85,-3.665 -6.842,-8.141 -8.976,-13.429c-2.134,-5.288 -3.2,-11.272 -3.2,-17.952c-0,-6.587 1.182,-12.478 3.548,-17.673c2.366,-5.196 5.683,-9.602 9.95,-13.221c4.268,-3.618 9.393,-6.401 15.377,-8.349c5.984,-1.948 12.594,-2.923 19.831,-2.923c6.865,0.093 13.22,0.696 19.065,1.81c5.844,1.113 11.04,2.504 15.585,4.174l0.557,0l0,-9.184c0,-3.618 -0.232,-6.819 -0.696,-9.602c-0.464,-2.783 -1.252,-5.242 -2.365,-7.376c-2.412,-4.453 -6.263,-8.141 -11.551,-11.063c-5.288,-2.922 -12.431,-4.384 -21.43,-4.384c-6.68,0 -12.965,0.627 -18.857,1.879c-5.891,1.253 -11.759,2.992 -17.603,5.219l-0,-18.091c2.226,-1.113 4.847,-2.157 7.862,-3.131c3.015,-0.974 6.193,-1.809 9.533,-2.505c3.34,-0.696 6.865,-1.229 10.576,-1.601c3.711,-0.371 7.422,-0.556 11.133,-0.556c13.359,-0 24.283,2.366 32.772,7.097c8.489,4.731 14.589,10.994 18.299,18.787c1.392,2.968 2.389,6.239 2.992,9.81c0.603,3.572 0.905,7.492 0.905,11.759l-0,88.228l-18.091,0l-2.366,-14.612Zm-1.113,-43.418c-3.972,-1.113 -8.682,-2.18 -14.13,-3.2c-5.448,-1.021 -11.451,-1.578 -18.009,-1.67c-9.143,-0 -16.3,1.948 -21.472,5.844c-5.172,3.897 -7.758,9.881 -7.758,17.952c-0,4.082 0.646,7.654 1.939,10.715c1.293,3.062 3.071,5.59 5.334,7.585c2.263,1.994 4.941,3.479 8.034,4.453c3.094,0.974 6.395,1.461 9.904,1.461c4.619,-0 8.914,-0.673 12.885,-2.018c3.971,-1.345 7.503,-2.946 10.598,-4.801c3.094,-1.855 5.726,-3.711 7.896,-5.566c2.17,-1.856 3.763,-3.294 4.779,-4.314l0,-26.441Z" style="fill:#808080;fill-rule:nonzero;stroke:#808080;stroke-width:1px;stroke-linecap:butt;stroke-miterlimit:2;"/><path d="M1133.57,818.332l-1.669,0c-5.103,0 -10.113,0.464 -15.03,1.392c-4.917,0.927 -9.532,2.342 -13.846,4.244c-4.314,1.902 -8.211,4.244 -11.69,7.028c-3.479,2.783 -6.378,6.076 -8.697,9.88l-0,92.124l-21.57,-0l0,-132.202l16.699,-0l4.175,21.013l0.418,0c2.133,-3.433 4.754,-6.633 7.862,-9.602c3.108,-2.969 6.61,-5.566 10.507,-7.793c3.896,-2.227 8.164,-3.966 12.802,-5.218c4.639,-1.253 9.51,-1.879 14.612,-1.879c0.928,-0 1.879,0.023 2.853,0.069c0.974,0.047 1.832,0.116 2.574,0.209l0,20.735Z" style="fill:#808080;fill-rule:nonzero;stroke:#808080;stroke-width:1px;stroke-linecap:butt;stroke-miterlimit:2;"/><path d="M1207.92,815.827c-4.978,0 -9.604,0.974 -13.878,2.923c-4.274,1.948 -8.008,4.592 -11.202,7.932c-3.193,3.339 -5.776,7.259 -7.749,11.759c-1.973,4.499 -3.194,9.3 -3.664,14.403l67.632,-0c-0,-5.196 -0.681,-10.043 -2.043,-14.542c-1.362,-4.5 -3.358,-8.42 -5.988,-11.76c-2.63,-3.339 -5.871,-5.96 -9.723,-7.862c-3.851,-1.902 -8.313,-2.853 -13.385,-2.853Zm11.378,101.865c7.144,0 13.661,-0.579 19.552,-1.739c5.891,-1.16 11.759,-2.807 17.604,-4.94l-0,17.951c-4.732,2.32 -10.576,4.152 -17.534,5.497c-6.958,1.345 -14.427,2.018 -22.405,2.018c-9.463,0 -18.346,-1.206 -26.649,-3.618c-8.303,-2.412 -15.491,-6.309 -21.562,-11.69c-6.072,-5.38 -10.827,-12.408 -14.264,-21.082c-3.438,-8.675 -5.157,-19.135 -5.157,-31.381c0,-12.061 1.666,-22.521 4.998,-31.381c3.332,-8.859 7.774,-16.258 13.327,-22.196c5.552,-5.937 11.938,-10.39 19.156,-13.359c7.218,-2.969 14.761,-4.453 22.628,-4.453c7.403,-0 14.32,1.229 20.752,3.688c6.432,2.458 12.007,6.331 16.727,11.619c4.72,5.289 8.445,12.107 11.176,20.457c2.73,8.35 4.095,18.369 4.095,30.059l-0,2.852c-0,0.789 -0.046,2.575 -0.139,5.358l-91.289,0c-0,8.442 1.275,15.609 3.827,21.5c2.551,5.891 6.03,10.669 10.437,14.334c4.406,3.664 9.579,6.332 15.516,8.002c5.938,1.669 12.339,2.504 19.204,2.504Z" style="fill:#808080;fill-rule:nonzero;stroke:#808080;stroke-width:1px;stroke-linecap:butt;stroke-miterlimit:2;"/></g><defs><radialGradient id="_Radial1" cx="0" cy="0" r="1" gradientUnits="userSpaceOnUse" gradientTransform="matrix(800.549,0,0,365,122,844.067)"><stop offset="0" style="stop-color:#38987e;stop-opacity:1"/><stop offset="0.19" style="stop-color:#2c9592;stop-opacity:1"/><stop offset="0.4" style="stop-color:#2193a5;stop-opacity:1"/><stop offset="1" style="stop-color:#1c92ad;stop-opacity:1"/></radialGradient><radialGradient id="_Radial2" cx="0" cy="0" r="1" gradientUnits="userSpaceOnUse" gradientTransform="matrix(800.549,0,0,365,122,844.067)"><stop offset="0" style="stop-color:#38987e;stop-opacity:1"/><stop offset="0.64" style="stop-color:#349785;stop-opacity:1"/><stop offset="0.84" style="stop-color:#299597;stop-opacity:1"/><stop offset="1" style="stop-color:#1c92ad;stop-opacity:1"/></radialGradient></defs></svg>