<?xml version="1.0" encoding="UTF-8" standalone="no"?><!DOCTYPE svg PUBLIC "-//W3C//DTD SVG 1.1//EN" "http://www.w3.org/Graphics/SVG/1.1/DTD/svg11.dtd"><svg width="100%" height="100%" viewBox="0 0 28980 28980" version="1.1" xmlns="http://www.w3.org/2000/svg" xmlns:xlink="http://www.w3.org/1999/xlink" xml:space="preserve" xmlns:serif="http://www.serif.com/" style="fill-rule:evenodd;clip-rule:evenodd;stroke-linejoin:round;stroke-miterlimit:2;"><path d="M14485.7,0c-8005.63,0 -14485.7,6478.79 -14485.7,14485.7c0,8005.63 6478.79,14485.7 14485.7,14485.7c2812.67,0 5568.92,-825.921 7909.17,-2349.43c701.213,-456.479 854.234,-1418.67 324.288,-2066.08l-594.446,-726.212c-448.054,-547.363 -1237.07,-681.459 -1832.48,-299.584c-1722.52,1104.77 -3743.86,1703.06 -5806.54,1703.06c-5926.17,0 -10747.4,-4821.25 -10747.4,-10747.4c0,-5926.17 4821.25,-10747.4 10747.4,-10747.4c5849.13,0 10747.4,3365.52 10747.4,9345.58c0,2265.49 -1232.03,4657.71 -3397.71,4888.5c-1013.35,-26.513 -987.708,-750.976 -787.116,-1753.7l1368.71,-7074.04c167.396,-864.984 -495.258,-1668.13 -1376.25,-1668.13l-2627.34,0c-399.655,0 -739.48,303.437 -784.567,700.521l-0.592,5.366c-858.454,-1045.59 -2362.57,-1271.88 -3502.9,-1271.88c-4356.21,0 -8050.71,3635.08 -8050.71,8846.75c0,3814.36 2148.61,6183.88 5607.38,6183.88c1576.13,0 3350.92,-913.35 4380.21,-2239.03c556.184,1992.01 2372.2,1991.95 4130.18,1991.95c6361.29,0 8778.96,-4182.83 8778.96,-8610.21c0,-7964.04 -6423.75,-13083.8 -14485.7,-13083.8l0.021,0.017Zm-1266.34,17781.8c-1299.55,0 -2106.84,-912.534 -2106.84,-2381.44c0,-2628.04 1797.8,-4248.08 3424.58,-4248.08c1302.07,0 2079.45,890.225 2079.45,2381.37c0,2632.01 -1978.63,4248.17 -3397.19,4248.17l0,-0.012Z" style="fill:#fdfbfb;fill-rule:nonzero;"/></svg>