<?xml version="1.0" encoding="UTF-8" standalone="no"?><!DOCTYPE svg PUBLIC "-//W3C//DTD SVG 1.1//EN" "http://www.w3.org/Graphics/SVG/1.1/DTD/svg11.dtd"><svg width="100%" height="100%" viewBox="0 0 1669 1669" version="1.1" xmlns="http://www.w3.org/2000/svg" xmlns:xlink="http://www.w3.org/1999/xlink" xml:space="preserve" xmlns:serif="http://www.serif.com/" style="fill-rule:evenodd;clip-rule:evenodd;stroke-linejoin:round;stroke-miterlimit:2;"><path d="M834.375,0c-461.123,0 -834.375,373.178 -834.375,834.375c0,461.123 373.178,834.375 834.375,834.375c162.01,0 320.77,-47.573 455.569,-135.327c40.39,-26.293 49.204,-81.715 18.679,-119.006l-34.24,-41.83c-25.808,-31.528 -71.255,-39.252 -105.551,-17.256c-99.217,63.635 -215.646,98.096 -334.457,98.096c-341.347,0 -619.052,-277.705 -619.052,-619.052c0,-341.347 277.705,-619.052 619.052,-619.052c336.909,0 619.052,193.854 619.052,538.306c0,130.492 -70.965,268.285 -195.708,281.578c-58.369,-1.527 -56.892,-43.256 -45.338,-101.013l78.838,-407.465c9.642,-49.823 -28.527,-96.084 -79.272,-96.084l-151.335,0c-23.02,0 -42.594,17.478 -45.191,40.35l-0.034,0.309c-49.447,-60.226 -136.084,-73.26 -201.767,-73.26c-250.918,0 -463.721,209.381 -463.721,509.574c0,219.707 123.76,356.191 322.984,356.191c90.785,0 193.013,-52.609 252.301,-128.968c32.036,114.74 136.639,114.736 237.898,114.736c366.411,0 505.668,-240.932 505.668,-495.948c0,-458.728 -370.008,-753.629 -834.375,-753.629Zm-72.941,1024.23c-74.854,0 -121.354,-52.562 -121.354,-137.171c0,-151.375 103.553,-244.69 197.256,-244.69c74.999,0 119.776,51.277 119.776,137.167c0,151.604 -113.969,244.694 -195.678,244.694Z" style="fill:url(#_Radial1);fill-rule:nonzero;"/><defs><radialGradient id="_Radial1" cx="0" cy="0" r="1" gradientUnits="userSpaceOnUse" gradientTransform="matrix(1668.75,0,0,1668.75,0,834.375)"><stop offset="0" style="stop-color:#2092a8;stop-opacity:1"/><stop offset="0.48" style="stop-color:#26949f;stop-opacity:1"/><stop offset="1" style="stop-color:#359885;stop-opacity:1"/></radialGradient></defs></svg>