<?xml version="1.0" encoding="UTF-8" standalone="no"?><!DOCTYPE svg PUBLIC "-//W3C//DTD SVG 1.1//EN" "http://www.w3.org/Graphics/SVG/1.1/DTD/svg11.dtd"><svg width="100%" height="100%" viewBox="0 0 1600 2134" version="1.1" xmlns="http://www.w3.org/2000/svg" xmlns:xlink="http://www.w3.org/1999/xlink" xml:space="preserve" xmlns:serif="http://www.serif.com/" style="fill-rule:evenodd;clip-rule:evenodd;stroke-linejoin:round;stroke-miterlimit:2;"><path d="M717.783,2090.29c-605.408,-877.663 -717.783,-967.738 -717.783,-1290.29c0,-441.829 358.171,-800 800,-800c441.829,0 800,358.171 800,800c0,322.554 -112.375,412.629 -717.783,1290.29c-39.729,57.391 -124.709,57.387 -164.434,0Zm82.217,-956.959c184.096,0 333.333,-149.237 333.333,-333.333c0,-184.096 -149.237,-333.333 -333.333,-333.333c-184.096,0 -333.333,149.237 -333.333,333.333c0,184.096 149.237,333.333 333.333,333.333Z" style="fill:url(#_Radial1);fill-rule:nonzero;"/><defs><radialGradient id="_Radial1" cx="0" cy="0" r="1" gradientUnits="userSpaceOnUse" gradientTransform="matrix(1600,0,0,2133.33,0,1066.67)"><stop offset="0" style="stop-color:#2092a8;stop-opacity:1"/><stop offset="0.52" style="stop-color:#25939f;stop-opacity:1"/><stop offset="1" style="stop-color:#369883;stop-opacity:1"/></radialGradient></defs></svg>