<?xml version="1.0" encoding="UTF-8" standalone="no"?><!DOCTYPE svg PUBLIC "-//W3C//DTD SVG 1.1//EN" "http://www.w3.org/Graphics/SVG/1.1/DTD/svg11.dtd"><svg width="100%" height="100%" viewBox="0 0 384 512" version="1.1" xmlns="http://www.w3.org/2000/svg" xmlns:xlink="http://www.w3.org/1999/xlink" xml:space="preserve" xmlns:serif="http://www.serif.com/" style="fill-rule:evenodd;clip-rule:evenodd;stroke-linejoin:round;stroke-miterlimit:2;"><path d="M172.268,501.67c-145.298,-210.639 -172.268,-232.257 -172.268,-309.67c0,-106.039 85.961,-192 192,-192c106.039,0 192,85.961 192,192c0,77.413 -26.97,99.031 -172.268,309.67c-9.535,13.774 -29.93,13.773 -39.464,0Zm19.732,-229.67c44.183,0 80,-35.817 80,-80c0,-44.183 -35.817,-80 -80,-80c-44.183,0 -80,35.817 -80,80c0,44.183 35.817,80 80,80Z" style="fill:#45a86e;fill-rule:nonzero;"/></svg>