<?xml version="1.0" encoding="UTF-8" standalone="no"?><!DOCTYPE svg PUBLIC "-//W3C//DTD SVG 1.1//EN" "http://www.w3.org/Graphics/SVG/1.1/DTD/svg11.dtd"><svg width="100%" height="100%" viewBox="0 0 27780 37050" version="1.1" xmlns="http://www.w3.org/2000/svg" xmlns:xlink="http://www.w3.org/1999/xlink" xml:space="preserve" xmlns:serif="http://www.serif.com/" style="fill-rule:evenodd;clip-rule:evenodd;stroke-linejoin:round;stroke-miterlimit:2;"><path d="M12461.5,36289.8c-10510.5,-15237.2 -12461.5,-16801 -12461.5,-22400.9c0,-7670.63 6218.25,-13888.9 13888.9,-13888.9c7670.63,0 13888.9,6218.25 13888.9,13888.9c0,5599.92 -1950.96,7163.71 -12461.5,22400.9c-689.737,996.371 -2165.09,996.3 -2854.76,0l0.008,0Zm1427.38,-16613.9c3196.11,0 5787.04,-2590.92 5787.04,-5787.04c0,-3196.11 -2590.92,-5787.04 -5787.04,-5787.04c-3196.11,0 -5787.04,2590.92 -5787.04,5787.04c0.001,3196.11 2590.92,5787.04 5787.04,5787.04Z" style="fill:#fdfbfb;fill-rule:nonzero;"/></svg>