<?xml version="1.0" encoding="UTF-8" standalone="no"?><!DOCTYPE svg PUBLIC "-//W3C//DTD SVG 1.1//EN" "http://www.w3.org/Graphics/SVG/1.1/DTD/svg11.dtd"><svg width="100%" height="100%" viewBox="0 0 512 600" version="1.1" xmlns="http://www.w3.org/2000/svg" xmlns:xlink="http://www.w3.org/1999/xlink" xml:space="preserve" xmlns:serif="http://www.serif.com/" style="fill-rule:evenodd;clip-rule:evenodd;stroke-linecap:round;stroke-linejoin:round;stroke-miterlimit:1.5;"><path d="M393.818,420.326c1.683,-20.487 7.572,-40.973 11.363,-61.182c7.657,-40.827 15.991,-81.536 23.648,-122.363c6.982,-37.219 13.347,-71.949 5.469,-109.618c-6.819,-32.603 -24.411,-65.051 -49.756,-87.834c-48.711,-43.786 -122.893,-51.451 -180.197,-18.656c-38.769,22.187 -67.248,57.817 -81.467,98.843c-5.063,14.611 -7.365,29.575 -10.487,44.611c-3.257,15.693 -6.017,31.472 -9.275,47.161c-1.308,6.303 -4.824,15.041 -3.018,21.434c1.905,6.744 13.758,11.37 19.448,14.796c17.512,10.549 34.456,22.036 51.674,33.024c48.448,30.919 97.372,61.175 145.749,92.198c18.054,11.578 35.894,23.58 54.324,34.595c7.391,4.416 14.364,10.014 22.525,12.991Z" style="fill:#e6e6e6;fill-rule:nonzero;"/><path d="M93.737,256.085c-2.96,37.46 -16.892,73.815 -19.874,111.299c43.035,-9.956 82.867,-32.45 125.873,-42.4c-6.46,-7.593 -16.889,-12.584 -25.174,-18.108c-16.726,-11.15 -33.452,-22.275 -50.35,-33.158c-9.427,-6.072 -19.294,-15.471 -30.475,-17.633Z" style="fill:#e6e6e6;fill-rule:nonzero;"/><path d="M209.645,564.183l0,-84.268l50.349,0l0,-48.33l71.55,0c6.309,0 20.895,-2.507 25.7,1.986c3.213,3.007 2.124,9.042 2.124,12.885l0,33.459c3.09,-0.01 7.073,0.484 9.756,-1.274c7.403,-4.852 11.749,-20.725 14.432,-28.468c1.48,-4.274 4.979,-11.158 1.493,-15.167c-3.041,-3.497 -8.444,-5.595 -12.431,-7.996c-8.47,-5.104 -16.79,-10.438 -25.175,-15.665c-28.19,-17.579 -56.427,-35.125 -84.799,-52.449c-8.382,-5.118 -16.835,-10.113 -25.174,-15.297c-4.949,-3.077 -9.64,-6.548 -15.9,-5.532c-12.134,1.972 -24.181,7.537 -35.775,11.302c-25.589,8.309 -51.164,16.761 -76.849,24.799c-9.323,2.917 -18.526,6.115 -27.825,9.083c-3.84,1.226 -9.279,2.089 -11.687,5.48c-2.686,3.781 -1.571,10.046 -1.563,14.352c0.023,13.259 1.977,26.668 4.77,39.655c12.651,58.808 68.197,121.403 137.004,121.445Z" style="fill:#e6e6e6;fill-rule:nonzero;"/><path d="M282.519,453.891l0,47.091l-50.349,0l0,48.33l50.349,0l0,48.33l54.325,0l0,-48.33l49.024,0l0,-48.33l-49.024,0l0,-47.091l-54.325,0Z" style="fill:#e6e6e6;fill-rule:nonzero;"/><path d="M380.65,142.985c0,0 -15.245,62.038 -20.01,81.428c-0.909,3.696 -2.811,7.073 -5.501,9.766c-15.642,15.749 -28.058,31.589 -42.482,39.95c-48.747,28.26 -97.055,15.782 -126.223,-39.746c-5.913,-11.257 -5.811,-25.48 -9.443,-40.421c-0.981,-3.935 -0.986,-8.05 -0.013,-11.987c5.11,-20.808 21.292,-86.311 21.292,-86.311l-20,80.96c-89.172,-27.104 2.629,-143.96 98.239,-132.014c10.528,1.316 21.193,1.618 31.591,5.939c2.245,0.947 4.575,1.678 6.958,2.184c113.563,24.483 130.472,148.699 65.624,173.241c-6.366,2.41 -12.091,-1.956 -20.019,-1.657" style="fill:#e6e6e6;stroke:#45a86e;stroke-width:16.44px;"/><path d="M244.997,208.878c3.318,14.322 7.435,21.835 14.432,23.412c6.998,1.577 14.587,-1.462 25.095,-12.047l-39.527,-11.365Z" style="fill:#45a86e;stroke:#45a86e;stroke-width:5.43px;"/><path d="M233.782,142.401c3.787,1.015 5.842,5.641 4.587,10.325c-1.255,4.683 -5.348,7.662 -9.134,6.647c-3.787,-1.015 -5.842,-5.641 -4.587,-10.324c1.255,-4.684 5.348,-7.662 9.134,-6.648Z" style="fill:#45a86e;stroke:#45a86e;stroke-width:5.43px;"/><path d="M326.223,167.171c3.787,1.015 5.842,5.641 4.587,10.324c-1.255,4.683 -5.348,7.662 -9.134,6.647c-3.787,-1.014 -5.842,-5.64 -4.587,-10.324c1.254,-4.683 5.348,-7.662 9.134,-6.647Z" style="fill:#45a86e;stroke:#45a86e;stroke-width:5.43px;"/></svg>