<?xml version="1.0" encoding="UTF-8" standalone="no"?><!DOCTYPE svg PUBLIC "-//W3C//DTD SVG 1.1//EN" "http://www.w3.org/Graphics/SVG/1.1/DTD/svg11.dtd"><svg width="100%" height="100%" viewBox="0 0 512 512" version="1.1" xmlns="http://www.w3.org/2000/svg" xmlns:xlink="http://www.w3.org/1999/xlink" xml:space="preserve" xmlns:serif="http://www.serif.com/" style="fill-rule:evenodd;clip-rule:evenodd;stroke-linejoin:round;stroke-miterlimit:2;"><path d="M184.889,0c-26.578,0 -48.622,20.5 -54.933,48.2c-0.712,0 -1.245,-0.2 -1.956,-0.2c-31.378,0 -56.889,28.7 -56.889,64c0,4.8 0.533,9.5 1.511,14c-25.955,12 -44.178,40.6 -44.178,74c0,12.6 2.845,24.3 7.378,34.9c-21.333,13.8 -35.822,39.4 -35.822,69.1c0,33.3 18.133,61.9 43.911,73.9c-0.8,4.6 -1.244,9.3 -1.244,14.1c0,39.8 28.622,72 64,72c3.644,0 7.2,-0.5 10.666,-1.2c8.534,28.5 32.178,49.2 60.445,49.2c35.378,0 64,-32.2 64,-72l0,-376c0,-35.3 -25.511,-64 -56.889,-64Zm327.111,304c0,-29.7 -14.489,-55.3 -35.822,-69.1c4.622,-10.6 7.378,-22.3 7.378,-34.9c0,-33.4 -18.223,-62 -44.178,-74c0.889,-4.5 1.511,-9.2 1.511,-14c0,-35.3 -25.511,-64 -56.889,-64c-0.711,0 -1.333,0.2 -1.956,0.2c-6.311,-27.7 -28.355,-48.2 -54.933,-48.2c-31.378,0 -56.889,28.6 -56.889,64l0,376c0,39.8 28.622,72 64,72c28.267,0 51.911,-20.7 60.445,-49.2c3.466,0.7 7.022,1.2 10.666,1.2c35.378,0 64,-32.2 64,-72c0,-4.8 -0.444,-9.5 -1.244,-14.1c25.778,-12 43.911,-40.6 43.911,-73.9Z" style="fill:#e6e6e6;fill-rule:nonzero;"/></svg>