<?xml version="1.0" encoding="UTF-8" standalone="no"?><!DOCTYPE svg PUBLIC "-//W3C//DTD SVG 1.1//EN" "http://www.w3.org/Graphics/SVG/1.1/DTD/svg11.dtd"><svg width="100%" height="100%" viewBox="0 0 512 512" version="1.1" xmlns="http://www.w3.org/2000/svg" xmlns:xlink="http://www.w3.org/1999/xlink" xml:space="preserve" xmlns:serif="http://www.serif.com/" style="fill-rule:evenodd;clip-rule:evenodd;stroke-linejoin:round;stroke-miterlimit:2;"><path d="M256,224c-79.41,0 -192,122.76 -192,200.25c0,34.9 26.81,55.75 71.74,55.75c48.84,0 81.09,-25.08 120.26,-25.08c39.51,0 71.85,25.08 120.26,25.08c44.93,0 71.74,-20.85 71.74,-55.75c0,-77.49 -112.59,-200.25 -192,-200.25Zm-147.28,-12.61c-10.4,-34.65 -42.44,-57.09 -71.56,-50.13c-29.12,6.96 -44.29,40.69 -33.89,75.34c10.4,34.65 42.44,57.09 71.56,50.13c29.12,-6.96 44.29,-40.69 33.89,-75.34Zm84.72,-20.78c30.94,-8.14 46.42,-49.94 34.58,-93.36c-11.84,-43.42 -46.52,-72.01 -77.46,-63.87c-30.94,8.14 -46.42,49.94 -34.58,93.36c11.84,43.42 46.53,72.02 77.46,63.87Zm281.39,-29.34c-29.12,-6.96 -61.15,15.48 -71.56,50.13c-10.4,34.65 4.77,68.38 33.89,75.34c29.12,6.96 61.15,-15.48 71.56,-50.13c10.4,-34.65 -4.77,-68.38 -33.89,-75.34Zm-156.27,29.34c30.94,8.14 65.62,-20.45 77.46,-63.87c11.84,-43.42 -3.64,-85.21 -34.58,-93.36c-30.94,-8.15 -65.62,20.45 -77.46,63.87c-11.84,43.42 3.64,85.22 34.58,93.36Z" style="fill:#e6e6e6;fill-rule:nonzero;"/></svg>