<?xml version="1.0" encoding="UTF-8" standalone="no"?><!DOCTYPE svg PUBLIC "-//W3C//DTD SVG 1.1//EN" "http://www.w3.org/Graphics/SVG/1.1/DTD/svg11.dtd"><svg width="100%" height="100%" viewBox="0 0 512 512" version="1.1" xmlns="http://www.w3.org/2000/svg" xmlns:xlink="http://www.w3.org/1999/xlink" xml:space="preserve" xmlns:serif="http://www.serif.com/" style="fill-rule:evenodd;clip-rule:evenodd;stroke-linejoin:round;stroke-miterlimit:2;"><path d="M328,256c0,39.8 -32.2,72 -72,72c-39.8,0 -72,-32.2 -72,-72c0,-39.8 32.2,-72 72,-72c39.8,0 72,32.2 72,72Zm104,-72c-39.8,0 -72,32.2 -72,72c0,39.8 32.2,72 72,72c39.8,0 72,-32.2 72,-72c0,-39.8 -32.2,-72 -72,-72Zm-352,0c-39.8,0 -72,32.2 -72,72c0,39.8 32.2,72 72,72c39.8,0 72,-32.2 72,-72c0,-39.8 -32.2,-72 -72,-72Z" style="fill:#e6e6e6;fill-rule:nonzero;"/></svg>