<?xml version="1.0" encoding="UTF-8" standalone="no"?><!DOCTYPE svg PUBLIC "-//W3C//DTD SVG 1.1//EN" "http://www.w3.org/Graphics/SVG/1.1/DTD/svg11.dtd"><svg width="100%" height="100%" viewBox="0 0 448 512" version="1.1" xmlns="http://www.w3.org/2000/svg" xmlns:xlink="http://www.w3.org/1999/xlink" xml:space="preserve" xmlns:serif="http://www.serif.com/" style="fill-rule:evenodd;clip-rule:evenodd;stroke-linejoin:round;stroke-miterlimit:2;"><path d="M129.62,176l39.09,0c1.49,-27.03 6.54,-51.35 14.21,-70.41c-27.71,13.24 -48.02,39.19 -53.3,70.41Zm0,32c5.29,31.22 25.59,57.17 53.3,70.41c-7.68,-19.06 -12.72,-43.38 -14.21,-70.41l-39.09,0Zm94.38,78.69c7.69,-7.45 20.77,-34.42 23.43,-78.69l-46.87,0c2.67,44.26 15.75,71.24 23.44,78.69Zm-23.43,-110.69l46.87,0c-2.66,-44.26 -15.74,-71.24 -23.43,-78.69c-7.7,7.45 -20.78,34.43 -23.44,78.69Zm64.51,102.41c27.71,-13.24 48.02,-39.19 53.3,-70.41l-39.09,0c-1.49,27.03 -6.53,51.35 -14.21,70.41Zm150.92,-278.41l-352,0c-35.35,0 -64,28.65 -64,64l0,384c0,35.35 28.65,64 64,64l352,0c17.67,0 32,-14.33 32,-32l0,-448c0,-17.67 -14.33,-32 -32,-32Zm-80,416l-224,0c-8.8,0 -16,-7.2 -16,-16c0,-8.8 7.2,-16 16,-16l224,0c8.8,0 16,7.2 16,16c0,8.8 -7.2,16 -16,16Zm-112,-96c-70.69,0 -128,-57.31 -128,-128c0,-70.69 57.31,-128 128,-128c70.69,0 128,57.31 128,128c0,70.69 -57.31,128 -128,128Zm41.08,-214.41c7.68,19.06 12.72,43.38 14.21,70.41l39.09,0c-5.28,-31.22 -25.59,-57.17 -53.3,-70.41Z" style="fill:#e6e6e6;fill-rule:nonzero;"/></svg>