<?xml version="1.0" encoding="UTF-8" standalone="no"?>
<!DOCTYPE svg PUBLIC "-//W3C//DTD SVG 1.1//EN" "http://www.w3.org/Graphics/SVG/1.1/DTD/svg11.dtd">
<svg width="100%" height="100%" viewBox="0 0 348 586" version="1.1" xmlns="http://www.w3.org/2000/svg" xmlns:xlink="http://www.w3.org/1999/xlink" xml:space="preserve" xmlns:serif="http://www.serif.com/" style="fill-rule:evenodd;clip-rule:evenodd;stroke-linejoin:round;stroke-miterlimit:2;">
    <g transform="matrix(1.04983,0,0,1.04983,-206.955,-8.22211)">
        <path d="M443.502,564.681C266.091,517.144 161.069,334.855 208.535,157.708C210.621,149.924 217.8,144.701 225.739,144.978L302.128,147.655C310.408,147.945 317.357,154.181 318.539,162.381L330.983,248.751C332.072,256.309 328,263.728 321.041,266.869L269.918,289.941C280.818,350.922 313.303,406.31 359.675,445.406L405.219,412.667C411.418,408.21 419.879,408.394 425.88,413.115L494.457,467.078C500.967,472.202 502.893,481.338 499.005,488.653L463.128,556.147C459.384,563.189 451.206,566.745 443.502,564.681ZM367.48,133.422C387.75,144.867 400.231,166.484 400.007,189.761C399.933,197.532 392.635,203.208 385.088,201.355L377.05,199.384C371.789,198.093 368.088,193.447 367.887,188.035C367.488,177.457 361.875,167.736 352.915,162.102C348.327,159.222 346.155,153.693 347.668,148.492L349.979,140.545C352.149,133.083 360.713,129.6 367.48,133.422ZM401.376,8.558C489.261,40.499 541.359,130.83 525.09,222.837C523.879,229.687 517.112,234.078 510.356,232.421L502.557,230.507C496.422,229.002 492.482,223.011 493.562,216.788C506.823,140.383 463.59,65.583 390.851,38.887C384.921,36.71 381.702,30.303 383.467,24.237L385.709,16.526C387.652,9.847 394.838,6.181 401.376,8.558ZM384.034,70.464C438.415,92.555 470.879,148.668 462.807,206.903C461.826,213.983 454.937,218.665 447.995,216.96L440.167,215.037C434.247,213.584 430.291,207.928 431.089,201.883C436.788,158.682 412.782,117.107 372.522,100.442C366.888,98.111 363.969,91.858 365.669,86.003L367.918,78.263C369.913,71.399 377.412,67.774 384.034,70.464Z" style="fill:rgb(250,250,250);fill-rule:nonzero;"/>
    </g>
</svg>
