<?xml version="1.0" encoding="UTF-8" standalone="no"?><!DOCTYPE svg PUBLIC "-//W3C//DTD SVG 1.1//EN" "http://www.w3.org/Graphics/SVG/1.1/DTD/svg11.dtd"><svg width="100%" height="100%" viewBox="0 0 512 512" version="1.1" xmlns="http://www.w3.org/2000/svg" xmlns:xlink="http://www.w3.org/1999/xlink" xml:space="preserve" xmlns:serif="http://www.serif.com/" style="fill-rule:evenodd;clip-rule:evenodd;stroke-linejoin:round;stroke-miterlimit:2;"><path d="M497.39,361.8l-112,-48c-9.8,-4.177 -21.263,-1.352 -28,6.9l-49.6,60.6c-77.825,-36.694 -140.496,-99.365 -177.19,-177.19l60.6,-49.6c8.269,-6.726 11.097,-18.202 6.9,-28l-48,-112c-4.621,-10.594 -16.229,-16.462 -27.5,-13.9l-104,24c-10.852,2.506 -18.603,12.252 -18.6,23.39c0,256.5 207.9,464 464,464c11.141,0.007 20.893,-7.744 23.4,-18.6l24,-104c2.545,-11.325 -3.366,-22.97 -14.01,-27.6Z" style="fill:#45a86e;fill-rule:nonzero;"/></svg>