<?xml version="1.0" encoding="UTF-8" standalone="no"?><!DOCTYPE svg PUBLIC "-//W3C//DTD SVG 1.1//EN" "http://www.w3.org/Graphics/SVG/1.1/DTD/svg11.dtd"><svg width="100%" height="100%" viewBox="0 0 1035 1742" version="1.1" xmlns="http://www.w3.org/2000/svg" xmlns:xlink="http://www.w3.org/1999/xlink" xml:space="preserve" xmlns:serif="http://www.serif.com/" style="fill-rule:evenodd;clip-rule:evenodd;stroke-linejoin:round;stroke-miterlimit:2;"><path d="M769.908,1740.15c-554.41,-148.553 -882.603,-718.207 -734.272,-1271.79c6.519,-24.325 28.953,-40.647 53.762,-39.781l238.716,8.365c25.875,0.907 47.591,20.394 51.284,46.019l38.888,269.906c3.403,23.619 -9.322,46.804 -31.069,56.619l-159.759,72.1c34.062,190.566 135.578,363.653 280.49,485.828l142.325,-102.309c19.372,-13.928 45.813,-13.353 64.566,1.4l214.303,168.634c20.344,16.013 26.363,44.563 14.213,67.422l-112.116,210.919c-11.7,22.006 -37.256,33.119 -61.331,26.669Zm-237.569,-1347.68c63.344,35.766 102.347,103.319 101.647,176.06c-0.231,24.284 -23.038,42.022 -46.622,36.231l-25.119,-6.159c-16.44,-4.035 -28.006,-18.554 -28.634,-35.466c-1.247,-33.056 -18.788,-63.434 -46.788,-81.041c-14.337,-9 -21.125,-26.278 -16.397,-42.531l7.222,-24.834c6.782,-23.319 33.544,-34.203 54.691,-22.26Zm105.925,-390.2c274.641,99.816 437.447,382.1 386.606,669.622c-3.784,21.406 -24.931,35.128 -46.044,29.95l-24.371,-5.981c-19.172,-4.703 -31.485,-23.425 -28.11,-42.872c41.441,-238.766 -93.662,-472.516 -320.972,-555.941c-18.531,-6.803 -28.59,-26.825 -23.075,-45.781l7.007,-24.097c6.071,-20.872 28.528,-32.328 48.959,-24.9Zm-54.194,193.457c169.941,69.034 271.391,244.387 246.166,426.371c-3.066,22.125 -24.594,36.757 -46.288,31.429l-24.462,-6.01c-18.5,-4.54 -30.863,-22.215 -28.369,-41.106c17.809,-135.003 -57.209,-264.925 -183.022,-317.003c-17.606,-7.285 -26.728,-26.825 -21.415,-45.122l7.028,-24.188c6.234,-21.45 29.668,-32.778 50.362,-24.371Z" style="fill:url(#_Radial1);fill-rule:nonzero;"/><defs><radialGradient id="_Radial1" cx="0" cy="0" r="1" gradientUnits="userSpaceOnUse" gradientTransform="matrix(1034.12,0,0,1741.97,0,870.987)"><stop offset="0" style="stop-color:#2092a8;stop-opacity:1"/><stop offset="0.54" style="stop-color:#25939f;stop-opacity:1"/><stop offset="1" style="stop-color:#379881;stop-opacity:1"/></radialGradient></defs></svg>