<?xml version="1.0" encoding="UTF-8" standalone="no"?><!DOCTYPE svg PUBLIC "-//W3C//DTD SVG 1.1//EN" "http://www.w3.org/Graphics/SVG/1.1/DTD/svg11.dtd"><svg width="100%" height="100%" viewBox="0 0 17971 30246" version="1.1" xmlns="http://www.w3.org/2000/svg" xmlns:xlink="http://www.w3.org/1999/xlink" xml:space="preserve" xmlns:serif="http://www.serif.com/" style="fill-rule:evenodd;clip-rule:evenodd;stroke-linejoin:round;stroke-miterlimit:2;"><path d="M13366.5,30211c-9625.17,-2579.05 -15323,-12468.9 -12747.8,-22079.7c113.179,-422.308 502.658,-705.675 933.371,-690.642l4144.38,145.225c449.216,15.746 826.229,354.063 890.345,798.942l675.138,4685.88c59.079,410.054 -161.838,812.571 -539.392,982.971l-2773.59,1251.73c591.354,3308.44 2353.78,6313.42 4869.63,8434.5l2470.92,-1776.2c336.317,-241.804 795.363,-231.821 1120.94,24.308l3720.54,2927.67c353.196,278.004 457.692,773.663 246.755,1170.52l-1946.46,3661.79c-203.125,382.05 -646.808,574.983 -1064.78,463.004l0,-0.017l0.004,0.029Zm-4124.46,-23397.2c1099.73,620.937 1776.86,1793.73 1764.7,3056.6c-4.008,421.596 -399.962,729.55 -809.408,629.012l-436.096,-106.929c-285.417,-70.05 -486.213,-322.117 -497.117,-615.729c-21.65,-573.888 -326.179,-1101.28 -812.291,-1406.96c-248.905,-156.25 -366.755,-456.212 -284.671,-738.383l125.383,-431.146c117.742,-404.846 582.363,-593.804 949.496,-386.458Zm1838.98,-6774.29c4768.08,1732.92 7594.58,6633.67 6711.92,11625.4c-65.696,371.634 -432.834,609.863 -799.375,519.967l-423.109,-103.838c-332.85,-81.65 -546.616,-406.683 -488.021,-744.304c719.463,-4145.25 -1626.08,-8203.42 -5572.42,-9651.75c-321.717,-118.108 -496.354,-465.712 -400.604,-794.808l121.645,-418.354c105.4,-362.359 495.28,-561.25 849.984,-432.292l-0.021,0.004Zm-940.867,3358.63c2950.36,1198.51 4711.67,4242.83 4273.71,7402.29c-53.23,384.113 -426.98,638.142 -803.613,545.642l-424.688,-104.342c-321.179,-78.817 -535.816,-385.675 -492.516,-713.646c309.183,-2343.8 -993.213,-4599.38 -3177.47,-5503.54c-305.658,-126.48 -464.029,-465.713 -371.787,-783.371l122.012,-419.929c108.229,-372.396 515.071,-569.063 874.342,-423.109l0.008,0.004Z" style="fill:#fdfbfb;fill-rule:nonzero;"/></svg>