<?xml version="1.0" encoding="UTF-8" standalone="no"?><!DOCTYPE svg PUBLIC "-//W3C//DTD SVG 1.1//EN" "http://www.w3.org/Graphics/SVG/1.1/DTD/svg11.dtd"><svg width="100%" height="100%" viewBox="0 0 512 512" version="1.1" xmlns="http://www.w3.org/2000/svg" xmlns:xlink="http://www.w3.org/1999/xlink" xml:space="preserve" xmlns:serif="http://www.serif.com/" style="fill-rule:evenodd;clip-rule:evenodd;stroke-linejoin:round;stroke-miterlimit:2;"><path d="M50.485,391.074c41.536,-18.229 102.581,-29.366 130.502,-64.137c30.421,-37.883 14.183,-89.995 56.036,-121.392c56.199,-42.159 141.573,-16.123 198.899,-57.467c38.075,-27.46 65.907,-88.003 29.023,-125.487c-48.831,-49.632 -136.196,-8.404 -163.33,40.306c-11.509,20.66 -5.141,48.062 -19.224,66.82c-24.491,32.62 -72.449,28.66 -90.592,72.832c-13.006,31.667 -2.931,68.542 -23.26,97.719c-30.098,43.198 -101.375,42.704 -118.054,90.806Z" style="fill:#e6e6e6;fill-rule:nonzero;"/><path d="M404.146,389.381c-76.169,13.995 -49.347,90.292 -116.061,118.704c20.024,5.656 35.844,1.25 49.529,-15.006c19.419,-23.063 15.365,-52.188 44.161,-70.612c39.083,-25.011 140.149,-12.43 127.421,-81.56c-6.151,-33.434 -55.949,-32.603 -80.074,-16.169c-23.328,15.896 -24.334,40.609 -24.976,64.643Z" style="fill:#e6e6e6;fill-rule:nonzero;"/><path d="M93.53,60.656c-59.537,10.622 -38.571,68.523 -90.717,90.085c15.651,4.292 28.017,0.949 38.713,-11.388c15.179,-17.503 12.01,-39.605 34.518,-53.587c30.549,-18.981 109.546,-9.434 99.597,-61.897c-4.808,-25.373 -43.732,-24.742 -62.589,-12.27c-18.234,12.063 -19.02,30.818 -19.522,49.057Z" style="fill:#e6e6e6;fill-rule:nonzero;"/></svg>