<?xml version="1.0" encoding="UTF-8" standalone="no"?><!DOCTYPE svg PUBLIC "-//W3C//DTD SVG 1.1//EN" "http://www.w3.org/Graphics/SVG/1.1/DTD/svg11.dtd"><svg width="100%" height="100%" viewBox="0 0 512 512" version="1.1" xmlns="http://www.w3.org/2000/svg" xmlns:xlink="http://www.w3.org/1999/xlink" xml:space="preserve" xmlns:serif="http://www.serif.com/" style="fill-rule:evenodd;clip-rule:evenodd;stroke-linejoin:round;stroke-miterlimit:2;"><path d="M266.448,220.049l149.94,53.55l0,218.45c0,8.777 -7.223,16 -16,16l-64,0c-8.777,0 -16,-7.223 -16,-16l0,-112l-160,0l0,112c0,8.777 -7.223,16 -16,16l-64,0c-8.777,0 -16,-7.223 -16,-16l0,-213.91c-37.16,-13.25 -64,-48.43 -64,-90.09c0,-17.555 14.445,-32 32,-32c17.555,0 32,14.445 32,32c0.033,17.542 14.458,31.967 32,32l170.06,0Zm245.94,-112l0,32c0,35.109 -28.891,64 -64,64l-32,0l0,35.58l-128,-45.71l0,-149.87c0,-14.25 17.22,-21.39 27.31,-11.31l27.28,27.31l53.63,0c10.91,0 23.75,7.92 28.62,17.69l7.16,14.31l64,0c8.777,0 16,7.222 16,16Zm-112,0c0,-8.778 -7.223,-16 -16,-16c-8.777,0 -16,7.222 -16,16c0,8.777 7.223,16 16,16c8.777,0 16,-7.223 16,-16Z" style="fill:#e6e6e6;fill-rule:nonzero;"/><path d="M401.836,352.782c-10.04,0 -53.149,0.985 -80.897,42.765l0,-42.765c0,-26.34 -21.425,-47.765 -47.766,-47.765c-8.791,0 -15.921,7.13 -15.921,15.922c0,8.792 7.13,15.922 15.921,15.922c8.777,0 15.922,7.144 15.922,15.921l0,127.374c0,17.564 14.28,31.844 31.844,31.844l87.569,0c4.399,0 7.961,-3.562 7.961,-7.961l0,-7.961c0,-8.792 -7.13,-15.922 -15.921,-15.922l-15.922,0l63.687,-47.765l0,71.648c0,4.399 3.562,7.961 7.961,7.961l15.922,0c4.398,0 7.96,-3.562 7.96,-7.961l0,-102.566c-5.119,1.329 -10.393,2.259 -15.921,2.259c-30.754,0 -56.483,-21.917 -62.399,-50.95Zm78.32,-47.765l-31.843,0l-31.844,-31.844l0,66.872c0,26.38 21.385,47.765 47.766,47.765c26.38,0 47.765,-21.385 47.765,-47.765l0,-66.872l-31.844,31.844Zm-35.824,39.804c-4.398,0 -7.96,-3.562 -7.96,-7.96c0,-4.399 3.562,-7.961 7.96,-7.961c4.399,0 7.961,3.562 7.961,7.961c0,4.398 -3.562,7.96 -7.961,7.96Zm39.805,0c-4.398,0 -7.961,-3.562 -7.961,-7.96c0,-4.399 3.563,-7.961 7.961,-7.961c4.398,0 7.961,3.562 7.961,7.961c0,4.398 -3.563,7.96 -7.961,7.96Z" style="fill:#ccc;fill-rule:nonzero;"/></svg>