<?xml version="1.0" encoding="UTF-8" standalone="no"?><!DOCTYPE svg PUBLIC "-//W3C//DTD SVG 1.1//EN" "http://www.w3.org/Graphics/SVG/1.1/DTD/svg11.dtd"><svg width="100%" height="100%" viewBox="0 0 1588 1390" version="1.1" xmlns="http://www.w3.org/2000/svg" xmlns:xlink="http://www.w3.org/1999/xlink" xml:space="preserve" xmlns:serif="http://www.serif.com/" style="fill-rule:evenodd;clip-rule:evenodd;stroke-linejoin:round;stroke-miterlimit:2;"><path d="M1438.67,0l-396.875,0c-82.166,0 -148.828,66.663 -148.828,148.828l0,396.875c0,82.166 66.662,148.828 148.828,148.828l248.047,0l0,198.438c0,109.45 -88.987,198.437 -198.438,198.437l-24.804,0c-41.238,0 -74.415,33.177 -74.415,74.414l0,148.828c0,41.238 33.177,74.414 74.415,74.414l24.804,0c274.092,0 496.094,-222.001 496.094,-496.093l0,-744.141c0,-82.165 -66.663,-148.828 -148.828,-148.828Zm-892.969,0l-396.875,0c-82.165,0 -148.828,66.663 -148.828,148.828l0,396.875c0,82.166 66.663,148.828 148.828,148.828l248.047,0l0,198.438c0,109.45 -88.987,198.437 -198.438,198.437l-24.804,0c-41.238,0 -74.414,33.177 -74.414,74.414l0,148.828c0,41.238 33.176,74.414 74.414,74.414l24.804,0c274.092,0 496.094,-222.001 496.094,-496.093l0,-744.141c0,-82.165 -66.662,-148.828 -148.828,-148.828Z" style="fill:url(#_Radial1);fill-rule:nonzero;"/><defs><radialGradient id="_Radial1" cx="0" cy="0" r="1" gradientUnits="userSpaceOnUse" gradientTransform="matrix(1587.5,0,0,1389.06,0,694.531)"><stop offset="0" style="stop-color:#1d92ac;stop-opacity:1"/><stop offset="0.56" style="stop-color:#2393a3;stop-opacity:1"/><stop offset="1" style="stop-color:#38987f;stop-opacity:1"/></radialGradient></defs></svg>