<?xml version="1.0" encoding="UTF-8" standalone="no"?><!DOCTYPE svg PUBLIC "-//W3C//DTD SVG 1.1//EN" "http://www.w3.org/Graphics/SVG/1.1/DTD/svg11.dtd"><svg width="100%" height="100%" viewBox="0 0 541 483" version="1.1" xmlns="http://www.w3.org/2000/svg" xmlns:xlink="http://www.w3.org/1999/xlink" xml:space="preserve" xmlns:serif="http://www.serif.com/" style="fill-rule:evenodd;clip-rule:evenodd;stroke-linejoin:round;stroke-miterlimit:2;"><rect id="Artboard1" x="0" y="0" width="540.7" height="482.063" style="fill:none;"/><path d="M270.044,239.679l136,-136c9.4,-9.4 24.6,-9.4 33.9,0l22.6,22.6c9.4,9.4 9.4,24.6 0,33.9l-96.3,96.5l96.4,96.4c9.4,9.4 9.4,24.6 0,33.9l-22.6,22.7c-9.4,9.4 -24.6,9.4 -33.9,0l-136,-136c-9.5,-9.4 -9.5,-24.6 -0.1,-34Zm-192,34l136,136c9.4,9.4 24.6,9.4 33.9,0l22.6,-22.6c9.4,-9.4 9.4,-24.6 0,-33.9l-96.3,-96.5l96.4,-96.4c9.4,-9.4 9.4,-24.6 0,-33.9l-22.6,-22.7c-9.4,-9.4 -24.6,-9.4 -33.9,0l-136,136c-9.5,9.4 -9.5,24.6 -0.1,34Z" style="fill:#45a86e;fill-rule:nonzero;"/></svg>