<?xml version="1.0" encoding="UTF-8" standalone="no"?><!DOCTYPE svg PUBLIC "-//W3C//DTD SVG 1.1//EN" "http://www.w3.org/Graphics/SVG/1.1/DTD/svg11.dtd"><svg width="100%" height="100%" viewBox="0 0 512 512" version="1.1" xmlns="http://www.w3.org/2000/svg" xmlns:xlink="http://www.w3.org/1999/xlink" xml:space="preserve" xmlns:serif="http://www.serif.com/" style="fill-rule:evenodd;clip-rule:evenodd;stroke-linejoin:round;stroke-miterlimit:2;"><path d="M436.313,10.829c-33.869,5.985 -52.816,35.164 -73.48,59.827c-38.419,45.856 -77.895,90.882 -116.797,136.334c-13.08,15.283 -26.251,30.489 -39.28,45.817c-5.674,6.676 -11.776,15.425 -6.841,24.481c5.833,10.706 25.134,6.809 35.249,6.809l63.346,1.952c11.866,0 35.591,-0.265 47.286,-2.32c9.77,-1.716 16.366,-9.276 22.495,-16.394c7.666,-8.902 15.311,-17.822 22.864,-26.82c26.466,-31.531 53.574,-62.534 80.271,-93.87c13.702,-16.083 30.887,-31.581 36.692,-52.522c12.4,-44.747 -24.317,-91.685 -71.805,-83.294Z" style="fill:#e6e6e6;fill-rule:nonzero;"/><path d="M1.373,482.392c63.804,0 127.705,-16.213 183.167,-47.102c24.2,-13.478 46.118,-31.632 65.823,-51.237c28.065,-27.924 54.978,-56.682 23.762,-60.209l-70.123,-24.721c-8.856,0 -22.532,-2.523 -30.807,0.674c-6.328,2.445 -12.246,11.179 -16.615,16.089c-9.457,10.626 -19.384,21.091 -29.324,31.29c-28.856,29.607 -56.783,60.209 -84.865,90.517c-13.573,14.649 -29.44,28.463 -41.018,44.699Z" style="fill:#e6e6e6;fill-rule:nonzero;"/></svg>