<?xml version="1.0" encoding="UTF-8" standalone="no"?><!DOCTYPE svg PUBLIC "-//W3C//DTD SVG 1.1//EN" "http://www.w3.org/Graphics/SVG/1.1/DTD/svg11.dtd"><svg width="100%" height="100%" viewBox="0 0 640 512" version="1.1" xmlns="http://www.w3.org/2000/svg" xmlns:xlink="http://www.w3.org/1999/xlink" xml:space="preserve" xmlns:serif="http://www.serif.com/" style="fill-rule:evenodd;clip-rule:evenodd;stroke-linejoin:round;stroke-miterlimit:2;"><path d="M240,384c-8.8,0 -16,7.2 -16,16c0,8.8 7.2,16 16,16c8.8,0 16,-7.2 16,-16c0,-8.8 -7.2,-16 -16,-16Zm160,32c8.8,0 16,-7.2 16,-16c0,-8.8 -7.2,-16 -16,-16c-8.8,0 -16,7.2 -16,16c0,8.8 7.2,16 16,16Zm224,-416l-608,0c-8.8,0 -16,7.2 -16,16l0,32c0,8.8 7.2,16 16,16l608,0c8.8,0 16,-7.2 16,-16l0,-32c0,-8.8 -7.2,-16 -16,-16Zm0,448l-48,0l0,-352l-512,0l0,352l-48,0c-8.8,0 -16,7.2 -16,16l0,32c0,8.8 7.2,16 16,16l608,0c8.8,0 16,-7.2 16,-16l0,-32c0,-8.8 -7.2,-16 -16,-16Zm-144,-200c0,4.4 -3.6,8 -8,8l-136,0l0,32l104,0c4.4,0 8,3.6 8,8l0,16c0,4.4 -3.6,8 -8,8l-104,0l0,32l64,0c26.5,0 48,21.5 48,48c0,26.5 -21.5,48 -48,48c-26.5,0 -48,-21.5 -48,-48l0,-16l-64,0l0,16c0,26.5 -21.5,48 -48,48c-26.5,0 -48,-21.5 -48,-48c0,-26.5 21.5,-48 48,-48l64,0l0,-32l-104,0c-4.4,0 -8,-3.6 -8,-8l0,-16c0,-4.4 3.6,-8 8,-8l104,0l0,-32l-136,0c-4.4,0 -8,-3.6 -8,-8l0,-16c0,-4.4 3.6,-8 8,-8l136,0l0,-32l-104,0c-4.4,0 -8,-3.6 -8,-8l0,-16c0,-4.4 3.6,-8 8,-8l104,0l0,-24c0,-4.4 3.6,-8 8,-8l16,0c4.4,0 8,3.6 8,8l0,24l104,0c4.4,0 8,3.6 8,8l0,16c0,4.4 -3.6,8 -8,8l-104,0l0,32l136,0c4.4,0 8,3.6 8,8l0,16Z" style="fill:#e6e6e6;fill-rule:nonzero;"/></svg>